<svg xmlns="http://www.w3.org/2000/svg" viewBox="0 0 286.915 286.9"><g transform="translate(-231.54 -375.82)"><ellipse cx="374.998" cy="519.27" rx="143.458" ry="143.45" color="#000"/><path d="M376.714 437.627c-11.925 0-23.207 2.09-33.74 6.274-10.487 4.168-19.623 9.925-27.315 17.24-7.69 7.31-13.757 15.98-18.172 25.92-4.44 9.94-6.653 20.692-6.653 32.165 0 12.038 2.1 23.127 6.343 33.19 4.224 10.018 10.176 18.683 17.824 25.893 7.58 7.147 16.67 12.697 27.165 16.62.002 0 .003 0 .005.002 10.532 3.996 21.95 5.984 34.16 5.984 5.75 0 11.347-.243 16.79-.73 5.51-.434 11.403-1.297 17.688-2.58a3.382 3.19 0 0 0 2.667-3.116v-12.77a3.382 3.19 0 0 0-4.31-3.065c-5.16 1.39-10.577 2.406-16.26 3.047a3.382 3.19 0 0 0-.004 0c-5.66.646-11.15.968-16.474.968-9.61 0-18.392-1.496-26.428-4.46a3.382 3.19 0 0 0-.02-.006c-8.022-2.9-14.958-7.185-20.922-12.922-5.7-5.488-10.117-12.07-13.273-19.85-3.147-7.816-4.74-16.468-4.74-26.024 0-8.857 1.64-17.128 4.91-24.895 3.347-7.858 7.898-14.52 13.675-20.08a3.382 3.19 0 0 0 .013-.013c5.727-5.57 12.558-10.002 20.582-13.327 8-3.287 16.822-4.946 26.583-4.946 10.136 0 19.07 1.504 26.878 4.448a3.382 3.19 0 0 0 .022.007c7.835 2.898 14.297 7.018 19.533 12.403 5.26 5.41 9.244 11.887 11.97 19.543a3.382 3.19 0 0 0 .008.02c2.788 7.655 4.205 16.227 4.205 25.76 0 5.073-.67 10.934-2.036 17.554a3.382 3.19 0 0 0-.006.023c-1.126 5.663-2.76 10.362-4.78 14.213h-17.697v-72.524a3.382 3.19 0 0 0-3.382-3.188H396.36a3.382 3.19 0 0 0-3.314 2.568c-2.498-1.01-4.94-1.897-7.268-2.526-3.945-1.126-8.367-1.66-13.26-1.66-11.763 0-22.193 4.543-30.54 13.18-8.455 8.75-12.613 20.514-12.613 34.698 0 14.134 3.296 25.552 10.263 33.894a3.382 3.19 0 0 0 .01.012c6.99 8.287 16.768 12.623 28.302 12.623 6.005 0 11.486-1.037 16.318-3.18 3.276-1.454 6.603-3.353 9.992-5.643l1.392 5.64a3.382 3.19 0 0 0 3.294 2.464H440.9a3.382 3.19 0 0 0 2.77-1.358c4.972-6.69 8.784-14.102 11.426-22.19 2.71-8.102 4.064-16.497 4.064-25.14 0-11.88-1.863-22.747-5.636-32.55-3.7-9.84-9.098-18.34-16.175-25.39-7.09-7.062-15.796-12.543-25.992-16.413-10.253-3.892-21.825-5.806-34.644-5.806zm-1.525 54.843c3.366 0 6.475.362 9.35 1.067a3.382 3.19 0 0 0 .064.014c2.37.537 5.16 1.498 8.185 2.715v42.765c-2.955 2-6.14 3.814-9.675 5.356-3.87 1.688-7.62 2.493-11.36 2.493-7.057 0-11.442-1.994-14.487-6.1-3.1-4.242-4.925-11-4.925-20.386 0-9.484 2.207-16.36 6.207-21.01 4.028-4.683 9.223-6.914 16.64-6.914z" fill="#fff" fill-rule="evenodd"/></g></svg>
