<svg xmlns="http://www.w3.org/2000/svg" height="1024" width="1024"><path d="M512 0C229.25 0 0 235.045 0 524.943c0 231.97 146.688 428.695 350.156 498.094 25.594 4.806 34.938-11.407 34.938-25.248 0-12.497-.47-53.892-.72-97.722-142.374 31.72-172.468-61.902-172.468-61.902-23.312-60.62-56.844-76.768-56.844-76.768-46.53-32.552 3.53-31.91 3.53-31.91 51.406 3.65 78.47 54.082 78.47 54.082 45.688 80.228 119.875 57.03 149 43.575 4.654-33.835 17.904-57.032 32.5-70.104-113.656-13.263-233.218-58.312-233.218-259.46 0-57.35 19.97-104.13 52.656-140.88-5.22-13.328-22.844-66.74 5.062-138.988 0 0 42.938-14.098 140.812 53.827 40.812-11.695 84.594-17.462 128.125-17.655 43.5.193 87.31 6.023 128.187 17.718 97.688-67.99 140.688-53.827 140.688-53.827 28 72.314 10.375 125.66 5.125 138.925 32.812 36.75 52.625 83.53 52.625 140.88 0 201.66-119.75 246.068-233.812 259.077 18.438 16.276 34.75 48.188 34.75 97.145 0 70.168-.688 126.75-.688 144.052 0 13.97 9.312 30.31 35.25 25.183C877.438 953.51 1024 756.785 1024 524.943 1024 235.045 794.75 0 512 0z" color="#00a7ab" fill="#00a7ab"/></svg>