<svg xmlns="http://www.w3.org/2000/svg" viewBox="0 0 256 256"><path d="M128 .453A127.546 127.546 0 0 0 .453 128 127.546 127.546 0 0 0 128 255.547 127.546 127.546 0 0 0 255.547 128 127.546 127.546 0 0 0 128 .453zm-18.064 37.96h17.103L116.95 91.98h37.53l10.336-53.566h16.49L170.968 91.98h32.485v15.604h-35.562l-8.122 41.77h34.826v15.85h-37.778l-10.336 52.83h-16.86l10.337-52.83h-37.284l-10.092 52.83H75.85l9.843-52.83H53.455v-15.85H88.77l8.37-41.77H63.052V91.98h36.793l10.09-53.566zm3.814 69.17l-8.12 41.772h37.284l8.12-41.77H113.75z" fill="#00a7ab" stroke="#00a7ab" stroke-width=".907" stroke-linecap="square"/></svg>