<?xml version="1.0" encoding="UTF-8"?>
<svg xmlns="http://www.w3.org/2000/svg" xmlns:xlink="http://www.w3.org/1999/xlink" version="1.2" >
<font id="Blogger Sans Bold Italic">
<font-face  font-family="Blogger Sans" units-per-em="1000" ascent="760" descent="-240" font-style="italic" font-weight="700" font-stretch="" cap-height="705" x-height="505" underline-position="-133" underline-thickness="20" />
<missing-glyph  horiz-adv-x="760" d="" />
<glyph glyph-name="&amp;#x20;" unicode="&#x20;" horiz-adv-x="300" d="" />
<glyph glyph-name="&amp;#xa0;" unicode="&#xa0;" horiz-adv-x="300" d="" />
<glyph glyph-name="numbersign" unicode="&#x23;" horiz-adv-x="581" d="M237 500 L300 664 Q310 687 330 699 Q350 711 376 711 Q397 709 412.5 693.5 Q428 678 428 657 Q428 645 423 637 L371 500 L417 500 L480 664 Q490 687 510 699 Q530 711 556 711 Q579 709 593.5 693.5 Q608 678 608 657 Q608 649 606.5 645 Q605 641 603 637 L551 500 Q574 499 592 483 Q610 467 610 443 Q610 414 586.5 393.5 Q563 373 531 373 L503 373 L488 335 L496 335 Q520 335 538 318.5 Q556 302 556 277 Q556 248 533 227.5 Q510 207 478 207 L440 207 L377 41 Q366 18 346.5 6 Q327 -6 301 -6 Q275 -4 260 13.5 Q245 31 249 56 L252 65 L306 207 L260 207 L197 41 Q186 18 166.5 6 Q147 -6 121 -6 Q97 -4 81 13.5 Q65 31 69 56 L72 65 L126 207 Q100 209 84.5 225 Q69 241 69 264 Q69 279 76 292 Q83 305 94 314.5 Q105 324 119.5 329.5 Q134 335 148 335 L174 335 L189 373 L183 373 Q156 373 139.5 389.5 Q123 406 123 430 Q123 445 130 458 Q137 471 148 480 Q159 489 173 494.5 Q187 500 201 500 L237 500 Z M308 335 L354 335 L369 373 L323 373 L308 335 Z " />
<glyph glyph-name="dollar" unicode="&#x24;" horiz-adv-x="526" d="M240 21 Q210 22 176 27.5 Q142 33 113.5 43.5 Q85 54 66 71 Q47 88 47 111 Q47 121 52 133.5 Q57 146 66.5 156 Q76 166 91 173 Q106 180 126 180 Q142 180 156 175.5 Q170 171 185 165.5 Q200 160 217.5 154.5 Q235 149 258 148 L279 297 Q247 308 215 320.5 Q183 333 157 352 Q131 371 115 399 Q99 427 99 469 Q99 517 115.5 555 Q132 593 163 620.5 Q194 648 237 664 Q280 680 333 683 L340 733 Q342 744 350.5 751.5 Q359 759 370 759 Q381 759 387.5 751.5 Q394 744 392 733 L385 683 Q410 681 438.5 676.5 Q467 672 491.5 662.5 Q516 653 532.5 638 Q549 623 549 600 Q549 572 526 551.5 Q503 531 471 531 Q457 531 447 534.5 Q437 538 426.5 542 Q416 546 402 550 Q388 554 367 556 L348 416 Q382 404 414.5 391.5 Q447 379 472 361 Q497 343 512.5 316 Q528 289 528 249 Q528 199 509.5 159.5 Q491 120 459.5 91 Q428 62 384.5 45 Q341 28 292 23 L285 -28 Q283 -39 274.5 -46.5 Q266 -54 255 -54 Q244 -54 237.5 -46.5 Q231 -39 233 -28 L240 21 Z M381 224 Q381 247 369.5 257 Q358 267 347 272 L328 280 L310 151 Q343 158 362 176.5 Q381 195 381 224 Z M298 435 L315 555 Q286 550 265.5 536.5 Q245 523 245 492 Q245 470 256.5 459.5 Q268 449 279 444 L298 435 Z " />
<glyph glyph-name="percent" unicode="&#x25;" horiz-adv-x="743" d="M555 -9 Q486 -9 451 33 Q416 75 416 138 Q416 179 429 216 Q442 253 466 280.5 Q490 308 525 324.5 Q560 341 604 341 Q673 341 708 298.5 Q743 256 743 193 Q743 152 730.5 115 Q718 78 694 50.5 Q670 23 635 7 Q600 -9 555 -9 Z M266 30 Q251 10 228 2.5 Q205 -5 181 0 Q158 8 149.5 30.5 Q141 53 151 77 L158 88 L579 684 Q594 704 616.5 711.5 Q639 719 662 712 Q684 705 694 686.5 Q704 668 695 645 Q691 634 686 627 L266 30 Z M571 103 Q599 103 611.5 125 Q624 147 624 182 Q624 204 615.5 216.5 Q607 229 589 229 Q562 229 549 207.5 Q536 186 536 151 Q536 103 571 103 Z M253 477 Q280 477 293 499 Q306 521 306 556 Q306 578 297 590.5 Q288 603 270 603 Q243 603 230 581.5 Q217 560 217 525 Q217 477 253 477 Z M237 365 Q168 365 133 407 Q98 449 98 513 Q98 554 110.5 591 Q123 628 147 655.5 Q171 683 206 699 Q241 715 286 715 Q356 715 390.5 673 Q425 631 425 568 Q425 526 412 489.5 Q399 453 375 425 Q351 397 316 381 Q281 365 237 365 Z " />
<glyph glyph-name="ampersand" unicode="&#x26;" horiz-adv-x="682" d="M653 61 Q653 48 647 35.5 Q641 23 630.5 13 Q620 3 605.5 -3 Q591 -9 574 -9 Q554 -9 543.5 -1.5 Q533 6 522 20 L486 67 Q442 35 391 13 Q340 -9 274 -9 Q225 -9 185.5 4.5 Q146 18 118.5 42 Q91 66 76.5 99 Q62 132 62 170 Q62 211 76.5 245 Q91 279 114.5 306.5 Q138 334 167.5 356.5 Q197 379 227 396 Q204 428 192 460.5 Q180 493 180 525 Q180 567 199.5 601.5 Q219 636 250.5 660.5 Q282 685 322 698.5 Q362 712 403 712 Q441 712 473 700.5 Q505 689 528.5 670 Q552 651 565 627 Q578 603 578 579 Q578 561 571 546.5 Q564 532 552.5 522 Q541 512 526.5 507 Q512 502 497 502 Q470 502 460 516 Q450 530 443 547 Q436 564 426.5 578 Q417 592 391 592 Q364 592 341 576 Q318 560 318 536 Q318 514 333 490.5 Q348 467 366 445 L510 268 L557 338 Q575 365 592 372.5 Q609 380 625 378 Q648 376 666 361 Q684 346 684 322 Q684 307 675.5 288 Q667 269 653 248 Q639 227 622 205.5 Q605 184 589 165 L642 95 Q646 90 649.5 81 Q653 72 653 61 Z M298 302 Q279 292 261.5 281 Q244 270 230.5 256.5 Q217 243 209 226.5 Q201 210 201 190 Q201 160 222 136 Q243 112 287 112 Q322 112 353.5 126.5 Q385 141 411 162 L298 302 Z " />
<glyph glyph-name="quotesingle" unicode="&#x27;" horiz-adv-x="263" d="M193 712 Q196 723 203.5 732 Q211 741 222 747.5 Q233 754 245 756.5 Q257 759 269 758 Q294 754 305.5 735 Q317 716 309 695 Q287 639 271 589.5 Q255 540 232 484 Q225 467 207.5 458 Q190 449 172 451 Q154 454 146 470 Q138 486 142 503 L193 712 Z " />
<glyph glyph-name="parenleft" unicode="&#x28;" horiz-adv-x="316" d="M219 145 Q219 79 231.5 10 Q244 -59 270 -116 Q274 -124 276.5 -131.5 Q279 -139 279 -149 Q279 -161 274 -174 Q269 -187 259.5 -197.5 Q250 -208 235 -214.5 Q220 -221 201 -221 Q183 -221 168.5 -213.5 Q154 -206 146 -191 Q110 -122 94.5 -35.5 Q79 51 79 132 Q79 263 123.5 397 Q168 531 265 653 Q290 684 328 684 Q360 684 374 666.5 Q388 649 388 626 Q388 610 382 599.5 Q376 589 368 579 Q290 475 254.5 366 Q219 257 219 145 Z " />
<glyph glyph-name="parenright" unicode="&#x29;" horiz-adv-x="315" d="M161 317 Q161 383 148.5 452.5 Q136 522 110 579 Q107 586 104 594 Q101 602 101 612 Q101 624 106 637 Q111 650 120.5 660.5 Q130 671 144.5 677.5 Q159 684 179 684 Q217 684 233 653 Q268 584 284.5 497.5 Q301 411 301 330 Q301 199 257 65 Q213 -69 115 -191 Q103 -206 86 -213.5 Q69 -221 51 -221 Q20 -221 6 -203.5 Q-8 -186 -8 -164 Q-8 -147 -2 -137 Q4 -127 12 -116 Q90 -12 125.5 96.5 Q161 205 161 317 Z " />
<glyph glyph-name="asterisk" unicode="&#x2a;" horiz-adv-x="536" d="M469 626 Q472 627 479 627 Q497 627 514 610.5 Q531 594 531 565 Q531 544 516.5 528.5 Q502 513 481 508 L398 499 L454 435 Q462 426 466.5 415 Q471 404 471 393 Q471 383 465.5 372.5 Q460 362 450.5 354 Q441 346 429 340.5 Q417 335 404 335 Q387 335 372.5 343 Q358 351 350 363 L308 433 L267 363 Q259 351 244.5 343 Q230 335 213 335 Q200 335 188 340.5 Q176 346 166.5 354 Q157 362 151.5 372.5 Q146 383 146 393 Q146 404 150.5 415 Q155 426 163 435 L219 499 L136 508 Q115 513 100.5 528.5 Q86 544 86 565 Q86 594 103 610.5 Q120 627 138 627 Q145 627 148 626 L256 586 L243 667 Q239 690 256 710 Q273 730 308 730 Q343 730 360 710 Q377 690 373 667 L360 586 L469 626 Z " />
<glyph glyph-name="plus" unicode="&#x2b;" horiz-adv-x="540" d="M241 290 L121 290 Q92 290 72 308.5 Q52 327 52 354 Q52 381 73.5 399 Q95 417 121 417 L241 417 L241 546 Q241 571 261 590.5 Q281 610 310 610 Q339 610 359 591.5 Q379 573 379 546 L379 417 L499 417 Q525 417 546.5 399 Q568 381 568 354 Q568 327 548 308.5 Q528 290 499 290 L379 290 L379 161 Q379 134 359 116 Q339 98 310 98 Q281 98 261 117.5 Q241 137 241 161 L241 290 Z " />
<glyph glyph-name="comma" unicode="&#x2c;" horiz-adv-x="270" d="M69 -95 Q72 -83 77.5 -73.5 Q83 -64 89.5 -54.5 Q96 -45 103 -34 Q110 -23 115 -6 Q90 -1 75 18 Q60 37 60 61 Q60 78 68 93.5 Q76 109 89 120.5 Q102 132 119 139 Q136 146 155 146 Q186 146 207 126.5 Q228 107 228 75 Q228 62 222.5 40.5 Q217 19 208 -5 Q199 -29 186.5 -53 Q174 -77 160 -96.5 Q146 -116 131.5 -128 Q117 -140 104 -140 Q98 -140 90.5 -138.5 Q83 -137 77 -132 Q71 -127 68 -118.5 Q65 -110 69 -95 Z " />
<glyph glyph-name="hyphen" unicode="&#x2d;" horiz-adv-x="439" d="M450 300 Q450 274 431 256.5 Q412 239 384 239 L135 239 Q106 239 87 256.5 Q68 274 68 300 Q68 325 87 343 Q106 361 135 361 L384 361 Q412 361 431 343 Q450 325 450 300 Z " />
<glyph glyph-name="period" unicode="&#x2e;" horiz-adv-x="270" d="M228 77 Q228 60 220 44.5 Q212 29 199 17 Q186 5 169 -2 Q152 -9 134 -9 Q102 -9 81 11.5 Q60 32 60 61 Q60 78 68 93.5 Q76 109 89 120.5 Q102 132 119.5 139 Q137 146 156 146 Q187 146 207.5 126 Q228 106 228 77 Z " />
<glyph glyph-name="slash" unicode="&#x2f;" horiz-adv-x="360" d="M113 -2 Q101 -25 77.5 -37 Q54 -49 31 -44 Q5 -39 -9.5 -17.5 Q-24 4 -12 28 L345 716 Q357 739 380 750.5 Q403 762 426 757 Q451 752 464 731 Q477 710 471 687 Q468 677 464 672 L113 -2 Z " />
<glyph glyph-name="zero" unicode="0" horiz-adv-x="540" d="M354 601 Q304 601 279 570.5 Q254 540 247 492 L207 210 Q201 167 221 140.5 Q241 114 286 114 Q331 114 358 140.5 Q385 167 391 210 L431 492 Q438 540 421 570.5 Q404 601 354 601 Z M371 723 Q431 723 472 704.5 Q513 686 537 653.5 Q561 621 568.5 577.5 Q576 534 569 485 L530 210 Q524 164 503 124 Q482 84 448.5 54.5 Q415 25 369.5 8 Q324 -9 268 -9 Q212 -9 171.5 8 Q131 25 106 54.5 Q81 84 71.5 124 Q62 164 68 210 L107 485 Q114 534 133.5 577.5 Q153 621 185.5 653.5 Q218 686 264.5 704.5 Q311 723 371 723 Z " />
<glyph glyph-name="one" unicode="1" horiz-adv-x="540" d="M337 542 L252 494 Q236 485 221.5 479 Q207 473 190 473 Q169 473 151 484 Q133 495 133 523 Q133 545 144 561 Q155 577 172 587 L387 703 Q408 714 427 714 Q459 714 477.5 695 Q496 676 492 647 L409 56 Q405 30 382 11 Q359 -8 330 -8 Q301 -8 283 11 Q265 30 269 56 L337 542 Z " />
<glyph glyph-name="two" unicode="2" horiz-adv-x="540" d="M514 70 Q514 56 507.5 43 Q501 30 490.5 20.5 Q480 11 465.5 5.5 Q451 0 435 0 L106 0 Q77 0 60.5 16.5 Q44 33 44 58 Q44 75 48 88.5 Q52 102 59 113 Q98 179 156 230 Q214 281 274 329 Q299 349 327 370.5 Q355 392 379 415.5 Q403 439 419 466 Q435 493 435 523 Q435 556 415 578.5 Q395 601 353 601 Q327 601 306.5 597 Q286 593 267 585 Q250 578 232 568 Q214 558 192 558 Q168 558 150 572.5 Q132 587 132 612 Q132 641 157.5 662 Q183 683 220 696.5 Q257 710 298 716.5 Q339 723 371 723 Q421 723 459 709 Q497 695 523 671 Q549 647 562.5 614.5 Q576 582 576 545 Q576 475 546 424.5 Q516 374 468 331 Q439 305 407.5 280 Q376 255 344.5 229.5 Q313 204 283.5 178.5 Q254 153 230 125 L453 125 Q480 125 497 109 Q514 93 514 70 Z " />
<glyph glyph-name="three" unicode="3" horiz-adv-x="540" d="M385 431 Q454 418 493.5 372.5 Q533 327 533 258 Q533 215 515.5 168 Q498 121 462.5 82 Q427 43 373.5 17.5 Q320 -8 248 -8 Q231 -8 198.5 -5 Q166 -2 134 7.5 Q102 17 78 34.5 Q54 52 54 81 Q54 108 76.5 129 Q99 150 129 150 Q145 150 157.5 144 Q170 138 184.5 131.5 Q199 125 216.5 119 Q234 113 260 113 Q297 113 322 125 Q347 137 362.5 156 Q378 175 385 197.5 Q392 220 392 240 Q392 282 365 299.5 Q338 317 290 317 Q280 317 274 315.5 Q268 314 263 311.5 Q258 309 252 307.5 Q246 306 237 306 Q212 306 196.5 322.5 Q181 339 181 364 Q181 384 192 396 L367 577 L205 577 Q179 577 162 593.5 Q145 610 145 633 Q145 648 151.5 661 Q158 674 168.5 684 Q179 694 193 700 Q207 706 223 706 L502 706 Q532 706 549.5 689 Q567 672 567 646 Q567 616 544 593 L385 431 Z " />
<glyph glyph-name="four" unicode="4" horiz-adv-x="540" d="M462 55 Q458 28 435.5 10 Q413 -8 384 -8 Q355 -8 337.5 10 Q320 28 324 55 L336 137 L115 137 Q86 137 69.5 155 Q53 173 53 197 Q53 205 58 217 Q63 229 69 240 L323 683 Q334 701 352 711.5 Q370 722 390 722 Q414 722 432.5 704.5 Q451 687 451 663 Q451 654 449 648 Q447 642 443 635 Q414 585 387.5 539 Q361 493 335.5 448.5 Q310 404 283.5 358 Q257 312 228 262 L352 262 L374 415 Q378 442 400.5 460 Q423 478 452 478 Q480 478 498 460 Q516 442 512 415 L490 262 L504 262 Q530 262 546.5 245.5 Q563 229 563 206 Q563 178 540 157.5 Q517 137 486 137 L474 137 L462 55 Z " />
<glyph glyph-name="five" unicode="5" horiz-adv-x="540" d="M534 267 Q534 220 517.5 171.5 Q501 123 468 83 Q435 43 384.5 17.5 Q334 -8 265 -8 Q248 -8 213 -5 Q178 -2 142.5 7.5 Q107 17 80.5 35 Q54 53 54 82 Q54 95 60 107.5 Q66 120 76.5 129.5 Q87 139 101 144.5 Q115 150 130 150 Q145 150 157.5 144 Q170 138 184 131.5 Q198 125 216 119 Q234 113 259 113 Q298 113 324 125.5 Q350 138 365 158 Q380 178 386.5 202.5 Q393 227 393 250 Q393 296 370 317.5 Q347 339 311 339 Q294 339 281 334.5 Q268 330 254 330 Q241 320 228 312 Q217 305 203.5 300 Q190 295 178 295 Q148 295 130 314 Q112 333 117 363 L166 639 Q169 655 177 667.5 Q185 680 197 688.5 Q209 697 223 701.5 Q237 706 251 706 L492 706 Q518 706 539 693.5 Q560 681 560 651 Q560 632 552 619 Q544 606 532 597.5 Q520 589 505 585.5 Q490 582 475 582 L288 582 L264 452 Q280 457 296.5 458.5 Q313 460 330 460 Q376 460 413.5 447 Q451 434 478 409 Q505 384 519.5 348 Q534 312 534 267 Z " />
<glyph glyph-name="six" unicode="6" horiz-adv-x="540" d="M377 593 Q341 594 317 581.5 Q293 569 277 546.5 Q261 524 251 493.5 Q241 463 234 428 Q265 445 291.5 451.5 Q318 458 346 458 Q387 458 423 446 Q459 434 486 409.5 Q513 385 528.5 348.5 Q544 312 544 264 Q544 210 526.5 161 Q509 112 474 74 Q439 36 387.5 13.5 Q336 -9 268 -9 Q212 -9 174 10 Q136 29 113 62.5 Q90 96 79.5 142.5 Q69 189 69 244 Q69 346 88 432.5 Q107 519 145.5 581.5 Q184 644 243 679 Q302 714 382 714 Q397 714 426 711.5 Q455 709 483.5 701 Q512 693 533 678 Q554 663 554 637 Q554 613 534.5 593.5 Q515 574 483 574 Q471 574 459.5 577 Q448 580 435.5 583.5 Q423 587 409 590 Q395 593 377 593 Z M211 287 Q206 254 206 223.5 Q206 193 214 169.5 Q222 146 240.5 132 Q259 118 291 118 Q322 118 344 129.5 Q366 141 379 160 Q392 179 398 202.5 Q404 226 404 249 Q404 292 381.5 312.5 Q359 333 318 333 Q289 333 261 324 Q233 315 213 299 L211 287 Z " />
<glyph glyph-name="seven" unicode="7" horiz-adv-x="540" d="M591 646 Q591 640 588.5 629.5 Q586 619 580 610 L250 32 Q242 18 226.5 5 Q211 -8 182 -8 Q156 -8 137 5.5 Q118 19 118 44 Q118 50 120 60 Q122 70 127 78 L416 578 L190 578 Q164 578 147 594.5 Q130 611 130 635 Q130 664 153.5 685 Q177 706 208 706 L528 706 Q555 706 573 689 Q591 672 591 646 Z " />
<glyph glyph-name="eight" unicode="8" horiz-adv-x="540" d="M552 231 Q552 180 530.5 136.5 Q509 93 470.5 60.5 Q432 28 380 9.5 Q328 -9 268 -9 Q218 -9 177 5 Q136 19 106.5 44 Q77 69 60.5 104 Q44 139 44 180 Q44 247 79.5 293.5 Q115 340 169 372 Q143 395 128 426 Q113 457 113 495 Q113 546 134 586 Q155 626 190.5 654.5 Q226 683 272.5 698 Q319 713 369 713 Q413 713 450 700.5 Q487 688 513.5 665.5 Q540 643 555 612 Q570 581 570 543 Q570 492 545.5 451.5 Q521 411 474 379 Q509 354 530.5 317 Q552 280 552 231 Z M431 527 Q431 556 409 574.5 Q387 593 353 593 Q333 593 314.5 587 Q296 581 282.5 570 Q269 559 261 544 Q253 529 253 511 Q253 480 276 460 Q299 440 332 433 Q374 442 402.5 467 Q431 492 431 527 Z M411 217 Q411 255 381.5 278.5 Q352 302 310 311 Q284 306 261.5 295.5 Q239 285 222 270.5 Q205 256 195 237.5 Q185 219 185 197 Q185 161 212.5 137 Q240 113 285 113 Q311 113 334 121 Q357 129 374 143.5 Q391 158 401 177 Q411 196 411 217 Z " />
<glyph glyph-name="nine" unicode="9" horiz-adv-x="540" d="M262 112 Q298 111 322 123.5 Q346 136 362 158.5 Q378 181 387.5 211.5 Q397 242 405 277 Q374 260 347.5 253.5 Q321 247 293 247 Q252 247 216 259 Q180 271 153 295.5 Q126 320 110.5 356.5 Q95 393 95 441 Q95 495 112.5 544 Q130 593 165 631 Q200 669 251.5 691.5 Q303 714 371 714 Q426 714 464.5 695 Q503 676 526 642.5 Q549 609 559.5 562.5 Q570 516 570 461 Q570 359 551 272.5 Q532 186 493.5 123.5 Q455 61 396 26 Q337 -9 257 -9 Q242 -9 213 -6.5 Q184 -4 155.5 4 Q127 12 106 27 Q85 42 85 68 Q85 92 104.5 111.5 Q124 131 156 131 Q168 131 179.5 128 Q191 125 203.5 121.5 Q216 118 230 115 Q244 112 262 112 Z M428 418 Q432 451 432.5 481.5 Q433 512 425 535.5 Q417 559 398.5 573 Q380 587 348 587 Q316 587 294.5 575 Q273 563 260 544.5 Q247 526 241 502.5 Q235 479 235 456 Q235 413 257.5 392.5 Q280 372 321 372 Q350 372 378 381 Q406 390 426 406 L428 418 Z " />
<glyph glyph-name="colon" unicode="&#x3a;" horiz-adv-x="270" d="M228 77 Q228 60 220 44.5 Q212 29 199 17 Q186 5 169 -2 Q152 -9 134 -9 Q102 -9 81 11.5 Q60 32 60 61 Q60 78 68 93.5 Q76 109 89 120.5 Q102 132 119.5 139 Q137 146 156 146 Q187 146 207.5 126 Q228 106 228 77 Z M270 377 Q270 360 262 344.5 Q254 329 241 317 Q228 305 211 298 Q194 291 176 291 Q144 291 123 311.5 Q102 332 102 361 Q102 378 110 393.5 Q118 409 131 420.5 Q144 432 161.5 439 Q179 446 198 446 Q229 446 249.5 426 Q270 406 270 377 Z " />
<glyph glyph-name="semicolon" unicode="&#x3b;" horiz-adv-x="270" d="M69 -95 Q72 -83 77.5 -73.5 Q83 -64 89.5 -54.5 Q96 -45 103 -34 Q110 -23 115 -6 Q90 -1 75 18 Q60 37 60 61 Q60 78 68 93.5 Q76 109 89 120.5 Q102 132 119 139 Q136 146 155 146 Q186 146 207 126.5 Q228 107 228 75 Q228 62 222.5 40.5 Q217 19 208 -5 Q199 -29 186.5 -53 Q174 -77 160 -96.5 Q146 -116 131.5 -128 Q117 -140 104 -140 Q98 -140 90.5 -138.5 Q83 -137 77 -132 Q71 -127 68 -118.5 Q65 -110 69 -95 Z M270 377 Q270 360 262 344.5 Q254 329 241 317 Q228 305 211 298 Q194 291 176 291 Q144 291 123 311.5 Q102 332 102 361 Q102 378 110 393.5 Q118 409 131 420.5 Q144 432 161.5 439 Q179 446 198 446 Q229 446 249.5 426 Q270 406 270 377 Z " />
<glyph glyph-name="less" unicode="&#x3c;" horiz-adv-x="665" d="M593 211 Q610 203 619.5 188 Q629 173 629 158 Q629 130 607.5 109 Q586 88 552 88 Q549 88 538.5 89.5 Q528 91 521 95 L150 286 Q132 295 119.5 307 Q107 319 107 342 Q107 377 124 391.5 Q141 406 167 418 L593 610 Q601 614 611 615.5 Q621 617 626 617 Q654 617 670 600 Q686 583 686 560 Q686 539 670.5 521 Q655 503 633 493 L308 352 L593 211 Z " />
<glyph glyph-name="equal" unicode="&#x3d;" horiz-adv-x="540" d="M459 325 Q485 325 506.5 306.5 Q528 288 528 261 Q528 234 508 215.5 Q488 197 459 197 L161 197 Q132 197 112 215.5 Q92 234 92 261 Q92 288 113.5 306.5 Q135 325 161 325 L459 325 Z M459 510 Q485 510 506.5 492 Q528 474 528 447 Q528 420 508 401.5 Q488 383 459 383 L161 383 Q132 383 112 401.5 Q92 420 92 447 Q92 474 113.5 492 Q135 510 161 510 L459 510 Z " />
<glyph glyph-name="greater" unicode="&#x3e;" horiz-adv-x="665" d="M457 352 L171 493 Q155 501 145 516 Q135 531 135 547 Q135 574 157 595.5 Q179 617 213 617 Q218 617 228 615.5 Q238 614 244 610 L616 418 Q633 409 645.5 397.5 Q658 386 658 362 Q658 345 653 333 Q648 321 639.5 312.5 Q631 304 620 298 Q609 292 596 286 L172 95 Q164 91 153 89.5 Q142 88 139 88 Q110 88 94.5 104.5 Q79 121 79 145 Q79 165 94 183 Q109 201 132 211 L457 352 Z " />
<glyph glyph-name="question" unicode="&#x3f;" horiz-adv-x="502" d="M362 264 Q357 259 354.5 249.5 Q352 240 350 233 Q345 204 321 186.5 Q297 169 271 169 Q250 169 230 183 Q210 197 210 229 Q210 250 219 270 Q228 290 242 309 Q256 328 273.5 345.5 Q291 363 308 378 Q321 390 338.5 405.5 Q356 421 371.5 440 Q387 459 397.5 481 Q408 503 408 528 Q408 559 387 581 Q366 603 320 603 Q303 603 281 599.5 Q259 596 239 587 Q222 579 207.5 569.5 Q193 560 173 560 Q150 560 132 574.5 Q114 589 114 615 Q114 644 138.5 664.5 Q163 685 198.5 698.5 Q234 712 274.5 718.5 Q315 725 347 725 Q393 725 430.5 712 Q468 699 493.5 675 Q519 651 533 617.5 Q547 584 547 543 Q547 508 538.5 478.5 Q530 449 515.5 423.5 Q501 398 481.5 376 Q462 354 440 334 Q411 307 394.5 292.5 Q378 278 362 264 Z M341 76 Q341 59 333 43.5 Q325 28 311.5 16 Q298 4 281 -3 Q264 -10 245 -10 Q213 -10 192.5 10.5 Q172 31 172 60 Q172 77 180 92.5 Q188 108 201 119.5 Q214 131 231 138 Q248 145 267 145 Q299 145 320 125 Q341 105 341 76 Z " />
<glyph glyph-name="at" unicode="&#x40;" horiz-adv-x="784" d="M545 15 Q531 10 511.5 5 Q492 0 470 -4 Q448 -8 424.5 -10 Q401 -12 380 -12 Q311 -12 258 8 Q205 28 168.5 65 Q132 102 113 153.5 Q94 205 94 267 Q94 347 119.5 415.5 Q145 484 194.5 534 Q244 584 315.5 612 Q387 640 479 640 Q555 640 611 618.5 Q667 597 704.5 560 Q742 523 760.5 473.5 Q779 424 779 367 Q779 323 769.5 284.5 Q760 246 739.5 217.5 Q719 189 685.5 172.5 Q652 156 604 156 Q567 156 544.5 166.5 Q522 177 507 195 Q479 168 457.5 157 Q436 146 407 146 Q342 146 304.5 187 Q267 228 267 295 Q267 334 279.5 369 Q292 404 316 430 Q340 456 376 471 Q412 486 459 486 Q505 486 532.5 471 Q560 456 573.5 433 Q587 410 591 380.5 Q595 351 595 323 Q595 311 595 299 Q595 287 597 277.5 Q599 268 604 262.5 Q609 257 618 257 Q634 257 643.5 267 Q653 277 657.5 291.5 Q662 306 663.5 322.5 Q665 339 665 353 Q665 393 653 428 Q641 463 616 488.5 Q591 514 554 529 Q517 544 467 544 Q405 544 357 524 Q309 504 276 468.5 Q243 433 225.5 385 Q208 337 208 281 Q208 239 220.5 205 Q233 171 258 146.5 Q283 122 321.5 108.5 Q360 95 413 95 Q430 95 444.5 97 Q459 99 472.5 102 Q486 105 500.5 109.5 Q515 114 532 119 Q557 127 580.5 122 Q604 117 611 95 Q615 79 610 66 Q605 53 594.5 43.5 Q584 34 570.5 27 Q557 20 545 15 Z M422 246 Q435 246 448 251.5 Q461 257 475 266 Q475 272 475.5 277 Q476 282 476.5 289.5 Q477 297 477.5 308.5 Q478 320 478 338 Q478 355 472 369.5 Q466 384 445 384 Q412 384 398.5 358.5 Q385 333 385 298 Q385 246 422 246 Z " />
<glyph glyph-name="A" unicode="A" horiz-adv-x="589" d="M158 38 Q147 16 125.5 3.5 Q104 -9 86 -9 Q59 -9 40.5 6.5 Q22 22 22 48 Q22 55 24.5 63.5 Q27 72 29 77 L304 646 Q318 675 338 694.5 Q358 714 394 714 Q430 714 445.5 695 Q461 676 467 646 L582 77 L582 66 Q582 32 558 11.5 Q534 -9 501 -9 Q481 -9 462.5 4 Q444 17 439 38 L418 139 L206 139 L158 38 Z M371 424 Q367 446 367 472.5 Q367 499 367 522 Q361 499 353 472.5 Q345 446 335 424 L258 253 L398 253 L371 424 Z " />
<glyph glyph-name="B" unicode="B" horiz-adv-x="582" d="M379 429 Q393 429 409 434.5 Q425 440 438 451 Q451 462 459.5 479 Q468 496 468 519 Q468 543 454.5 561 Q441 579 407 579 L285 579 L264 429 L379 429 Z M246 301 L221 127 L333 127 Q389 127 417 153.5 Q445 180 445 225 Q445 261 422.5 281 Q400 301 364 301 L246 301 Z M141 0 Q108 0 88.5 21.5 Q69 43 73 72 L152 633 Q157 664 182.5 684.5 Q208 705 240 705 L409 705 Q460 705 498 690.5 Q536 676 560.5 652 Q585 628 597 597 Q609 566 609 532 Q609 500 599 475 Q589 450 572 430 Q555 410 532 394.5 Q509 379 482 367 Q502 358 520.5 346 Q539 334 553.5 317 Q568 300 577 278.5 Q586 257 586 229 Q586 183 566 141.5 Q546 100 509 68.5 Q472 37 420.5 18.5 Q369 0 306 0 L141 0 Z " />
<glyph glyph-name="C" unicode="C" horiz-adv-x="522" d="M210 254 Q205 222 208 196 Q211 170 222.5 152 Q234 134 255.5 124 Q277 114 311 114 Q335 114 355.5 120.5 Q376 127 396 138 L408 144 Q419 149 427.5 154 Q436 159 453 159 Q479 159 495 143 Q511 127 511 105 Q511 82 492 61.5 Q473 41 441.5 25.5 Q410 10 370 1 Q330 -8 288 -8 Q222 -8 177 10.5 Q132 29 105.5 63.5 Q79 98 70.5 146.5 Q62 195 70 254 L98 452 Q106 511 128 559.5 Q150 608 186.5 642.5 Q223 677 273.5 695.5 Q324 714 390 714 Q428 714 463 706 Q498 698 524.5 684 Q551 670 566.5 652 Q582 634 582 613 Q582 587 560 567 Q538 547 507 547 Q490 547 482.5 551.5 Q475 556 466 562 L457 568 Q440 579 421 585.5 Q402 592 378 592 Q310 592 278.5 554 Q247 516 238 452 L210 254 Z " />
<glyph glyph-name="D" unicode="D" horiz-adv-x="594" d="M596 271 Q589 218 566.5 169 Q544 120 503 82.5 Q462 45 400.5 22.5 Q339 0 254 0 L141 0 Q125 0 112 6 Q99 12 89.5 21.5 Q80 31 75.5 44 Q71 57 73 72 L152 634 Q154 649 162 662 Q170 675 182.5 684.5 Q195 694 210 700 Q225 706 241 706 L354 706 Q439 706 494 684.5 Q549 663 579.5 626.5 Q610 590 619 542.5 Q628 495 621 443 L596 271 Z M481 443 Q485 471 481 496 Q477 521 462 539.5 Q447 558 420 568.5 Q393 579 353 579 L285 579 L221 127 L289 127 Q330 127 360 138.5 Q390 150 410 169.5 Q430 189 441 215 Q452 241 456 271 L481 443 Z " />
<glyph glyph-name="E" unicode="E" horiz-adv-x="514" d="M500 71 Q500 42 476 21 Q452 0 421 0 L156 0 Q138 0 121.5 3.5 Q105 7 93 15 Q81 23 75.5 37 Q70 51 73 71 L152 634 Q154 647 161.5 660 Q169 673 181 683 Q193 693 207.5 699 Q222 705 239 705 L510 705 Q536 705 553.5 687.5 Q571 670 571 647 Q571 617 547 597.5 Q523 578 492 578 L284 578 L261 417 L450 417 Q475 417 493 401 Q511 385 511 360 Q511 331 487.5 310.5 Q464 290 432 290 L243 290 L220 127 L438 127 Q464 127 482 110.5 Q500 94 500 71 Z " />
<glyph glyph-name="F" unicode="F" horiz-adv-x="514" d="M211 55 Q207 29 184 10 Q161 -9 132 -9 Q103 -9 85 10 Q67 29 71 55 L152 635 Q154 648 161.5 661 Q169 674 181 684 Q193 694 207.5 700 Q222 706 239 706 L510 706 Q536 706 554 688.5 Q572 671 572 648 Q572 618 547.5 598.5 Q523 579 492 579 L284 579 L262 417 L451 417 Q475 417 493 401 Q511 385 511 360 Q511 331 488 310.5 Q465 290 433 290 L244 290 L211 55 Z " />
<glyph glyph-name="G" unicode="G" horiz-adv-x="560" d="M210 254 Q205 222 208 196 Q211 170 222.5 152 Q234 134 255.5 124 Q277 114 311 114 Q337 114 357.5 120 Q378 126 396 135 L418 291 L366 291 Q343 291 327.5 307.5 Q312 324 312 347 Q312 361 318 374 Q324 387 334.5 396.5 Q345 406 357.5 411.5 Q370 417 384 417 L493 417 Q528 417 549 400 Q570 383 565 347 L534 126 Q529 91 504.5 65.5 Q480 40 444.5 23.5 Q409 7 368 -0.5 Q327 -8 288 -8 Q222 -8 177 10.5 Q132 29 105.5 63.5 Q79 98 70.5 146.5 Q62 195 70 254 L98 452 Q106 511 128 559.5 Q150 608 186.5 642.5 Q223 677 273.5 695.5 Q324 714 390 714 Q428 714 463 706 Q498 698 524.5 684 Q551 670 566.5 652 Q582 634 582 613 Q582 587 560 567 Q538 547 507 547 Q490 547 483 552 Q476 557 467 562 L457 568 Q440 579 421 585.5 Q402 592 378 592 Q310 592 278.5 554 Q247 516 238 452 L210 254 Z " />
<glyph glyph-name="H" unicode="H" horiz-adv-x="620" d="M564 56 Q560 30 537 10.5 Q514 -9 485 -9 Q471 -9 459 -4 Q447 1 438.5 10 Q430 19 426 31 Q422 43 424 56 L457 289 L244 289 L211 56 Q207 30 184 10.5 Q161 -9 132 -9 Q103 -9 85 10.5 Q67 30 71 56 L154 650 Q158 675 181 694.5 Q204 714 233 714 Q262 714 280 695 Q298 676 294 650 L262 417 L475 417 L507 650 Q511 676 534.5 695 Q558 714 586 714 Q614 714 632.5 695 Q651 676 647 650 L564 56 L564 56 Z " />
<glyph glyph-name="I" unicode="I" horiz-adv-x="267" d="M154 650 Q158 675 181 694.5 Q204 714 233 714 Q262 714 280 695 Q298 676 294 650 L211 55 Q207 29 184 10 Q161 -9 132 -9 Q103 -9 85 10 Q67 29 71 55 L154 650 Z " />
<glyph glyph-name="J" unicode="J" horiz-adv-x="425" d="M395 235 Q387 178 369.5 132.5 Q352 87 321 55.5 Q290 24 243 7.5 Q196 -9 129 -9 Q115 -9 97 -7.5 Q79 -6 62.5 0 Q46 6 34.5 18.5 Q23 31 23 52 Q23 69 30.5 82 Q38 95 49 104 Q60 113 73 118 Q86 123 98 123 Q115 123 127 120 Q139 117 158 117 Q183 117 200 125 Q217 133 228 148.5 Q239 164 245 186 Q251 208 255 235 L314 650 Q318 676 340.5 695 Q363 714 393 714 Q421 714 439.5 695 Q458 676 454 650 L395 235 Z " />
<glyph glyph-name="K" unicode="K" horiz-adv-x="556" d="M365 382 L543 92 Q550 79 550 66 Q550 54 544.5 41 Q539 28 528.5 16.5 Q518 5 503.5 -2 Q489 -9 472 -9 Q435 -9 418 20 L260 280 L240 260 L211 56 Q207 30 184 10.5 Q161 -9 132 -9 Q103 -9 85 10.5 Q67 30 71 56 L154 650 Q158 675 181 694.5 Q204 714 233 714 Q262 714 280 695 Q298 676 294 650 L268 460 L497 685 Q508 696 524.5 705 Q541 714 558 714 Q579 714 599 697 Q619 680 619 655 Q619 640 614 630.5 Q609 621 595 607 L365 382 Z " />
<glyph glyph-name="L" unicode="L" horiz-adv-x="503" d="M497 70 Q497 41 474 20.5 Q451 0 420 0 L138 0 Q108 0 88 20 Q68 40 72 69 L154 650 Q158 675 181 694.5 Q204 714 233 714 Q262 714 280 695 Q298 676 294 650 L220 126 L437 126 Q463 126 480 110 Q497 94 497 70 Z " />
<glyph glyph-name="M" unicode="M" horiz-adv-x="759" d="M706 54 Q702 28 679 9.5 Q656 -9 628 -9 Q599 -9 580.5 9.5 Q562 28 566 54 L614 398 L469 174 Q456 154 437 145 Q418 136 397 136 Q377 136 361 145 Q345 154 338 174 L255 398 L207 54 Q205 41 197.5 29.5 Q190 18 179 9.5 Q168 1 154.5 -4 Q141 -9 126 -9 Q97 -9 80 9.5 Q63 28 67 54 L150 648 Q154 677 177.5 695.5 Q201 714 232 714 Q282 714 296 675 L425 322 L652 676 Q666 698 686 706 Q706 714 727 714 Q758 714 775.5 694.5 Q793 675 789 648 L706 54 Z " />
<glyph glyph-name="N" unicode="N" horiz-adv-x="640" d="M501 -9 Q481 -9 464 0.5 Q447 10 439 26 L263 430 L211 56 Q207 30 183.5 10.5 Q160 -9 131 -9 Q102 -9 84.5 10.5 Q67 30 71 56 L154 646 Q158 675 181 694.5 Q204 714 236 714 Q256 714 273.5 704 Q291 694 299 677 Q324 619 345 571 Q366 523 386 476.5 Q406 430 427 380.5 Q448 331 474 271 L527 649 Q531 675 554.5 694.5 Q578 714 607 714 Q636 714 653.5 694.5 Q671 675 667 649 L584 59 Q580 31 557 11 Q534 -9 501 -9 Z " />
<glyph glyph-name="O" unicode="O" horiz-adv-x="610" d="M304 -9 Q239 -9 193 11.5 Q147 32 119.5 67.5 Q92 103 82.5 151 Q73 199 81 254 L108 452 Q115 505 136.5 552.5 Q158 600 194 636 Q230 672 282.5 693 Q335 714 405 714 Q475 714 521.5 693 Q568 672 594 636 Q620 600 627.5 552.5 Q635 505 628 452 L601 254 Q593 199 570 151 Q547 103 509.5 67.5 Q472 32 420.5 11.5 Q369 -9 304 -9 Z M387 587 Q321 587 289 550 Q257 513 248 452 L221 254 Q212 194 235.5 156 Q259 118 321 118 Q383 118 417.5 156 Q452 194 461 254 L488 452 Q497 513 475 550 Q453 587 387 587 Z " />
<glyph glyph-name="P" unicode="P" horiz-adv-x="570" d="M237 240 L211 57 Q207 31 184 11 Q161 -9 132 -9 Q104 -9 85.5 10.5 Q67 30 71 57 L152 633 Q154 648 162 661 Q170 674 182 683.5 Q194 693 209 699 Q224 705 240 705 L387 705 Q449 705 492 689 Q535 673 561.5 645.5 Q588 618 600 582 Q612 546 612 506 Q612 443 591 393.5 Q570 344 531.5 310 Q493 276 439.5 258 Q386 240 322 240 L237 240 Z M255 367 L340 367 Q471 367 471 491 Q471 507 466.5 523 Q462 539 450.5 551 Q439 563 419 570.5 Q399 578 369 578 L284 578 L255 367 Z " />
<glyph glyph-name="Q" unicode="Q" horiz-adv-x="610" d="M389 -173 Q320 -173 283 -127 Q246 -81 244 -4 Q195 5 161 28.5 Q127 52 107 86 Q87 120 80.5 163 Q74 206 81 254 L109 452 Q116 505 137.5 552.5 Q159 600 195 636 Q231 672 283.5 693 Q336 714 406 714 Q476 714 522.5 693 Q569 672 595 636 Q621 600 628.5 552.5 Q636 505 629 452 L601 254 Q595 208 577.5 167 Q560 126 532.5 92.5 Q505 59 467 35 Q429 11 382 0 Q384 -27 393 -39 Q402 -51 419 -51 L448 -51 Q476 -51 492.5 -65 Q509 -79 509 -104 Q509 -129 500 -143 Q491 -157 475 -163.5 Q459 -170 437 -171.5 Q415 -173 389 -173 Z M388 587 Q322 587 289.5 550 Q257 513 249 452 L221 254 Q213 194 236.5 156 Q260 118 322 118 Q384 118 418.5 156 Q453 194 461 254 L489 452 Q497 513 475.5 550 Q454 587 388 587 Z " />
<glyph glyph-name="R" unicode="R" horiz-adv-x="615" d="M633 522 Q633 436 587.5 380.5 Q542 325 464 301 L572 95 Q582 76 577.5 57.5 Q573 39 561 24.5 Q549 10 531.5 1 Q514 -8 497 -8 Q457 -8 442 23 L311 286 L243 286 L211 57 Q207 31 183.5 11 Q160 -9 131 -9 Q103 -9 85 10.5 Q67 30 71 57 L152 633 Q156 662 181.5 683.5 Q207 705 238 705 L412 705 Q474 705 516.5 689.5 Q559 674 585 648.5 Q611 623 622 590 Q633 557 633 522 Z M491 506 Q491 519 486.5 532 Q482 545 470.5 555.5 Q459 566 439.5 572 Q420 578 390 578 L284 578 L261 412 L373 412 Q430 412 460.5 436.5 Q491 461 491 506 Z " />
<glyph glyph-name="S" unicode="S" horiz-adv-x="526" d="M380 217 Q380 243 369 255 Q358 267 347 272 Q332 279 315 286 Q298 293 278 299 Q246 309 214.5 321.5 Q183 334 157.5 354 Q132 374 116.5 403.5 Q101 433 101 478 Q101 532 120 576 Q139 620 173.5 650.5 Q208 681 257 697.5 Q306 714 365 714 Q386 714 418 710.5 Q450 707 480.5 698 Q511 689 532.5 672.5 Q554 656 554 630 Q554 604 532 582.5 Q510 561 474 561 Q460 561 449.5 564 Q439 567 427 572 Q413 577 396 582 Q379 587 353 587 Q333 587 313.5 583 Q294 579 279 569 Q264 559 255 542 Q246 525 246 500 Q246 473 257.5 461 Q269 449 280 444 Q298 434 315 428 Q332 422 348 417 Q380 406 412 393.5 Q444 381 469.5 361 Q495 341 510.5 311.5 Q526 282 526 238 Q526 180 504 134 Q482 88 444 56.5 Q406 25 354.5 8 Q303 -9 244 -9 Q217 -9 182.5 -4 Q148 1 117 11.5 Q86 22 64.5 39.5 Q43 57 43 81 Q43 94 49 106 Q55 118 65.5 128 Q76 138 89.5 144 Q103 150 118 150 Q129 150 141 146.5 Q153 143 167 138 Q184 132 207.5 125 Q231 118 263 118 Q321 118 350.5 144 Q380 170 380 217 Z " />
<glyph glyph-name="T" unicode="T" horiz-adv-x="523" d="M273 578 L167 578 Q139 578 122 594.5 Q105 611 105 634 Q105 646 111.5 658.5 Q118 671 129 681.5 Q140 692 154.5 698.5 Q169 705 185 705 L537 705 Q562 705 580.5 688.5 Q599 672 599 647 Q599 633 592 620.5 Q585 608 574 598.5 Q563 589 548.5 583.5 Q534 578 519 578 L413 578 L339 55 Q335 29 312 10 Q289 -9 260 -9 Q231 -9 213 10 Q195 29 199 55 L273 578 Z " />
<glyph glyph-name="U" unicode="U" horiz-adv-x="612" d="M591 240 Q583 186 560 140.5 Q537 95 500 61.5 Q463 28 413.5 9.5 Q364 -9 305 -9 Q245 -9 200.5 10 Q156 29 129 62 Q102 95 91.5 140.5 Q81 186 89 240 L146 648 Q151 677 174 695.5 Q197 714 227 714 Q255 714 272.5 694.5 Q290 675 286 648 L229 240 Q221 186 243.5 152 Q266 118 323 118 Q380 118 411 152 Q442 186 450 240 L507 648 Q511 674 534 694 Q557 714 586 714 Q617 714 634.5 694 Q652 674 648 648 L591 240 L591 240 Z " />
<glyph glyph-name="V" unicode="V" horiz-adv-x="583" d="M525 667 Q536 688 558 701 Q580 714 600 714 Q628 714 645.5 698.5 Q663 683 663 658 Q663 650 661 641.5 Q659 633 657 628 L382 59 Q368 29 347 10 Q326 -9 290 -9 Q254 -9 239.5 10.5 Q225 30 219 59 L104 628 Q104 630 103.5 633.5 Q103 637 103 639 Q103 674 128 694 Q153 714 185 714 Q203 714 221 701.5 Q239 689 244 667 L313 281 Q317 259 317.5 232.5 Q318 206 317 183 Q324 206 331.5 232.5 Q339 259 349 281 L525 667 Z " />
<glyph glyph-name="W" unicode="W" horiz-adv-x="830" d="M610 405 Q615 363 614 321.5 Q613 280 615 238 Q629 280 640 321.5 Q651 363 668 405 L768 660 Q778 684 797 697.5 Q816 711 839 711 Q863 711 886 697.5 Q909 684 909 656 Q909 645 905 637 L673 54 Q662 29 640 10 Q618 -9 582 -9 Q546 -9 529 10.5 Q512 30 509 55 L484 300 Q480 339 480.5 379.5 Q481 420 479 460 Q467 420 456 379.5 Q445 339 430 300 L334 53 Q325 30 304.5 10.5 Q284 -9 244 -9 Q213 -9 193.5 11 Q174 31 171 54 L105 632 Q104 637 104 645 Q104 648 103 651 Q105 665 113 676 Q121 687 133 695 Q145 703 159 707 Q173 711 186 711 Q208 711 225 699.5 Q242 688 245 663 L274 405 Q279 364 278.5 322.5 Q278 281 280 239 Q294 279 305 322 Q316 365 332 405 L424 640 Q437 675 455.5 694.5 Q474 714 515 714 Q553 714 567 694 Q581 674 584 640 L610 405 Z " />
<glyph glyph-name="X" unicode="X" horiz-adv-x="554" d="M148 31 L148 32 Q138 18 121 4.5 Q104 -9 78 -9 Q53 -9 36 9 Q19 27 19 50 Q19 61 24 72 Q29 83 34 90 L246 366 L122 617 Q120 622 119 629 Q118 636 118 643 Q118 657 124.5 670 Q131 683 142 692.5 Q153 702 166.5 708 Q180 714 195 714 Q218 714 234 700 Q250 686 258 668 L344 482 L484 668 Q495 682 514.5 698 Q534 714 560 714 Q584 714 601 697 Q618 680 618 657 Q618 646 613.5 636.5 Q609 627 603 617 L410 366 L544 90 Q546 85 548 77 Q550 69 550 61 Q550 48 543 35.5 Q536 23 525 13 Q514 3 500 -3 Q486 -9 473 -9 Q447 -9 434 4 Q421 17 414 31 L312 251 L148 31 Z " />
<glyph glyph-name="Y" unicode="Y" horiz-adv-x="530" d="M264 -9 Q234 -9 216 10.5 Q198 30 202 57 L233 276 L106 620 Q104 624 103.5 630 Q103 636 103 642 Q103 657 110 670 Q117 683 128.5 692.5 Q140 702 154.5 708 Q169 714 184 714 Q200 714 214.5 707 Q229 700 237 684 L327 436 L486 684 Q497 700 514 707 Q531 714 548 714 Q573 714 591.5 696.5 Q610 679 610 655 Q610 645 606 636.5 Q602 628 599 620 L375 276 L344 57 Q340 31 317 11 Q294 -9 264 -9 Z " />
<glyph glyph-name="Z" unicode="Z" horiz-adv-x="524" d="M514 72 Q514 57 507.5 44 Q501 31 489.5 21.5 Q478 12 463.5 6 Q449 0 434 0 L91 0 Q63 0 45.5 17.5 Q28 35 28 61 Q28 74 35.5 89 Q43 104 49 112 Q94 173 137 230 Q180 287 222.5 343.5 Q265 400 308 457 Q351 514 397 576 L171 576 Q144 576 127 592.5 Q110 609 110 633 Q110 662 133.5 683.5 Q157 705 189 705 L528 705 Q557 705 574.5 688 Q592 671 592 645 Q592 629 586 617 Q580 605 572 595 L221 129 L452 129 Q478 129 496 112.5 Q514 96 514 72 Z " />
<glyph glyph-name="bracketleft" unicode="&#x5b;" horiz-adv-x="334" d="M311 -40 Q311 -61 302.5 -74.5 Q294 -88 281 -96.5 Q268 -105 252 -108.5 Q236 -112 221 -112 L119 -112 Q92 -112 74 -93 Q56 -74 60 -49 L169 731 Q174 766 200.5 779.5 Q227 793 260 793 L362 793 Q385 793 403 777 Q421 761 421 738 Q421 718 413 705 Q405 692 392 684 Q379 676 363 672.5 Q347 669 332 669 L300 669 L207 13 L239 13 Q268 13 289.5 1.5 Q311 -10 311 -40 Z " />
<glyph glyph-name="backslash" unicode="&#x5c;" horiz-adv-x="360" d="M76 672 Q73 678 73 687 Q74 710 93 731 Q112 752 138 757 Q163 762 182.5 750.5 Q202 739 207 716 L371 28 Q374 16 369.5 4 Q365 -8 355.5 -18 Q346 -28 333.5 -35 Q321 -42 307 -44 Q282 -49 262.5 -37 Q243 -25 237 -2 L76 672 Z " />
<glyph glyph-name="bracketright" unicode="&#x5d;" horiz-adv-x="334" d="M259 -49 Q255 -75 233 -93.5 Q211 -112 182 -112 L80 -112 Q66 -112 53 -109.5 Q40 -107 29.5 -100.5 Q19 -94 12.5 -83.5 Q6 -73 6 -57 Q6 -36 14 -22.5 Q22 -9 35 -1 Q48 7 64 10 Q80 13 96 13 L128 13 L221 669 L189 669 Q176 669 163 671.5 Q150 674 139.5 680 Q129 686 122.5 696.5 Q116 707 116 723 Q116 743 124.5 756.5 Q133 770 146 778 Q159 786 175 789.5 Q191 793 207 793 L309 793 Q322 793 333.5 787.5 Q345 782 353 773.5 Q361 765 365.5 754 Q370 743 368 731 L259 -49 L259 -49 Z " />
<glyph glyph-name="asciicircum" unicode="&#x5e;" horiz-adv-x="366" d="M171 491 Q162 481 147 474 Q132 467 118 467 Q91 467 76.5 482 Q62 497 66 522 Q68 535 77 548 Q86 561 99 572 L226 697 Q237 708 251.5 715 Q266 722 284 722 Q302 722 314 715 Q326 708 334 697 Q357 666 380 634 Q403 602 427 572 Q436 560 441.5 547.5 Q447 535 446 522 Q442 497 423.5 482 Q405 467 378 467 Q364 467 350 473.5 Q336 480 331 491 Q320 506 312.5 516.5 Q305 527 298 537 Q291 547 283 558 Q275 569 264 583 L171 491 Z " />
<glyph glyph-name="underscore" unicode="&#x5f;" horiz-adv-x="640" d="M615 -93 Q641 -93 662.5 -111.5 Q684 -130 684 -157 Q684 -184 664 -202 Q644 -220 615 -220 L25 -220 Q-4 -220 -24 -202 Q-44 -184 -44 -157 Q-44 -130 -22.5 -111.5 Q-1 -93 25 -93 L615 -93 Z " />
<glyph glyph-name="grave" unicode="&#x60;" horiz-adv-x="237" d="M319 631 Q324 625 324 615 Q324 589 306 573 Q288 557 265 557 Q248 557 240.5 562.5 Q233 568 223 578 L153 660 Q149 665 148 671.5 Q147 678 147 683 Q147 706 166 721.5 Q185 737 203 737 Q220 737 227 732 Q234 727 242 718 L248 710 L319 631 Z " />
<glyph glyph-name="a" unicode="a" horiz-adv-x="533" d="M369 329 Q374 364 358.5 379.5 Q343 395 305 395 Q268 395 250 372 Q232 349 225 302 L209 189 Q198 109 263 109 Q293 109 343 130 Q343 135 343 139.5 Q343 144 344 149 L369 329 Z M227 -7 Q139 -7 99 47 Q59 101 71 189 L87 302 Q93 347 111.5 385.5 Q130 424 160.5 452.5 Q191 481 233 497 Q275 513 329 513 Q438 513 478 460.5 Q518 408 504 306 L478 120 Q476 109 478 103 Q480 97 484 94 Q488 91 493.5 90 Q499 89 505 86 Q523 78 523 56 Q523 29 505.5 12.5 Q488 -4 443 -4 Q415 -4 396.5 5 Q378 14 364 38 Q333 15 301 4 Q269 -7 227 -7 Z " />
<glyph glyph-name="b" unicode="b" horiz-adv-x="535" d="M224 161 Q220 133 238.5 117 Q257 101 292 101 Q330 101 350 119 Q370 137 375 169 L401 352 Q405 379 391 394 Q377 409 340 409 Q290 409 255 381 L224 161 Z M156 661 Q160 685 180.5 703.5 Q201 722 234 722 Q267 722 282.5 703.5 Q298 685 294 661 L270 485 Q296 499 322 506 Q348 513 383 513 Q431 513 463 500.5 Q495 488 513 465.5 Q531 443 537 412.5 Q543 382 538 347 L515 179 Q509 140 491 106 Q473 72 443 47 Q413 22 371 7.5 Q329 -7 276 -7 Q225 -7 187.5 6 Q150 19 125.5 41.5 Q101 64 91 95 Q81 126 86 161 L156 661 Z " />
<glyph glyph-name="c" unicode="c" horiz-adv-x="443" d="M90 319 Q96 359 113 394 Q130 429 159 454.5 Q188 480 229 495 Q270 510 324 510 Q345 510 372.5 507 Q400 504 424.5 495.5 Q449 487 466 471.5 Q483 456 483 431 Q483 422 480 411.5 Q477 401 469.5 392 Q462 383 448.5 377.5 Q435 372 413 372 Q405 372 398 373 Q391 374 381 378 Q366 384 352.5 389.5 Q339 395 316 395 Q274 395 253.5 374.5 Q233 354 228 319 L209 184 Q204 149 218.5 128.5 Q233 108 275 108 Q298 108 314 113.5 Q330 119 346 125 Q354 128 360.5 129.5 Q367 131 378 131 Q412 131 423.5 117 Q435 103 435 87 Q435 58 415 39.5 Q395 21 366 10.5 Q337 0 305.5 -3.5 Q274 -7 250 -7 Q197 -7 160.5 8 Q124 23 102 48.5 Q80 74 72.5 109 Q65 144 71 184 L90 319 Z " />
<glyph glyph-name="d" unicode="d" horiz-adv-x="538" d="M306 509 Q329 509 347.5 505 Q366 501 392 490 L416 661 Q420 687 440 704.5 Q460 722 493 722 Q526 722 542 704 Q558 686 554 661 L479 129 Q477 118 481 111 Q485 104 493 94 Q503 83 503 67 Q503 50 496 37.5 Q489 25 478.5 16.5 Q468 8 454.5 3.5 Q441 -1 429 -1 Q410 -1 396.5 9.5 Q383 20 374 37 Q334 17 299.5 5 Q265 -7 227 -7 Q139 -7 99 47 Q59 101 71 189 L87 302 Q93 347 108 384.5 Q123 422 149 450 Q175 478 213.5 493.5 Q252 509 306 509 Z M377 382 Q354 389 336 392 Q318 395 305 395 Q268 395 250 372 Q232 349 225 302 L209 189 Q198 109 263 109 Q293 109 343 130 Q343 135 343 139.5 Q343 144 344 149 L377 382 Z " />
<glyph glyph-name="e" unicode="e" horiz-adv-x="485" d="M287 191 Q267 191 249.5 192.5 Q232 194 211 197 L206 164 Q202 138 219.5 123 Q237 108 278 108 Q302 108 324 113.5 Q346 119 372 130 Q375 132 382 134 Q389 136 402 136 Q434 136 445.5 120 Q457 104 457 88 Q457 59 434.5 41 Q412 23 379.5 12 Q347 1 312 -3 Q277 -7 252 -7 Q202 -7 165.5 6.5 Q129 20 105.5 43.5 Q82 67 73 99 Q64 131 69 168 L92 335 Q97 373 115.5 405.5 Q134 438 164 462 Q194 486 236 499.5 Q278 513 330 513 Q419 513 462 473 Q505 433 505 367 Q505 286 453.5 238.5 Q402 191 287 191 Z M367 361 Q367 385 353.5 395.5 Q340 406 314 406 Q278 406 257 388.5 Q236 371 231 341 L225 298 Q249 296 269 295 Q289 294 297 294 Q329 294 348 308.5 Q367 323 367 361 Z " />
<glyph glyph-name="f" unicode="f" horiz-adv-x="369" d="M138 527 Q145 576 166.5 612.5 Q188 649 219.5 673 Q251 697 289.5 709 Q328 721 370 721 Q379 721 398 720 Q417 719 436 713.5 Q455 708 469 696 Q483 684 483 662 Q483 630 459 612.5 Q435 595 406 595 Q392 595 377 598 Q362 601 348 601 Q316 601 298.5 581 Q281 561 277 534 L270 485 L344 485 Q370 485 386 470 Q402 455 402 432 Q402 403 380 384.5 Q358 366 328 366 L254 366 L181 -152 Q177 -178 156.5 -195 Q136 -212 103 -212 Q70 -212 54.5 -195 Q39 -178 43 -152 L138 527 Z " />
<glyph glyph-name="g" unicode="g" horiz-adv-x="549" d="M391 342 Q394 367 376 381 Q358 395 323 395 Q285 395 264 376 Q243 357 238 324 L218 183 Q213 148 226 128 Q239 108 276 108 Q299 108 320.5 114 Q342 120 361 134 L391 342 Z M476 -33 Q470 -73 453 -108 Q436 -143 407 -168.5 Q378 -194 336.5 -209 Q295 -224 240 -224 Q219 -224 192 -220.5 Q165 -217 140.5 -208 Q116 -199 99 -184.5 Q82 -170 82 -149 Q82 -123 103.5 -104.5 Q125 -86 154 -86 Q159 -86 166.5 -87 Q174 -88 185 -92 Q199 -99 213 -104 Q227 -109 248 -109 Q291 -109 312 -89 Q333 -69 338 -33 L344 10 Q297 -6 244 -6 Q190 -6 155.5 8.5 Q121 23 102.5 48 Q84 73 79 107.5 Q74 142 80 183 L100 324 Q106 364 124 398.5 Q142 433 172.5 458.5 Q203 484 245 498.5 Q287 513 340 513 Q391 513 428.5 500 Q466 487 490 463.5 Q514 440 524 409 Q534 378 529 342 L476 -33 Z " />
<glyph glyph-name="h" unicode="h" horiz-adv-x="547" d="M393 347 Q397 376 386 390 Q375 404 344 404 Q323 404 298 396 Q273 388 253 371 L209 55 Q205 29 183 11 Q161 -7 132 -7 Q103 -7 85.5 11 Q68 29 72 55 L158 665 Q161 689 183 708 Q205 727 234 727 Q263 727 281 709 Q299 691 295 665 L270 486 Q293 499 317.5 506 Q342 513 368 513 Q416 513 449.5 500 Q483 487 502.5 464 Q522 441 529 409 Q536 377 530 338 L499 123 Q497 107 498.5 100 Q500 93 509 82 Q514 75 518 69.5 Q522 64 522 53 Q522 24 500 8.5 Q478 -7 439 -7 Q424 -7 407.5 -3.5 Q391 0 378.5 12.5 Q366 25 360 48.5 Q354 72 360 111 L393 347 Z " />
<glyph glyph-name="i" unicode="i" horiz-adv-x="285" d="M311 651 Q311 635 304 621 Q297 607 285 596.5 Q273 586 257 580 Q241 574 223 574 Q192 574 173 592.5 Q154 611 154 637 Q154 653 161 667 Q168 681 180.5 691.5 Q193 702 209 708 Q225 714 243 714 Q273 714 292 695.5 Q311 677 311 651 Z M136 449 Q140 474 162.5 492 Q185 510 214 510 Q243 510 260.5 492 Q278 474 274 449 L228 123 Q226 107 227 100 Q228 93 237 82 Q242 75 246 69.5 Q250 64 250 53 Q250 24 228 8.5 Q206 -7 167 -7 Q152 -7 135.5 -3.5 Q119 0 106.5 12.5 Q94 25 88 48.5 Q82 72 88 111 L136 449 Z " />
<glyph glyph-name="j" unicode="j" horiz-adv-x="285" d="M311 651 Q311 635 304 621 Q297 607 285 596.5 Q273 586 257 580 Q241 574 223 574 Q192 574 173 592.5 Q154 611 154 637 Q154 653 161 667 Q168 681 180 691.5 Q192 702 208 708 Q224 714 242 714 Q273 714 292 695.5 Q311 677 311 651 Z M210 -7 Q204 -50 186 -86 Q168 -122 139.5 -147.5 Q111 -173 74 -187 Q37 -201 -7 -201 Q-30 -201 -45 -189.5 Q-60 -178 -63 -159 Q-66 -142 -60.5 -129.5 Q-55 -117 -45 -108 Q-35 -99 -23.5 -94 Q-12 -89 -1 -87 Q28 -82 47.5 -64 Q67 -46 72 -10 L136 449 Q140 474 162.5 492 Q185 510 214 510 Q243 510 260.5 492 Q278 474 274 449 L210 -7 Z " />
<glyph glyph-name="k" unicode="k" horiz-adv-x="487" d="M409 492 Q419 501 433 505 Q447 509 459 509 Q485 509 501.5 494.5 Q518 480 518 457 Q518 429 493 408 L494 408 L354 279 L473 85 Q478 77 479.5 66.5 Q481 56 479 48 Q474 22 452.5 7.5 Q431 -7 404 -7 Q368 -7 351 21 L242 204 L230 194 L210 55 Q206 29 183.5 11 Q161 -7 132 -7 Q103 -7 85.5 11 Q68 29 72 55 L157 660 Q161 686 183.5 704 Q206 722 235 722 Q264 722 281.5 704 Q299 686 295 660 L250 343 L409 492 Z " />
<glyph glyph-name="l" unicode="l" horiz-adv-x="268" d="M159 -7 Q144 -7 127.5 -3.5 Q111 0 98.5 12.5 Q86 25 80 48.5 Q74 72 80 111 L157 660 Q161 685 183.5 703.5 Q206 722 235 722 Q264 722 281.5 704 Q299 686 295 660 L219 123 Q217 107 218.5 100 Q220 93 229 82 Q234 75 238 69.5 Q242 64 242 53 Q242 24 220 8.5 Q198 -7 159 -7 Z " />
<glyph glyph-name="m" unicode="m" horiz-adv-x="818" d="M662 332 Q666 358 653.5 376.5 Q641 395 613 395 Q593 395 572 386 Q551 377 528 360 Q527 353 527 347 Q527 341 526 334 L487 55 Q483 29 463.5 11.5 Q444 -6 409 -6 Q374 -6 359.5 11.5 Q345 29 349 55 L385 314 Q390 349 384 372 Q378 395 345 395 Q326 395 303 387.5 Q280 380 256 369 Q256 367 256 363.5 Q256 360 255 358 L213 55 Q209 29 189.5 11.5 Q170 -6 135 -6 Q100 -6 85.5 11.5 Q71 29 75 55 L117 358 Q121 383 119 389 Q117 395 115 400 Q108 411 105.5 418.5 Q103 426 103 433 Q103 462 126 479.5 Q149 497 177 497 Q194 497 206 489.5 Q218 482 226 469 Q263 490 299 501.5 Q335 513 367 513 Q428 513 477 469 Q521 491 557 502 Q593 513 634 513 Q723 513 767 464 Q811 415 800 334 L770 123 Q768 107 769.5 100 Q771 93 780 82 Q785 75 789 69.5 Q793 64 793 53 Q793 24 771 8.5 Q749 -7 710 -7 Q695 -7 678.5 -3.5 Q662 0 649.5 12.5 Q637 25 631 48.5 Q625 72 631 111 L662 332 Z " />
<glyph glyph-name="n" unicode="n" horiz-adv-x="549" d="M389 316 Q394 354 380 375.5 Q366 397 336 397 Q305 397 256 376 Q256 371 256 366.5 Q256 362 255 357 L213 55 Q209 29 189.5 11.5 Q170 -6 135 -6 Q100 -6 85.5 11.5 Q71 29 75 55 L117 358 Q121 383 119 389 Q117 395 115 400 Q108 411 105.5 418 Q103 425 103 433 Q103 460 125.5 478.5 Q148 497 179 497 Q209 497 228 468 Q265 491 300.5 501 Q336 511 366 511 Q461 511 500.5 457.5 Q540 404 527 316 L500 123 Q498 107 499.5 100 Q501 93 510 82 Q515 75 519 69.5 Q523 64 523 53 Q523 24 501 8.5 Q479 -7 440 -7 Q425 -7 408.5 -3.5 Q392 0 379.5 12.5 Q367 25 361 48.5 Q355 72 361 111 L389 316 Z " />
<glyph glyph-name="o" unicode="o" horiz-adv-x="524" d="M261 -7 Q208 -7 169.5 7.5 Q131 22 107 47 Q83 72 73.5 106 Q64 140 70 179 L91 328 Q96 367 115 401 Q134 435 164.5 460 Q195 485 238 499.5 Q281 514 334 514 Q387 514 425.5 499.5 Q464 485 488 460 Q512 435 521 401 Q530 367 525 328 L504 179 Q498 140 479.5 106 Q461 72 430 47 Q399 22 356.5 7.5 Q314 -7 261 -7 Z M277 111 Q316 111 338.5 129 Q361 147 366 179 L387 329 Q392 360 374 378 Q356 396 317 396 Q278 396 256 378 Q234 360 229 329 L208 179 Q203 147 220.5 129 Q238 111 277 111 Z " />
<glyph glyph-name="p" unicode="p" horiz-adv-x="528" d="M291 -6 Q271 -6 251.5 -2.5 Q232 1 207 14 L184 -151 Q180 -177 159.5 -194.5 Q139 -212 106 -212 Q73 -212 57.5 -194 Q42 -176 46 -151 L117 357 Q119 374 118 384.5 Q117 395 112 404 Q108 411 105.5 417 Q103 423 103 431 Q103 446 110 458 Q117 470 127.5 478.5 Q138 487 151.5 492 Q165 497 178 497 Q194 497 205.5 489.5 Q217 482 226 469 Q265 489 299 501 Q333 513 373 513 Q416 513 448 498.5 Q480 484 499.5 458.5 Q519 433 526 396.5 Q533 360 527 317 L511 201 Q505 157 490 119 Q475 81 449 53 Q423 25 384 9.5 Q345 -6 291 -6 Z M222 121 Q264 108 293 108 Q330 108 348 130.5 Q366 153 373 201 L389 317 Q400 397 336 397 Q305 397 256 376 Q256 371 256 366.5 Q256 362 255 357 L222 121 Z " />
<glyph glyph-name="q" unicode="q" horiz-adv-x="535" d="M382 342 Q385 367 367 381 Q349 395 315 395 Q276 395 255 376 Q234 357 229 324 L209 183 Q204 148 217.5 128 Q231 108 270 108 Q290 108 311.5 114 Q333 120 352 134 L382 342 Z M453 -131 Q449 -157 429.5 -174.5 Q410 -192 375 -192 Q340 -192 325.5 -174.5 Q311 -157 315 -131 L336 20 Q312 6 287.5 0 Q263 -6 231 -6 Q179 -6 145.5 8.5 Q112 23 93.5 48 Q75 73 70 107.5 Q65 142 71 183 L91 324 Q97 364 115 398.5 Q133 433 163.5 458.5 Q194 484 236 498.5 Q278 513 331 513 Q382 513 419.5 500 Q457 487 481 463.5 Q505 440 515 409 Q525 378 520 342 L453 -131 Z " />
<glyph glyph-name="r" unicode="r" horiz-adv-x="377" d="M353 386 Q337 387 325 387.5 Q313 388 302.5 387 Q292 386 281 383.5 Q270 381 256 376 Q256 371 256 366.5 Q256 362 255 357 L213 55 Q209 29 186.5 11 Q164 -7 135 -7 Q106 -7 88.5 11 Q71 29 75 55 L117 357 Q119 374 118.5 384.5 Q118 395 113 404 Q109 411 106 417 Q103 423 103 431 Q103 460 127 478.5 Q151 497 180 497 Q196 497 208 488.5 Q220 480 229 466 Q266 486 300.5 497.5 Q335 509 359 509 Q401 509 417 494.5 Q433 480 433 458 Q433 425 408.5 404.5 Q384 384 353 386 Z " />
<glyph glyph-name="s" unicode="s" horiz-adv-x="446" d="M92 338 Q92 376 106 408 Q120 440 147 463.5 Q174 487 214.5 500 Q255 513 308 513 Q331 513 357.5 509.5 Q384 506 406.5 497.5 Q429 489 444 474 Q459 459 459 436 Q459 417 452 405.5 Q445 394 434.5 387.5 Q424 381 412.5 379 Q401 377 392 377 Q379 377 368.5 380.5 Q358 384 347.5 387.5 Q337 391 324 394.5 Q311 398 293 398 Q230 398 230 358 Q230 340 255 329 Q279 318 310 308 Q341 298 368.5 282 Q396 266 415.5 240 Q435 214 435 171 Q435 90 378 41.5 Q321 -7 216 -7 Q193 -7 163.5 -4 Q134 -1 108 7.5 Q82 16 64.5 30 Q47 44 47 66 Q47 89 67.5 109.5 Q88 130 120 130 Q132 130 144 126.5 Q156 123 169 119 Q182 115 197 111.5 Q212 108 230 108 Q259 108 278 119 Q297 130 297 153 Q297 164 292 170 Q287 176 280 180 Q259 193 227 202.5 Q195 212 165 227 Q135 242 113.5 267.5 Q92 293 92 338 Z " />
<glyph glyph-name="t" unicode="t" horiz-adv-x="361" d="M148 596 Q152 622 172 639.5 Q192 657 225 657 Q258 657 274 639 Q290 621 286 596 L270 485 L344 485 Q370 485 386 470 Q402 455 402 432 Q402 403 379.5 384.5 Q357 366 327 366 L253 366 L232 215 Q224 159 230 137 Q236 115 272 115 Q279 115 283 115.5 Q287 116 289 116 Q331 116 347.5 105.5 Q364 95 364 72 Q364 47 355 32 Q346 17 331.5 9 Q317 1 298 -1.5 Q279 -4 258 -4 Q200 -4 164 10 Q128 24 110 51 Q92 78 89 117.5 Q86 157 93 208 L148 596 Z " />
<glyph glyph-name="u" unicode="u" horiz-adv-x="549" d="M393 37 Q354 12 318.5 2.5 Q283 -7 249 -7 Q158 -7 118 47 Q78 101 90 189 L127 450 Q131 476 151.5 493 Q172 510 205 510 Q238 510 253.5 493 Q269 476 265 450 L228 189 Q223 151 236 130 Q249 109 282 109 Q312 109 362 130 Q362 135 362 139.5 Q362 144 363 149 L405 450 Q409 476 428.5 493 Q448 510 483 510 Q518 510 532.5 493 Q547 476 543 450 L498 129 Q496 118 500 111 Q504 104 512 94 Q522 83 522 67 Q522 50 515 37.5 Q508 25 497.5 16.5 Q487 8 474 3.5 Q461 -1 449 -1 Q429 -1 415.5 9.5 Q402 20 393 37 Z " />
<glyph glyph-name="v" unicode="v" horiz-adv-x="470" d="M244 300 Q252 259 252.5 218 Q253 177 255 135 Q269 177 281.5 218 Q294 259 312 300 L387 467 Q397 487 417.5 498.5 Q438 510 458 510 Q483 510 500.5 495.5 Q518 481 518 457 Q518 448 516.5 443 Q515 438 513 433 L323 54 Q306 22 287 7.5 Q268 -7 236 -7 Q203 -7 187 7 Q171 21 164 52 L79 434 Q78 436 78 438.5 Q78 441 78 443 Q78 458 84.5 470.5 Q91 483 102 492 Q113 501 126.5 506 Q140 511 155 511 Q175 511 192 499.5 Q209 488 213 468 L244 300 Z " />
<glyph glyph-name="w" unicode="w" horiz-adv-x="695" d="M396 203 Q392 233 393 263.5 Q394 294 394 325 Q385 294 377.5 263.5 Q370 233 358 203 L295 43 Q283 16 262.5 4.5 Q242 -7 211 -7 Q178 -7 162 8.5 Q146 24 141 53 L79 437 Q79 439 78.5 440.5 Q78 442 78 444 Q78 470 101 490 Q124 510 156 510 Q178 510 195 498.5 Q212 487 215 465 L235 300 Q240 262 236.5 224 Q233 186 233 148 Q244 186 253 224 Q262 262 277 300 L340 459 Q349 481 370 495.5 Q391 510 421 510 Q450 510 467 495.5 Q484 481 486 459 L502 300 Q506 262 505 223.5 Q504 185 505 147 Q516 185 524 223.5 Q532 262 547 300 L613 465 Q621 484 641.5 497 Q662 510 684 510 Q709 510 726.5 494.5 Q744 479 744 455 Q744 450 743 445.5 Q742 441 741 439 L571 52 Q558 23 538.5 8 Q519 -7 483 -7 Q457 -7 438 6 Q419 19 415 43 L396 203 Z " />
<glyph glyph-name="x" unicode="x" horiz-adv-x="471" d="M458 87 Q462 82 463 75.5 Q464 69 464 63 Q464 35 441.5 14 Q419 -7 385 -7 Q361 -7 349.5 1.5 Q338 10 327 29 Q316 48 308 62 Q300 76 292 89 Q284 102 275.5 116.5 Q267 131 256 150 Q228 118 200 86.5 Q172 55 145 23 Q118 -7 84 -7 Q57 -7 39.5 8 Q22 23 22 48 Q22 68 37 85 Q78 131 114 171 Q150 211 191 257 Q166 297 142 335.5 Q118 374 93 416 Q89 422 87.5 429.5 Q86 437 86 444 Q86 470 109 490 Q132 510 164 510 Q193 510 206 495.5 Q219 481 227 467 L288 364 L384 475 Q398 491 412.5 500.5 Q427 510 451 510 Q473 510 492 494.5 Q511 479 511 455 Q511 449 508 438.5 Q505 428 496 418 L353 257 L458 87 Z " />
<glyph glyph-name="y" unicode="y" horiz-adv-x="549" d="M218 183 Q213 148 226 128 Q239 108 276 108 Q299 108 320.5 114 Q342 120 361 134 L406 450 Q409 476 428.5 493 Q448 510 483 510 Q518 510 532.5 493 Q547 476 544 450 L476 -33 Q470 -73 453 -108 Q436 -143 407 -168.5 Q378 -194 336.5 -209 Q295 -224 240 -224 Q219 -224 192 -220.5 Q165 -217 140.5 -208 Q116 -199 99 -184.5 Q82 -170 82 -149 Q82 -123 103.5 -104.5 Q125 -86 154 -86 Q159 -86 166.5 -87 Q174 -88 185 -92 Q199 -99 213 -104 Q227 -109 248 -109 Q291 -109 312 -89 Q333 -69 338 -33 L344 10 Q297 -6 244 -6 Q190 -6 155.5 8.5 Q121 23 102.5 48 Q84 73 79 107.5 Q74 142 80 183 L118 450 Q121 476 141.5 493 Q162 510 195 510 Q228 510 244 493 Q260 476 256 450 L218 183 Z " />
<glyph glyph-name="z" unicode="z" horiz-adv-x="434" d="M484 450 Q484 425 464 402 L208 118 L373 118 Q399 118 415.5 103 Q432 88 432 65 Q432 38 410 19 Q388 0 357 0 L80 0 Q54 0 36 16.5 Q18 33 18 57 Q18 71 22.5 81 Q27 91 36 101 L293 387 L140 387 Q114 387 98 402 Q82 417 82 440 Q82 468 104 486.5 Q126 505 157 505 L422 505 Q448 505 466 490.5 Q484 476 484 450 Z " />
<glyph glyph-name="braceleft" unicode="&#x7b;" horiz-adv-x="437" d="M105 182 Q97 183 88 184.5 Q79 186 71.5 191.5 Q64 197 59 206.5 Q54 216 54 232 Q54 256 61.5 270 Q69 284 80 291.5 Q91 299 102.5 301 Q114 303 123 304 Q133 305 141.5 307 Q150 309 157 314.5 Q164 320 170 331 Q176 342 180 361 Q183 377 185.5 388.5 Q188 400 191 417 Q194 434 199.5 462 Q205 490 215 538 Q222 571 240.5 597 Q259 623 286.5 640.5 Q314 658 349 667.5 Q384 677 425 677 Q439 677 453 675.5 Q467 674 478 668 Q489 662 496 651 Q503 640 503 621 Q503 594 494.5 579.5 Q486 565 473 559 Q460 553 445.5 553 Q431 553 418 555 Q412 556 405 556.5 Q398 557 394 557 Q380 557 366 548.5 Q352 540 349 524 Q348 519 344 498 Q340 477 335.5 451.5 Q331 426 326 401 Q321 376 318 363 Q308 325 282 295.5 Q256 266 205 243 Q289 199 283 122 L270 -39 Q269 -53 281 -62 Q293 -71 305 -71 Q306 -71 309.5 -70.5 Q313 -70 317.5 -70 Q322 -70 326 -69.5 Q330 -69 331 -69 Q341 -68 353 -68 Q365 -68 375.5 -71.5 Q386 -75 393 -84.5 Q400 -94 400 -112 Q400 -139 391 -154.5 Q382 -170 368 -178.5 Q354 -187 336.5 -189.5 Q319 -192 303 -192 Q264 -192 231 -182 Q198 -172 175.5 -154 Q153 -136 141 -110.5 Q129 -85 132 -53 L147 126 Q148 146 144 157 Q140 168 133.5 173.5 Q127 179 119 180.5 Q111 182 105 182 Z " />
<glyph glyph-name="bar" unicode="&#x7c;" horiz-adv-x="267" d="M165 694 Q168 718 189.5 736.5 Q211 755 239 755 Q267 755 283.5 736.5 Q300 718 297 694 L177 -160 Q173 -185 151.5 -203 Q130 -221 102 -221 Q74 -221 57.5 -203 Q41 -185 45 -160 L165 694 Z " />
<glyph glyph-name="braceright" unicode="&#x7d;" horiz-adv-x="437" d="M388 182 Q379 181 370.5 179 Q362 177 354.5 171.5 Q347 166 341 155 Q335 144 331 126 L295 -53 Q289 -84 270 -109.5 Q251 -135 223.5 -153.5 Q196 -172 160.5 -182 Q125 -192 85 -192 Q71 -192 57.5 -190 Q44 -188 33 -182 Q22 -176 15 -164.5 Q8 -153 8 -134 Q8 -110 14.5 -96.5 Q21 -83 32.5 -76.5 Q44 -70 59.5 -69 Q75 -68 93 -68 Q97 -69 101 -69 Q104 -70 108 -70 Q112 -70 116 -70 Q137 -70 148 -60.5 Q159 -51 161 -39 L193 122 Q209 199 305 243 Q266 262 246 292.5 Q226 323 226 356 Q226 358 233 399 Q240 440 240 524 Q240 541 230 549 Q220 557 206 557 Q201 557 193.5 556.5 Q186 556 180 555 Q169 553 157 552.5 Q145 552 134.5 556 Q124 560 117.5 569.5 Q111 579 111 598 Q111 625 120 640.5 Q129 656 142.5 664 Q156 672 173 674.5 Q190 677 207 677 Q285 677 331.5 643 Q378 609 378 547 Q378 484 376 450 Q374 416 371 398.5 Q368 381 366 372.5 Q364 364 364 352 Q364 336 367 327 Q370 318 375.5 313.5 Q381 309 388.5 307 Q396 305 405 304 Q412 303 420.5 301.5 Q429 300 437 295 Q445 290 450.5 280.5 Q456 271 456 254 Q456 230 448.5 216 Q441 202 430.5 194.5 Q420 187 408.5 185 Q397 183 388 182 Z " />
<glyph glyph-name="asciitilde" unicode="&#x7e;" horiz-adv-x="496" d="M484 352 Q484 332 472 314.5 Q460 297 442 284 Q424 271 402.5 264 Q381 257 363 257 Q339 257 321.5 264 Q304 271 289 279.5 Q274 288 261.5 295.5 Q249 303 236 305 Q223 306 214 299.5 Q205 293 196 285 Q187 277 177 269.5 Q167 262 152 262 Q134 262 118 275 Q102 288 104 311 Q107 332 118.5 349.5 Q130 367 146.5 380 Q163 393 183 400 Q203 407 223 407 Q248 407 266 399.5 Q284 392 298.5 383 Q313 374 325 366.5 Q337 359 351 359 Q365 359 374 366 Q383 373 391 381 Q399 389 408 396 Q417 403 432 403 Q453 403 468.5 389 Q484 375 484 352 Z " />
<glyph glyph-name="exclamdown" unicode="&#xa1;" horiz-adv-x="267" d="M111 271 Q114 294 133.5 310.5 Q153 327 179 327 Q202 327 217.5 310.5 Q233 294 231 271 L182 -150 Q178 -176 155 -195.5 Q132 -215 103 -215 Q74 -215 56 -195.5 Q38 -176 42 -150 L111 271 Z M279 438 Q279 421 271 405.5 Q263 390 249.5 378.5 Q236 367 219 360 Q202 353 184 353 Q152 353 131.5 373 Q111 393 111 422 Q111 439 118.5 454.5 Q126 470 139 482 Q152 494 169.5 501 Q187 508 206 508 Q237 508 258 487.5 Q279 467 279 438 Z " />
<glyph glyph-name="cent" unicode="&#xa2;" horiz-adv-x="443" d="M87 299 Q92 338 108 371.5 Q124 405 151 430.5 Q178 456 216.5 472 Q255 488 305 490 L311 533 Q313 544 321.5 551.5 Q330 559 341 559 Q352 559 358.5 551.5 Q365 544 363 533 L357 488 Q376 486 396.5 481 Q417 476 433 467 Q449 458 459.5 444.5 Q470 431 470 411 Q470 402 467 391.5 Q464 381 456.5 372 Q449 363 435.5 357.5 Q422 352 400 352 Q392 352 385 353 Q378 354 368 358 L340 370 L308 142 Q316 144 323.5 147.5 Q331 151 339 155 Q354 161 371 161 Q406 161 417.5 146.5 Q429 132 429 117 Q429 93 416 76.5 Q403 60 383 49.5 Q363 39 338.5 33 Q314 27 292 25 L285 -28 Q283 -39 274.5 -46.5 Q266 -54 255 -54 Q244 -54 237.5 -46.5 Q231 -39 233 -28 L240 23 Q190 25 156 40.5 Q122 56 102 81.5 Q82 107 75.5 141 Q69 175 75 214 L87 299 Z M213 214 Q208 184 218 164.5 Q228 145 256 140 L289 373 Q260 367 245 348 Q230 329 225 299 L213 214 Z " />
<glyph glyph-name="yen" unicode="&#xa5;" horiz-adv-x="540" d="M202 369 L110 620 Q108 624 108 630 Q108 636 108 642 Q108 657 115 670 Q122 683 133.5 692.5 Q145 702 159.5 708 Q174 714 188 714 Q204 714 219 707 Q234 700 241 684 L331 436 L490 684 Q501 700 518 707 Q535 714 552 714 Q578 714 596.5 696.5 Q615 679 615 655 Q615 645 611 636.5 Q607 628 603 620 L440 369 L490 369 Q504 369 514 359.5 Q524 350 524 336 Q524 319 510.5 307 Q497 295 479 295 L391 295 L380 276 L375 239 L472 239 Q486 239 496 229.5 Q506 220 506 206 Q506 189 492.5 177 Q479 165 461 165 L364 165 L349 57 Q345 33 326 14.5 Q307 -4 280 -8 Q272 -10 268 -10 Q259 -10 253 -7 Q230 -2 217 16 Q204 34 207 57 L222 165 L123 165 Q108 165 98.5 174.5 Q89 184 89 198 Q89 215 103 227 Q117 239 134 239 L233 239 L238 276 L230 295 L141 295 Q126 295 116.5 304.5 Q107 314 107 328 Q107 345 121 357 Q135 369 152 369 L202 369 Z " />
<glyph glyph-name="dieresis" unicode="&#xa8;" horiz-adv-x="443" d="M478 637 Q478 623 472 610 Q466 597 455.5 587.5 Q445 578 432 572.5 Q419 567 404 567 Q379 567 362.5 583.5 Q346 600 346 623 Q346 637 352 649.5 Q358 662 368.5 671 Q379 680 392.5 685.5 Q406 691 421 691 Q446 691 462 675.5 Q478 660 478 637 Z M299 637 Q299 608 276.5 587.5 Q254 567 224 567 Q199 567 183.5 583.5 Q168 600 168 623 Q168 650 190 670.5 Q212 691 241 691 Q267 691 283 675.5 Q299 660 299 637 Z " />
<glyph glyph-name="copyright" unicode="&#xa9;" horiz-adv-x="740" d="M724 365 Q724 285 700 216.5 Q676 148 630 98 Q584 48 518 19.5 Q452 -9 368 -9 Q302 -9 252.5 11 Q203 31 170 66.5 Q137 102 120 151.5 Q103 201 103 261 Q103 341 127 409.5 Q151 478 197 528 Q243 578 309 606.5 Q375 635 459 635 Q525 635 574.5 615 Q624 595 657 559.5 Q690 524 707 474.5 Q724 425 724 365 Z M663 355 Q663 404 649.5 444.5 Q636 485 609.5 514 Q583 543 543 559 Q503 575 450 575 Q382 575 329 552 Q276 529 239.5 488 Q203 447 183.5 391.5 Q164 336 164 271 Q164 222 177.5 181.5 Q191 141 217.5 112 Q244 83 284 67 Q324 51 377 51 Q444 51 497.5 74 Q551 97 587.5 138 Q624 179 643.5 234.5 Q663 290 663 355 Z M265 283 Q261 252 266 225 Q271 198 287 178.5 Q303 159 330.5 147.5 Q358 136 398 136 Q414 136 436 139 Q458 142 478 149 Q498 156 512.5 168 Q527 180 527 198 Q527 212 518 222 Q509 232 495 232 Q489 232 482 229 Q467 222 451.5 216.5 Q436 211 415 211 Q378 211 365 229.5 Q352 248 357 283 L366 344 Q371 379 389 397.5 Q407 416 444 416 Q465 416 478.5 411 Q492 406 506 398 Q512 395 518 395 Q535 395 548 407.5 Q561 420 561 436 Q561 452 549 462.5 Q537 473 519.5 479.5 Q502 486 482.5 488.5 Q463 491 448 491 Q408 491 377.5 479.5 Q347 468 325.5 448 Q304 428 291 401.5 Q278 375 274 344 L265 283 Z " />
<glyph glyph-name="guillemotleft" unicode="&#xab;" horiz-adv-x="431" d="M279 50 Q282 44 282 37 Q282 20 269 6 Q256 -8 236 -8 Q222 -8 215.5 -1.5 Q209 5 201 19 L77 256 L261 485 Q271 497 279.5 504 Q288 511 302 511 Q315 511 325 501.5 Q335 492 335 478 Q335 465 327 455 L168 258 L279 50 Z M401 114 Q404 108 404 100 Q404 82 389 70 Q374 58 360 58 Q346 58 339.5 65 Q333 72 327 84 L237 256 L375 428 Q385 440 393.5 447 Q402 454 416 454 Q428 454 438.5 444.5 Q449 435 449 421 Q449 408 441 398 L328 256 L401 114 Z " />
<glyph glyph-name="registered" unicode="&#xae;" horiz-adv-x="700" d="M699 472 Q699 399 677 336.5 Q655 274 612.5 228.5 Q570 183 508.5 157 Q447 131 368 131 Q306 131 259.5 149 Q213 167 181.5 199.5 Q150 232 134.5 277.5 Q119 323 119 377 Q119 450 141.5 514 Q164 578 206.5 624.5 Q249 671 310.5 698 Q372 725 451 725 Q513 725 559.5 706.5 Q606 688 637 654.5 Q668 621 683.5 574.5 Q699 528 699 472 Z M639 463 Q639 508 626.5 545 Q614 582 589.5 608.5 Q565 635 528.5 650 Q492 665 443 665 Q380 665 331.5 643.5 Q283 622 249 584.5 Q215 547 197.5 496 Q180 445 180 386 Q180 343 192.5 307 Q205 271 229.5 245.5 Q254 220 290.5 205.5 Q327 191 376 191 Q438 191 487 211.5 Q536 232 569.5 268.5 Q603 305 621 354.5 Q639 404 639 463 Z M540 499 Q540 515 534.5 530.5 Q529 546 516.5 558 Q504 570 484 577.5 Q464 585 434 585 L367 585 Q350 585 335 571.5 Q320 558 318 541 L285 306 Q283 291 293.5 281 Q304 271 319 271 Q335 271 349 281.5 Q363 292 365 306 L377 389 L393 389 L441 295 Q444 289 455.5 280 Q467 271 492 271 Q515 271 521 285 Q527 299 520 311 L474 401 Q505 414 522.5 438.5 Q540 463 540 499 Z M459 492 Q459 457 427 457 L386 457 L394 516 L432 516 Q449 516 454 508.5 Q459 501 459 492 Z " />
<glyph glyph-name="macron" unicode="&#xaf;" horiz-adv-x="443" d="M501 635 Q501 612 482 595.5 Q463 579 437 579 L168 579 Q146 579 132 591.5 Q118 604 118 624 Q118 647 137.5 664 Q157 681 183 681 L452 681 Q473 681 487 668 Q501 655 501 635 Z " />
<glyph glyph-name="degree" unicode="&#xb0;" horiz-adv-x="392" d="M257 436 Q196 436 165 470.5 Q134 505 134 556 Q134 588 145 617 Q156 646 177 668 Q198 690 228 703 Q258 716 296 716 Q359 716 389 681.5 Q419 647 419 596 Q419 564 408 535 Q397 506 376.5 484 Q356 462 326 449 Q296 436 257 436 Z M267 506 Q307 506 325.5 529 Q344 552 344 591 Q344 646 287 646 Q248 646 229 623.5 Q210 601 210 563 Q210 506 267 506 Z " />
<glyph glyph-name="plusminus" unicode="&#xb1;" horiz-adv-x="540" d="M241 330 L121 330 Q92 330 72 348.5 Q52 367 52 394 Q52 421 73.5 439 Q95 457 121 457 L241 457 L241 586 Q241 611 261 630.5 Q281 650 310 650 Q339 650 359 631.5 Q379 613 379 586 L379 457 L499 457 Q525 457 546.5 439 Q568 421 568 394 Q568 367 548 348.5 Q528 330 499 330 L379 330 L379 201 Q379 174 359 156 Q339 138 310 138 Q281 138 261 157.5 Q241 177 241 201 L241 330 Z M121 0 Q92 0 72 18.5 Q52 37 52 64 Q52 91 73.5 109 Q95 127 121 127 L499 127 Q525 127 546.5 109 Q568 91 568 64 Q568 37 548 18.5 Q528 0 499 0 L121 0 Z " />
<glyph glyph-name="acute" unicode="&#xb4;" horiz-adv-x="316" d="M277 710 L286 718 Q297 727 305 732 Q313 737 330 737 Q346 737 359 724.5 Q372 712 372 693 Q372 687 369.5 678.5 Q367 670 359 660 L266 578 Q253 568 244 562.5 Q235 557 218 557 Q198 557 185.5 568.5 Q173 580 173 600 Q173 612 176.5 618.5 Q180 625 185 631 L277 710 Z " />
<glyph glyph-name="periodcentered" unicode="&#xb7;" horiz-adv-x="295" d="M268 288 Q268 270 260.5 254.5 Q253 239 240 227.5 Q227 216 209.5 209.5 Q192 203 173 203 Q141 203 120.5 223 Q100 243 100 272 Q100 289 108 304.5 Q116 320 129.5 331.5 Q143 343 160 350 Q177 357 195 357 Q227 357 247.5 337 Q268 317 268 288 Z " />
<glyph glyph-name="cedilla" unicode="&#xb8;" horiz-adv-x="341" d="M261 -106 Q261 -154 224.5 -185 Q188 -216 132 -216 Q112 -216 92 -212.5 Q72 -209 56 -202.5 Q40 -196 30 -185.5 Q20 -175 20 -161 Q20 -146 31 -137 Q42 -128 58 -128 Q72 -128 91 -132.5 Q110 -137 130 -137 Q180 -137 180 -113 Q180 -102 168 -97 Q156 -92 127 -87 Q116 -85 107 -83 Q98 -81 93 -76.5 Q88 -72 87 -63.5 Q86 -55 91 -40 L114 44 L193 44 L172 -33 Q220 -37 240.5 -57 Q261 -77 261 -106 Z " />
<glyph glyph-name="ordmasculine" unicode="&#xba;" horiz-adv-x="424" d="M257 319 Q214 319 183.5 331 Q153 343 134.5 364.5 Q116 386 109.5 415.5 Q103 445 108 479 L118 553 Q123 587 138 616.5 Q153 646 177.5 667.5 Q202 689 236 701.5 Q270 714 313 714 Q356 714 386.5 701.5 Q417 689 435.5 667.5 Q454 646 460.5 616.5 Q467 587 462 553 L452 479 Q447 445 432 415.5 Q417 386 392.5 364.5 Q368 343 334 331 Q300 319 257 319 Z M297 601 Q272 601 260 587.5 Q248 574 245 549 L235 477 Q232 456 241 443.5 Q250 431 273 431 Q296 431 309 443.5 Q322 456 325 477 L335 549 Q338 574 330 587.5 Q322 601 297 601 Z " />
<glyph glyph-name="guillemotright" unicode="&#xbb;" horiz-adv-x="431" d="M335 258 L232 455 Q229 461 229 469 Q229 487 244 499 Q259 511 273 511 Q287 511 293.5 504 Q300 497 306 485 L426 256 L235 19 Q224 5 215.5 -1.5 Q207 -8 193 -8 Q176 -8 167 2.5 Q158 13 158 28 Q158 36 160 40.5 Q162 45 166 50 L335 258 Z M175 256 L102 398 Q99 404 99 412 Q99 430 114 442 Q129 454 143 454 Q157 454 163.5 447 Q170 440 176 428 L266 256 L128 84 Q118 72 109.5 65 Q101 58 87 58 Q74 58 64 67.5 Q54 77 54 91 Q54 104 62 114 L175 256 Z " />
<glyph glyph-name="questiondown" unicode="&#xbf;" horiz-adv-x="502" d="M207 236 Q212 241 214.5 250.5 Q217 260 219 267 Q224 296 248 313.5 Q272 331 298 331 Q319 331 339 317 Q359 303 359 271 Q359 250 350 230 Q341 210 327 191 Q313 172 295.5 154.5 Q278 137 261 122 Q247 110 230 94.5 Q213 79 197.5 60 Q182 41 171.5 19 Q161 -3 161 -28 Q161 -59 182 -81 Q203 -103 249 -103 Q266 -103 288 -99.5 Q310 -96 330 -87 Q347 -79 361.5 -69.5 Q376 -60 396 -60 Q419 -60 437 -74.5 Q455 -89 455 -115 Q455 -144 430.5 -164.5 Q406 -185 370.5 -198.5 Q335 -212 294.5 -218.5 Q254 -225 222 -225 Q175 -225 138 -212 Q101 -199 75.5 -175 Q50 -151 36 -117.5 Q22 -84 22 -43 Q22 -8 30.5 21.5 Q39 51 53.5 76.5 Q68 102 87.5 124 Q107 146 129 166 Q158 193 174.5 207.5 Q191 222 207 236 Z M229 424 Q229 441 237 456.5 Q245 472 258 484 Q271 496 288 503 Q305 510 324 510 Q356 510 376.5 489.5 Q397 469 397 440 Q397 423 389 407.5 Q381 392 368 380.5 Q355 369 338 362 Q321 355 302 355 Q270 355 249.5 375 Q229 395 229 424 Z " />
<glyph glyph-name="Agrave" unicode="&#xc0;" horiz-adv-x="589" d="M158 38 Q147 16 125.5 3.5 Q104 -9 86 -9 Q59 -9 40.5 6.5 Q22 22 22 48 Q22 55 24.5 63.5 Q27 72 29 77 L304 646 Q318 675 338 694.5 Q358 714 394 714 Q430 714 445.5 695 Q461 676 467 646 L582 77 L582 66 Q582 32 558 11.5 Q534 -9 501 -9 Q481 -9 462.5 4 Q444 17 439 38 L418 139 L206 139 L158 38 Z M371 424 Q367 446 367 472.5 Q367 499 367 522 Q361 499 353 472.5 Q345 446 335 424 L258 253 L398 253 L371 424 Z M464 831 Q469 825 469 815 Q469 789 451 773 Q433 757 410 757 Q393 757 385.5 762.5 Q378 768 368 778 L298 860 Q294 865 293 871.5 Q292 878 292 883 Q292 906 311 921.5 Q330 937 348 937 Q365 937 372 932 Q379 927 387 918 L393 910 L464 831 Z " />
<glyph glyph-name="Aacute" unicode="&#xc1;" horiz-adv-x="589" d="M158 38 Q147 16 125.5 3.5 Q104 -9 86 -9 Q59 -9 40.5 6.5 Q22 22 22 48 Q22 55 24.5 63.5 Q27 72 29 77 L304 646 Q318 675 338 694.5 Q358 714 394 714 Q430 714 445.5 695 Q461 676 467 646 L582 77 L582 66 Q582 32 558 11.5 Q534 -9 501 -9 Q481 -9 462.5 4 Q444 17 439 38 L418 139 L206 139 L158 38 Z M371 424 Q367 446 367 472.5 Q367 499 367 522 Q361 499 353 472.5 Q345 446 335 424 L258 253 L398 253 L371 424 Z M460 910 L469 918 Q480 927 488 932 Q496 937 513 937 Q529 937 542 924.5 Q555 912 555 893 Q555 887 552.5 878.5 Q550 870 542 860 L449 778 Q436 768 427 762.5 Q418 757 401 757 Q381 757 368.5 768.5 Q356 780 356 800 Q356 812 359.5 818.5 Q363 825 368 831 L460 910 Z " />
<glyph glyph-name="Acircumflex" unicode="&#xc2;" horiz-adv-x="589" d="M158 38 Q147 16 125.5 3.5 Q104 -9 86 -9 Q59 -9 40.5 6.5 Q22 22 22 48 Q22 55 24.5 63.5 Q27 72 29 77 L304 646 Q318 675 338 694.5 Q358 714 394 714 Q430 714 445.5 695 Q461 676 467 646 L582 77 L582 66 Q582 32 558 11.5 Q534 -9 501 -9 Q481 -9 462.5 4 Q444 17 439 38 L418 139 L206 139 L158 38 Z M371 424 Q367 446 367 472.5 Q367 499 367 522 Q361 499 353 472.5 Q345 446 335 424 L258 253 L398 253 L371 424 Z M422 916 Q434 916 442.5 912 Q451 908 457 903 L528 842 Q538 832 544 821 Q550 810 549 797 Q546 778 529 764.5 Q512 751 492 751 Q480 751 468.5 757.5 Q457 764 446.5 773.5 Q436 783 426.5 794 Q417 805 408 815 Q396 805 383 794 Q370 783 357 773.5 Q344 764 331 757.5 Q318 751 306 751 Q286 751 273 764.5 Q260 778 263 797 Q265 810 274 821 Q283 832 296 842 L383 903 Q391 908 400.5 912 Q410 916 422 916 Z " />
<glyph glyph-name="Atilde" unicode="&#xc3;" horiz-adv-x="589" d="M158 38 Q147 16 125.5 3.5 Q104 -9 86 -9 Q59 -9 40.5 6.5 Q22 22 22 48 Q22 55 24.5 63.5 Q27 72 29 77 L304 646 Q318 675 338 694.5 Q358 714 394 714 Q430 714 445.5 695 Q461 676 467 646 L582 77 L582 66 Q582 32 558 11.5 Q534 -9 501 -9 Q481 -9 462.5 4 Q444 17 439 38 L418 139 L206 139 L158 38 Z M371 424 Q367 446 367 472.5 Q367 499 367 522 Q361 499 353 472.5 Q345 446 335 424 L258 253 L398 253 L371 424 Z M569 848 Q569 831 559 817 Q549 803 534 792.5 Q519 782 501 776 Q483 770 468 770 Q448 770 433 775.5 Q418 781 406 788.5 Q394 796 384 802 Q374 808 363 810 Q352 811 344.5 806 Q337 801 329.5 793.5 Q322 786 313.5 780 Q305 774 293 774 Q277 774 264.5 785 Q252 796 253 815 Q255 832 264.5 847 Q274 862 288 872.5 Q302 883 318.5 889 Q335 895 352 895 Q373 895 388 888.5 Q403 882 414.5 874.5 Q426 867 436 861 Q446 855 458 855 Q470 855 477 860.5 Q484 866 491 873 Q498 880 506 885.5 Q514 891 526 891 Q543 891 556 879 Q569 867 569 848 Z " />
<glyph glyph-name="Adieresis" unicode="&#xc4;" horiz-adv-x="589" d="M158 38 Q147 16 125.5 3.5 Q104 -9 86 -9 Q59 -9 40.5 6.5 Q22 22 22 48 Q22 55 24.5 63.5 Q27 72 29 77 L304 646 Q318 675 338 694.5 Q358 714 394 714 Q430 714 445.5 695 Q461 676 467 646 L582 77 L582 66 Q582 32 558 11.5 Q534 -9 501 -9 Q481 -9 462.5 4 Q444 17 439 38 L418 139 L206 139 L158 38 Z M371 424 Q367 446 367 472.5 Q367 499 367 522 Q361 499 353 472.5 Q345 446 335 424 L258 253 L398 253 L371 424 Z M566 837 Q566 823 560 810 Q554 797 543.5 787.5 Q533 778 520 772.5 Q507 767 492 767 Q467 767 450.5 783.5 Q434 800 434 823 Q434 837 440 849.5 Q446 862 456.5 871 Q467 880 480.5 885.5 Q494 891 509 891 Q534 891 550 875.5 Q566 860 566 837 Z M387 837 Q387 808 364.5 787.5 Q342 767 312 767 Q287 767 271.5 783.5 Q256 800 256 823 Q256 850 278 870.5 Q300 891 329 891 Q355 891 371 875.5 Q387 860 387 837 Z " />
<glyph glyph-name="Aring" unicode="&#xc5;" horiz-adv-x="589" d="M158 38 Q147 16 125.5 3.5 Q104 -9 86 -9 Q59 -9 40.5 6.5 Q22 22 22 48 Q22 55 24.5 63.5 Q27 72 29 77 L305 649 Q286 674 286 711 Q286 735 296.5 757.5 Q307 780 324 796.5 Q341 813 364 823 Q387 833 412 833 Q454 833 480.5 804.5 Q507 776 507 736 Q507 711 496 688.5 Q485 666 466 649 L582 77 L582 66 Q582 32 558 11.5 Q534 -9 501 -9 Q481 -9 462.5 4 Q444 17 439 38 L418 139 L206 139 L158 38 Z M371 424 Q367 446 367 472.5 Q367 499 367 522 Q361 499 353 472.5 Q345 446 335 424 L258 253 L398 253 L371 424 Z M441 729 Q441 746 430.5 757.5 Q420 769 403 769 Q383 769 367.5 754 Q352 739 352 719 Q352 702 363 691 Q374 680 390 680 Q410 680 425.5 694.5 Q441 709 441 729 Z " />
<glyph glyph-name="AE" unicode="&#xc6;" horiz-adv-x="772" d="M454 0 Q436 0 419.5 3.5 Q403 7 391 15 Q379 23 373.5 37 Q368 51 371 71 L381 139 L206 139 L159 39 Q148 17 126.5 4 Q105 -9 86 -9 Q57 -9 39.5 6.5 Q22 22 22 47 Q22 55 24.5 63.5 Q27 72 29 77 L301 637 Q314 663 336.5 684 Q359 705 391 705 L768 705 Q794 705 811.5 688 Q829 671 829 647 Q829 632 822.5 619.5 Q816 607 805 598 Q794 589 779.5 583.5 Q765 578 750 578 L582 578 L560 417 L709 417 Q733 417 751 401 Q769 385 769 360 Q769 331 746 310.5 Q723 290 691 290 L542 290 L519 127 L697 127 Q723 127 741 110.5 Q759 94 759 71 Q759 42 734.5 21 Q710 0 679 0 L454 0 Z M434 578 Q414 578 405 559 L260 253 L396 253 L442 578 L434 578 Z " />
<glyph glyph-name="Ccedilla" unicode="&#xc7;" horiz-adv-x="522" d="M404 -106 Q404 -154 367.5 -185 Q331 -216 275 -216 Q255 -216 235 -212.5 Q215 -209 199 -202.5 Q183 -196 173 -185.5 Q163 -175 163 -161 Q163 -146 174 -137 Q185 -128 201 -128 Q215 -128 234 -132.5 Q253 -137 273 -137 Q323 -137 323 -113 Q323 -102 311 -97 Q299 -92 270 -87 Q259 -85 250.5 -83 Q242 -81 237 -77 Q232 -73 230.5 -64.5 Q229 -56 232 -40 L243 -5 Q190 1 154 22.5 Q118 44 97 77.5 Q76 111 69.5 155.5 Q63 200 71 254 L99 452 Q107 511 129 559.5 Q151 608 187.5 642.5 Q224 677 274.5 695.5 Q325 714 391 714 Q429 714 463.5 706 Q498 698 524.5 684 Q551 670 567 652 Q583 634 583 613 Q583 587 561 567 Q539 547 508 547 Q491 547 483.5 551.5 Q476 556 467 562 L458 568 Q441 579 422 585.5 Q403 592 379 592 Q311 592 279.5 554 Q248 516 239 452 L211 254 Q206 222 208.5 196 Q211 170 222.5 152 Q234 134 255.5 124 Q277 114 311 114 Q335 114 356 120.5 Q377 127 397 138 L409 144 Q420 149 428.5 154 Q437 159 454 159 Q480 159 496 143 Q512 127 512 105 Q512 84 496 65.5 Q480 47 454 32 Q428 17 393.5 7 Q359 -3 322 -6 L315 -33 Q363 -37 383.5 -57 Q404 -77 404 -106 Z " />
<glyph glyph-name="Egrave" unicode="&#xc8;" horiz-adv-x="514" d="M500 71 Q500 42 476 21 Q452 0 421 0 L156 0 Q138 0 121.5 3.5 Q105 7 93 15 Q81 23 75.5 37 Q70 51 73 71 L152 634 Q154 647 161.5 660 Q169 673 181 683 Q193 693 207.5 699 Q222 705 239 705 L510 705 Q536 705 553.5 687.5 Q571 670 571 647 Q571 617 547 597.5 Q523 578 492 578 L284 578 L261 417 L450 417 Q475 417 493 401 Q511 385 511 360 Q511 331 487.5 310.5 Q464 290 432 290 L243 290 L220 127 L438 127 Q464 127 482 110.5 Q500 94 500 71 Z M459 831 Q464 825 464 815 Q464 789 446 773 Q428 757 405 757 Q388 757 380.5 762.5 Q373 768 363 778 L293 860 Q289 865 288 871.5 Q287 878 287 883 Q287 906 306 921.5 Q325 937 343 937 Q360 937 367 932 Q374 927 382 918 L388 910 L459 831 Z " />
<glyph glyph-name="Eacute" unicode="&#xc9;" horiz-adv-x="514" d="M500 71 Q500 42 476 21 Q452 0 421 0 L156 0 Q138 0 121.5 3.5 Q105 7 93 15 Q81 23 75.5 37 Q70 51 73 71 L152 634 Q154 647 161.5 660 Q169 673 181 683 Q193 693 207.5 699 Q222 705 239 705 L510 705 Q536 705 553.5 687.5 Q571 670 571 647 Q571 617 547 597.5 Q523 578 492 578 L284 578 L261 417 L450 417 Q475 417 493 401 Q511 385 511 360 Q511 331 487.5 310.5 Q464 290 432 290 L243 290 L220 127 L438 127 Q464 127 482 110.5 Q500 94 500 71 Z M446 910 L455 918 Q466 927 474 932 Q482 937 499 937 Q515 937 528 924.5 Q541 912 541 893 Q541 887 538.5 878.5 Q536 870 528 860 L435 778 Q422 768 413 762.5 Q404 757 387 757 Q367 757 354.5 768.5 Q342 780 342 800 Q342 812 345.5 818.5 Q349 825 354 831 L446 910 Z " />
<glyph glyph-name="Ecircumflex" unicode="&#xca;" horiz-adv-x="514" d="M500 71 Q500 42 476 21 Q452 0 421 0 L156 0 Q138 0 121.5 3.5 Q105 7 93 15 Q81 23 75.5 37 Q70 51 73 71 L152 634 Q154 647 161.5 660 Q169 673 181 683 Q193 693 207.5 699 Q222 705 239 705 L510 705 Q536 705 553.5 687.5 Q571 670 571 647 Q571 617 547 597.5 Q523 578 492 578 L284 578 L261 417 L450 417 Q475 417 493 401 Q511 385 511 360 Q511 331 487.5 310.5 Q464 290 432 290 L243 290 L220 127 L438 127 Q464 127 482 110.5 Q500 94 500 71 Z M413 916 Q425 916 433.5 912 Q442 908 448 903 L519 842 Q529 832 535 821 Q541 810 540 797 Q537 778 520 764.5 Q503 751 483 751 Q471 751 459.5 757.5 Q448 764 437.5 773.5 Q427 783 417.5 794 Q408 805 399 815 Q387 805 374 794 Q361 783 348 773.5 Q335 764 322 757.5 Q309 751 297 751 Q277 751 264 764.5 Q251 778 254 797 Q256 810 265 821 Q274 832 287 842 L374 903 Q382 908 391.5 912 Q401 916 413 916 Z " />
<glyph glyph-name="Edieresis" unicode="&#xcb;" horiz-adv-x="514" d="M500 71 Q500 42 476 21 Q452 0 421 0 L156 0 Q138 0 121.5 3.5 Q105 7 93 15 Q81 23 75.5 37 Q70 51 73 71 L152 634 Q154 647 161.5 660 Q169 673 181 683 Q193 693 207.5 699 Q222 705 239 705 L510 705 Q536 705 553.5 687.5 Q571 670 571 647 Q571 617 547 597.5 Q523 578 492 578 L284 578 L261 417 L450 417 Q475 417 493 401 Q511 385 511 360 Q511 331 487.5 310.5 Q464 290 432 290 L243 290 L220 127 L438 127 Q464 127 482 110.5 Q500 94 500 71 Z M553 837 Q553 823 547 810 Q541 797 530.5 787.5 Q520 778 507 772.5 Q494 767 479 767 Q454 767 437.5 783.5 Q421 800 421 823 Q421 837 427 849.5 Q433 862 443.5 871 Q454 880 467.5 885.5 Q481 891 496 891 Q521 891 537 875.5 Q553 860 553 837 Z M374 837 Q374 808 351.5 787.5 Q329 767 299 767 Q274 767 258.5 783.5 Q243 800 243 823 Q243 850 265 870.5 Q287 891 316 891 Q342 891 358 875.5 Q374 860 374 837 Z " />
<glyph glyph-name="Igrave" unicode="&#xcc;" horiz-adv-x="267" d="M154 650 Q158 675 181 694.5 Q204 714 233 714 Q262 714 280 695 Q298 676 294 650 L211 55 Q207 29 184 10 Q161 -9 132 -9 Q103 -9 85 10 Q67 29 71 55 L154 650 Z M304 831 Q309 825 309 815 Q309 789 291 773 Q273 757 250 757 Q233 757 225.5 762.5 Q218 768 208 778 L138 860 Q134 865 133 871.5 Q132 878 132 883 Q132 906 151 921.5 Q170 937 188 937 Q205 937 212 932 Q219 927 227 918 L233 910 L304 831 Z " />
<glyph glyph-name="Iacute" unicode="&#xcd;" horiz-adv-x="267" d="M154 650 Q158 675 181 694.5 Q204 714 233 714 Q262 714 280 695 Q298 676 294 650 L211 55 Q207 29 184 10 Q161 -9 132 -9 Q103 -9 85 10 Q67 29 71 55 L154 650 Z M291 910 L300 918 Q311 927 319 932 Q327 937 344 937 Q360 937 373 924.5 Q386 912 386 893 Q386 887 383.5 878.5 Q381 870 373 860 L280 778 Q267 768 258 762.5 Q249 757 232 757 Q212 757 199.5 768.5 Q187 780 187 800 Q187 812 190.5 818.5 Q194 825 199 831 L291 910 Z " />
<glyph glyph-name="Icircumflex" unicode="&#xce;" horiz-adv-x="267" d="M154 650 Q158 675 181 694.5 Q204 714 233 714 Q262 714 280 695 Q298 676 294 650 L211 55 Q207 29 184 10 Q161 -9 132 -9 Q103 -9 85 10 Q67 29 71 55 L154 650 Z M263 916 Q275 916 283.5 912 Q292 908 298 903 L369 842 Q379 832 385 821 Q391 810 390 797 Q387 778 370 764.5 Q353 751 333 751 Q321 751 309.5 757.5 Q298 764 287.5 773.5 Q277 783 267.5 794 Q258 805 249 815 Q237 805 224 794 Q211 783 198 773.5 Q185 764 172 757.5 Q159 751 147 751 Q127 751 114 764.5 Q101 778 104 797 Q106 810 115 821 Q124 832 137 842 L224 903 Q232 908 241.5 912 Q251 916 263 916 Z " />
<glyph glyph-name="Idieresis" unicode="&#xcf;" horiz-adv-x="267" d="M154 650 Q158 675 181 694.5 Q204 714 233 714 Q262 714 280 695 Q298 676 294 650 L211 55 Q207 29 184 10 Q161 -9 132 -9 Q103 -9 85 10 Q67 29 71 55 L154 650 Z M406 837 Q406 823 400 810 Q394 797 383.5 787.5 Q373 778 360 772.5 Q347 767 332 767 Q307 767 290.5 783.5 Q274 800 274 823 Q274 837 280 849.5 Q286 862 296.5 871 Q307 880 320.5 885.5 Q334 891 349 891 Q374 891 390 875.5 Q406 860 406 837 Z M227 837 Q227 808 204.5 787.5 Q182 767 152 767 Q127 767 111.5 783.5 Q96 800 96 823 Q96 850 118 870.5 Q140 891 169 891 Q195 891 211 875.5 Q227 860 227 837 Z " />
<glyph glyph-name="Eth" unicode="&#xd0;" horiz-adv-x="616" d="M619 271 Q611 218 589 169 Q567 120 526 82.5 Q485 45 423.5 22.5 Q362 0 277 0 L164 0 Q148 0 135 6 Q122 12 112.5 21.5 Q103 31 98.5 44 Q94 57 96 72 L127 292 L118 292 Q92 292 75.5 307.5 Q59 323 59 346 Q59 373 81.5 394 Q104 415 135 415 L144 415 L175 633 Q177 648 185 661 Q193 674 205 683.5 Q217 693 232 699 Q247 705 263 705 L376 705 Q461 705 516 683.5 Q571 662 601.5 626 Q632 590 641 542.5 Q650 495 643 443 L619 271 Z M442 359 Q442 332 419.5 312 Q397 292 367 292 L267 292 L244 127 L312 127 Q353 127 383 138.5 Q413 150 433 169.5 Q453 189 464 215 Q475 241 479 271 L503 443 Q507 471 503 496 Q499 521 484 539 Q469 557 442 567.5 Q415 578 375 578 L307 578 L284 415 L384 415 Q410 415 426 398.5 Q442 382 442 359 Z " />
<glyph glyph-name="Ntilde" unicode="&#xd1;" horiz-adv-x="640" d="M501 -9 Q481 -9 464 0.5 Q447 10 439 26 L263 430 L211 56 Q207 30 183.5 10.5 Q160 -9 131 -9 Q102 -9 84.5 10.5 Q67 30 71 56 L154 646 Q158 675 181 694.5 Q204 714 236 714 Q256 714 273.5 704 Q291 694 299 677 Q324 619 345 571 Q366 523 386 476.5 Q406 430 427 380.5 Q448 331 474 271 L527 649 Q531 675 554.5 694.5 Q578 714 607 714 Q636 714 653.5 694.5 Q671 675 667 649 L584 59 Q580 31 557 11 Q534 -9 501 -9 Z M595 848 Q595 831 585 817 Q575 803 560 792.5 Q545 782 527 776 Q509 770 494 770 Q474 770 459 775.5 Q444 781 432 788.5 Q420 796 410 802 Q400 808 389 810 Q378 811 370.5 806 Q363 801 355.5 793.5 Q348 786 339.5 780 Q331 774 319 774 Q303 774 290.5 785 Q278 796 279 815 Q281 832 290.5 847 Q300 862 314 872.5 Q328 883 344.5 889 Q361 895 378 895 Q399 895 414 888.5 Q429 882 440.5 874.5 Q452 867 462 861 Q472 855 484 855 Q496 855 503 860.5 Q510 866 517 873 Q524 880 532 885.5 Q540 891 552 891 Q569 891 582 879 Q595 867 595 848 Z " />
<glyph glyph-name="Ograve" unicode="&#xd2;" horiz-adv-x="610" d="M304 -9 Q239 -9 193 11.5 Q147 32 119.5 67.5 Q92 103 82.5 151 Q73 199 81 254 L108 452 Q115 505 136.5 552.5 Q158 600 194 636 Q230 672 282.5 693 Q335 714 405 714 Q475 714 521.5 693 Q568 672 594 636 Q620 600 627.5 552.5 Q635 505 628 452 L601 254 Q593 199 570 151 Q547 103 509.5 67.5 Q472 32 420.5 11.5 Q369 -9 304 -9 Z M387 587 Q321 587 289 550 Q257 513 248 452 L221 254 Q212 194 235.5 156 Q259 118 321 118 Q383 118 417.5 156 Q452 194 461 254 L488 452 Q497 513 475 550 Q453 587 387 587 Z M468 831 Q473 825 473 815 Q473 789 455 773 Q437 757 414 757 Q397 757 389.5 762.5 Q382 768 372 778 L302 860 Q298 865 297 871.5 Q296 878 296 883 Q296 906 315 921.5 Q334 937 352 937 Q369 937 376 932 Q383 927 391 918 L397 910 L468 831 Z " />
<glyph glyph-name="Oacute" unicode="&#xd3;" horiz-adv-x="610" d="M304 -9 Q239 -9 193 11.5 Q147 32 119.5 67.5 Q92 103 82.5 151 Q73 199 81 254 L108 452 Q115 505 136.5 552.5 Q158 600 194 636 Q230 672 282.5 693 Q335 714 405 714 Q475 714 521.5 693 Q568 672 594 636 Q620 600 627.5 552.5 Q635 505 628 452 L601 254 Q593 199 570 151 Q547 103 509.5 67.5 Q472 32 420.5 11.5 Q369 -9 304 -9 Z M387 587 Q321 587 289 550 Q257 513 248 452 L221 254 Q212 194 235.5 156 Q259 118 321 118 Q383 118 417.5 156 Q452 194 461 254 L488 452 Q497 513 475 550 Q453 587 387 587 Z M456 910 L465 918 Q476 927 484 932 Q492 937 509 937 Q525 937 538 924.5 Q551 912 551 893 Q551 887 548.5 878.5 Q546 870 538 860 L445 778 Q432 768 423 762.5 Q414 757 397 757 Q377 757 364.5 768.5 Q352 780 352 800 Q352 812 355.5 818.5 Q359 825 364 831 L456 910 Z " />
<glyph glyph-name="Ocircumflex" unicode="&#xd4;" horiz-adv-x="610" d="M304 -9 Q239 -9 193 11.5 Q147 32 119.5 67.5 Q92 103 82.5 151 Q73 199 81 254 L108 452 Q115 505 136.5 552.5 Q158 600 194 636 Q230 672 282.5 693 Q335 714 405 714 Q475 714 521.5 693 Q568 672 594 636 Q620 600 627.5 552.5 Q635 505 628 452 L601 254 Q593 199 570 151 Q547 103 509.5 67.5 Q472 32 420.5 11.5 Q369 -9 304 -9 Z M387 587 Q321 587 289 550 Q257 513 248 452 L221 254 Q212 194 235.5 156 Q259 118 321 118 Q383 118 417.5 156 Q452 194 461 254 L488 452 Q497 513 475 550 Q453 587 387 587 Z M433 916 Q445 916 453.5 912 Q462 908 468 903 L539 842 Q549 832 555 821 Q561 810 560 797 Q557 778 540 764.5 Q523 751 503 751 Q491 751 479.5 757.5 Q468 764 457.5 773.5 Q447 783 437.5 794 Q428 805 419 815 Q407 805 394 794 Q381 783 368 773.5 Q355 764 342 757.5 Q329 751 317 751 Q297 751 284 764.5 Q271 778 274 797 Q276 810 285 821 Q294 832 307 842 L394 903 Q402 908 411.5 912 Q421 916 433 916 Z " />
<glyph glyph-name="Otilde" unicode="&#xd5;" horiz-adv-x="610" d="M304 -9 Q239 -9 193 11.5 Q147 32 119.5 67.5 Q92 103 82.5 151 Q73 199 81 254 L108 452 Q115 505 136.5 552.5 Q158 600 194 636 Q230 672 282.5 693 Q335 714 405 714 Q475 714 521.5 693 Q568 672 594 636 Q620 600 627.5 552.5 Q635 505 628 452 L601 254 Q593 199 570 151 Q547 103 509.5 67.5 Q472 32 420.5 11.5 Q369 -9 304 -9 Z M387 587 Q321 587 289 550 Q257 513 248 452 L221 254 Q212 194 235.5 156 Q259 118 321 118 Q383 118 417.5 156 Q452 194 461 254 L488 452 Q497 513 475 550 Q453 587 387 587 Z M580 848 Q580 831 570 817 Q560 803 545 792.5 Q530 782 512 776 Q494 770 479 770 Q459 770 444 775.5 Q429 781 417 788.5 Q405 796 395 802 Q385 808 374 810 Q363 811 355.5 806 Q348 801 340.5 793.5 Q333 786 324.5 780 Q316 774 304 774 Q288 774 275.5 785 Q263 796 264 815 Q266 832 275.5 847 Q285 862 299 872.5 Q313 883 329.5 889 Q346 895 363 895 Q384 895 399 888.5 Q414 882 425.5 874.5 Q437 867 447 861 Q457 855 469 855 Q481 855 488 860.5 Q495 866 502 873 Q509 880 517 885.5 Q525 891 537 891 Q554 891 567 879 Q580 867 580 848 Z " />
<glyph glyph-name="Odieresis" unicode="&#xd6;" horiz-adv-x="610" d="M304 -9 Q239 -9 193 11.5 Q147 32 119.5 67.5 Q92 103 82.5 151 Q73 199 81 254 L108 452 Q115 505 136.5 552.5 Q158 600 194 636 Q230 672 282.5 693 Q335 714 405 714 Q475 714 521.5 693 Q568 672 594 636 Q620 600 627.5 552.5 Q635 505 628 452 L601 254 Q593 199 570 151 Q547 103 509.5 67.5 Q472 32 420.5 11.5 Q369 -9 304 -9 Z M387 587 Q321 587 289 550 Q257 513 248 452 L221 254 Q212 194 235.5 156 Q259 118 321 118 Q383 118 417.5 156 Q452 194 461 254 L488 452 Q497 513 475 550 Q453 587 387 587 Z M577 837 Q577 823 571 810 Q565 797 554.5 787.5 Q544 778 531 772.5 Q518 767 503 767 Q478 767 461.5 783.5 Q445 800 445 823 Q445 837 451 849.5 Q457 862 467.5 871 Q478 880 491.5 885.5 Q505 891 520 891 Q545 891 561 875.5 Q577 860 577 837 Z M398 837 Q398 808 375.5 787.5 Q353 767 323 767 Q298 767 282.5 783.5 Q267 800 267 823 Q267 850 289 870.5 Q311 891 340 891 Q366 891 382 875.5 Q398 860 398 837 Z " />
<glyph glyph-name="multiply" unicode="&#xd7;" horiz-adv-x="500" d="M345 354 L465 234 Q477 222 477 206 Q477 190 465 179 Q454 167 437.5 167.5 Q421 168 410 179 L290 299 L170 179 Q159 168 142.5 167.5 Q126 167 115 179 Q103 190 103 206 Q103 222 115 234 L235 354 L115 474 Q104 485 103.5 501.5 Q103 518 115 529 Q126 541 142 541 Q158 541 170 529 L290 409 L410 529 Q422 541 438 541 Q454 541 465 529 Q477 518 476.5 501.5 Q476 485 465 474 L345 354 Z " />
<glyph glyph-name="Oslash" unicode="&#xd8;" horiz-adv-x="591" d="M94 91 Q75 124 69.5 165.5 Q64 207 71 254 L99 452 Q106 505 127.5 552.5 Q149 600 185 636 Q221 672 273.5 693 Q326 714 396 714 Q456 714 498.5 698.5 Q541 683 568 655 L602 695 Q610 704 621 706 Q632 708 640 702 Q648 696 648.5 685.5 Q649 675 641 666 L598 615 Q615 581 620.5 539.5 Q626 498 619 452 L591 254 Q583 199 560 151 Q537 103 499.5 67.5 Q462 32 410.5 11.5 Q359 -9 294 -9 Q237 -9 194.5 6.5 Q152 22 124 51 L90 10 Q82 1 71 -1 Q60 -3 52 3 Q44 9 43.5 19.5 Q43 30 51 39 L94 91 Z M378 587 Q312 587 279.5 550 Q247 513 239 452 L211 254 Q210 246 209 239.5 Q208 233 208 227 L471 539 Q460 562 438 574.5 Q416 587 378 587 Z M479 452 Q480 458 480 464 Q480 470 481 476 L221 166 Q232 143 254.5 130.5 Q277 118 312 118 Q374 118 408.5 156 Q443 194 451 254 L479 452 Z " />
<glyph glyph-name="Ugrave" unicode="&#xd9;" horiz-adv-x="612" d="M591 240 Q583 186 560 140.5 Q537 95 500 61.5 Q463 28 413.5 9.5 Q364 -9 305 -9 Q245 -9 200.5 10 Q156 29 129 62 Q102 95 91.5 140.5 Q81 186 89 240 L146 648 Q151 677 174 695.5 Q197 714 227 714 Q255 714 272.5 694.5 Q290 675 286 648 L229 240 Q221 186 243.5 152 Q266 118 323 118 Q380 118 411 152 Q442 186 450 240 L507 648 Q511 674 534 694 Q557 714 586 714 Q617 714 634.5 694 Q652 674 648 648 L591 240 L591 240 Z M478 831 Q483 825 483 815 Q483 789 465 773 Q447 757 424 757 Q407 757 399.5 762.5 Q392 768 382 778 L312 860 Q308 865 307 871.5 Q306 878 306 883 Q306 906 325 921.5 Q344 937 362 937 Q379 937 386 932 Q393 927 401 918 L407 910 L478 831 Z " />
<glyph glyph-name="Uacute" unicode="&#xda;" horiz-adv-x="612" d="M591 240 Q583 186 560 140.5 Q537 95 500 61.5 Q463 28 413.5 9.5 Q364 -9 305 -9 Q245 -9 200.5 10 Q156 29 129 62 Q102 95 91.5 140.5 Q81 186 89 240 L146 648 Q151 677 174 695.5 Q197 714 227 714 Q255 714 272.5 694.5 Q290 675 286 648 L229 240 Q221 186 243.5 152 Q266 118 323 118 Q380 118 411 152 Q442 186 450 240 L507 648 Q511 674 534 694 Q557 714 586 714 Q617 714 634.5 694 Q652 674 648 648 L591 240 L591 240 Z M469 910 L478 918 Q489 927 497 932 Q505 937 522 937 Q538 937 551 924.5 Q564 912 564 893 Q564 887 561.5 878.5 Q559 870 551 860 L458 778 Q445 768 436 762.5 Q427 757 410 757 Q390 757 377.5 768.5 Q365 780 365 800 Q365 812 368.5 818.5 Q372 825 377 831 L469 910 Z " />
<glyph glyph-name="Ucircumflex" unicode="&#xdb;" horiz-adv-x="612" d="M591 240 Q583 186 560 140.5 Q537 95 500 61.5 Q463 28 413.5 9.5 Q364 -9 305 -9 Q245 -9 200.5 10 Q156 29 129 62 Q102 95 91.5 140.5 Q81 186 89 240 L146 648 Q151 677 174 695.5 Q197 714 227 714 Q255 714 272.5 694.5 Q290 675 286 648 L229 240 Q221 186 243.5 152 Q266 118 323 118 Q380 118 411 152 Q442 186 450 240 L507 648 Q511 674 534 694 Q557 714 586 714 Q617 714 634.5 694 Q652 674 648 648 L591 240 L591 240 Z M434 916 Q446 916 454.5 912 Q463 908 469 903 L540 842 Q550 832 556 821 Q562 810 561 797 Q558 778 541 764.5 Q524 751 504 751 Q492 751 480.5 757.5 Q469 764 458.5 773.5 Q448 783 438.5 794 Q429 805 420 815 Q408 805 395 794 Q382 783 369 773.5 Q356 764 343 757.5 Q330 751 318 751 Q298 751 285 764.5 Q272 778 275 797 Q277 810 286 821 Q295 832 308 842 L395 903 Q403 908 412.5 912 Q422 916 434 916 Z " />
<glyph glyph-name="Udieresis" unicode="&#xdc;" horiz-adv-x="612" d="M591 240 Q583 186 560 140.5 Q537 95 500 61.5 Q463 28 413.5 9.5 Q364 -9 305 -9 Q245 -9 200.5 10 Q156 29 129 62 Q102 95 91.5 140.5 Q81 186 89 240 L146 648 Q151 677 174 695.5 Q197 714 227 714 Q255 714 272.5 694.5 Q290 675 286 648 L229 240 Q221 186 243.5 152 Q266 118 323 118 Q380 118 411 152 Q442 186 450 240 L507 648 Q511 674 534 694 Q557 714 586 714 Q617 714 634.5 694 Q652 674 648 648 L591 240 L591 240 Z M577 837 Q577 823 571 810 Q565 797 554.5 787.5 Q544 778 531 772.5 Q518 767 503 767 Q478 767 461.5 783.5 Q445 800 445 823 Q445 837 451 849.5 Q457 862 467.5 871 Q478 880 491.5 885.5 Q505 891 520 891 Q545 891 561 875.5 Q577 860 577 837 Z M398 837 Q398 808 375.5 787.5 Q353 767 323 767 Q298 767 282.5 783.5 Q267 800 267 823 Q267 850 289 870.5 Q311 891 340 891 Q366 891 382 875.5 Q398 860 398 837 Z " />
<glyph glyph-name="Yacute" unicode="&#xdd;" horiz-adv-x="530" d="M264 -9 Q234 -9 216 10.5 Q198 30 202 57 L233 276 L106 620 Q104 624 103.5 630 Q103 636 103 642 Q103 657 110 670 Q117 683 128.5 692.5 Q140 702 154.5 708 Q169 714 184 714 Q200 714 214.5 707 Q229 700 237 684 L327 436 L486 684 Q497 700 514 707 Q531 714 548 714 Q573 714 591.5 696.5 Q610 679 610 655 Q610 645 606 636.5 Q602 628 599 620 L375 276 L344 57 Q340 31 317 11 Q294 -9 264 -9 Z M431 910 L440 918 Q451 927 459 932 Q467 937 484 937 Q500 937 513 924.5 Q526 912 526 893 Q526 887 523.5 878.5 Q521 870 513 860 L420 778 Q407 768 398 762.5 Q389 757 372 757 Q352 757 339.5 768.5 Q327 780 327 800 Q327 812 330.5 818.5 Q334 825 339 831 L431 910 Z " />
<glyph glyph-name="Thorn" unicode="&#xde;" horiz-adv-x="570" d="M154 649 Q158 677 182 696 Q206 715 234 715 Q262 715 280 695 Q298 675 294 649 L285 586 L370 586 Q433 586 476 570.5 Q519 555 546 528.5 Q573 502 585 467 Q597 432 597 393 Q597 333 576 285.5 Q555 238 516.5 206 Q478 174 425 157 Q372 140 308 140 L223 140 L211 57 Q207 31 184 11 Q161 -9 132 -9 Q104 -9 85.5 10.5 Q67 30 71 57 L154 649 Z M241 267 L326 267 Q389 267 422 294 Q455 321 455 378 Q455 393 450.5 408 Q446 423 434.5 434 Q423 445 403 452 Q383 459 353 459 L268 459 L241 267 Z " />
<glyph glyph-name="germandbls" unicode="&#xdf;" horiz-adv-x="610" d="M203 4 Q199 -21 176.5 -39.5 Q154 -58 125 -58 Q96 -58 78.5 -39.5 Q61 -21 65 4 L133 488 Q148 595 214.5 655.5 Q281 716 390 716 Q432 716 467 706 Q502 696 527.5 676.5 Q553 657 567 628.5 Q581 600 581 562 Q581 519 566.5 487.5 Q552 456 531 433.5 Q510 411 485.5 396 Q461 381 441 371 Q436 369 433 366.5 Q430 364 438 360 Q468 345 495.5 330 Q523 315 544 296 Q565 277 577.5 252 Q590 227 590 194 Q590 145 569 108 Q548 71 513.5 46 Q479 21 434.5 8.5 Q390 -4 343 -4 Q312 -4 292 1.5 Q272 7 260 15.5 Q248 24 243 35 Q238 46 238 58 Q238 83 256 103 Q274 123 307 123 Q324 123 337 118.5 Q350 114 370 114 Q385 114 399.5 117.5 Q414 121 425.5 129.5 Q437 138 444 150.5 Q451 163 451 181 Q451 213 424.5 234.5 Q398 256 363 269 Q351 273 339 278.5 Q327 284 316.5 292 Q306 300 299.5 312.5 Q293 325 293 344 Q293 378 309.5 398 Q326 418 347 429 Q358 435 374 443 Q390 451 405 463 Q420 475 431 493.5 Q442 512 442 539 Q442 571 421.5 584.5 Q401 598 369 598 Q325 598 302 572.5 Q279 547 271 491 L203 4 L203 4 Z " />
<glyph glyph-name="agrave" unicode="&#xe0;" horiz-adv-x="533" d="M369 329 Q374 364 358.5 379.5 Q343 395 305 395 Q268 395 250 372 Q232 349 225 302 L209 189 Q198 109 263 109 Q293 109 343 130 Q343 135 343 139.5 Q343 144 344 149 L369 329 Z M227 -7 Q139 -7 99 47 Q59 101 71 189 L87 302 Q93 347 111.5 385.5 Q130 424 160.5 452.5 Q191 481 233 497 Q275 513 329 513 Q438 513 478 460.5 Q518 408 504 306 L478 120 Q476 109 478 103 Q480 97 484 94 Q488 91 493.5 90 Q499 89 505 86 Q523 78 523 56 Q523 29 505.5 12.5 Q488 -4 443 -4 Q415 -4 396.5 5 Q378 14 364 38 Q333 15 301 4 Q269 -7 227 -7 Z M446 631 Q451 625 451 615 Q451 589 433 573 Q415 557 392 557 Q375 557 367.5 562.5 Q360 568 350 578 L280 660 Q276 665 275 671.5 Q274 678 274 683 Q274 706 293 721.5 Q312 737 330 737 Q347 737 354 732 Q361 727 369 718 L375 710 L446 631 Z " />
<glyph glyph-name="aacute" unicode="&#xe1;" horiz-adv-x="533" d="M369 329 Q374 364 358.5 379.5 Q343 395 305 395 Q268 395 250 372 Q232 349 225 302 L209 189 Q198 109 263 109 Q293 109 343 130 Q343 135 343 139.5 Q343 144 344 149 L369 329 Z M227 -7 Q139 -7 99 47 Q59 101 71 189 L87 302 Q93 347 111.5 385.5 Q130 424 160.5 452.5 Q191 481 233 497 Q275 513 329 513 Q438 513 478 460.5 Q518 408 504 306 L478 120 Q476 109 478 103 Q480 97 484 94 Q488 91 493.5 90 Q499 89 505 86 Q523 78 523 56 Q523 29 505.5 12.5 Q488 -4 443 -4 Q415 -4 396.5 5 Q378 14 364 38 Q333 15 301 4 Q269 -7 227 -7 Z M367 710 L376 718 Q387 727 395 732 Q403 737 420 737 Q436 737 449 724.5 Q462 712 462 693 Q462 687 459.5 678.5 Q457 670 449 660 L356 578 Q343 568 334 562.5 Q325 557 308 557 Q288 557 275.5 568.5 Q263 580 263 600 Q263 612 266.5 618.5 Q270 625 275 631 L367 710 Z " />
<glyph glyph-name="acircumflex" unicode="&#xe2;" horiz-adv-x="533" d="M369 329 Q374 364 358.5 379.5 Q343 395 305 395 Q268 395 250 372 Q232 349 225 302 L209 189 Q198 109 263 109 Q293 109 343 130 Q343 135 343 139.5 Q343 144 344 149 L369 329 Z M227 -7 Q139 -7 99 47 Q59 101 71 189 L87 302 Q93 347 111.5 385.5 Q130 424 160.5 452.5 Q191 481 233 497 Q275 513 329 513 Q438 513 478 460.5 Q518 408 504 306 L478 120 Q476 109 478 103 Q480 97 484 94 Q488 91 493.5 90 Q499 89 505 86 Q523 78 523 56 Q523 29 505.5 12.5 Q488 -4 443 -4 Q415 -4 396.5 5 Q378 14 364 38 Q333 15 301 4 Q269 -7 227 -7 Z M372 716 Q384 716 392.5 712 Q401 708 407 703 L478 642 Q488 632 494 621 Q500 610 499 597 Q496 578 479 564.5 Q462 551 442 551 Q430 551 418.5 557.5 Q407 564 396.5 573.5 Q386 583 376.5 594 Q367 605 358 615 Q346 605 333 594 Q320 583 307 573.5 Q294 564 281 557.5 Q268 551 256 551 Q236 551 223 564.5 Q210 578 213 597 Q215 610 224 621 Q233 632 246 642 L333 703 Q341 708 350.5 712 Q360 716 372 716 Z " />
<glyph glyph-name="atilde" unicode="&#xe3;" horiz-adv-x="533" d="M369 329 Q374 364 358.5 379.5 Q343 395 305 395 Q268 395 250 372 Q232 349 225 302 L209 189 Q198 109 263 109 Q293 109 343 130 Q343 135 343 139.5 Q343 144 344 149 L369 329 Z M227 -7 Q139 -7 99 47 Q59 101 71 189 L87 302 Q93 347 111.5 385.5 Q130 424 160.5 452.5 Q191 481 233 497 Q275 513 329 513 Q438 513 478 460.5 Q518 408 504 306 L478 120 Q476 109 478 103 Q480 97 484 94 Q488 91 493.5 90 Q499 89 505 86 Q523 78 523 56 Q523 29 505.5 12.5 Q488 -4 443 -4 Q415 -4 396.5 5 Q378 14 364 38 Q333 15 301 4 Q269 -7 227 -7 Z M519 648 Q519 631 509 617 Q499 603 484 592.5 Q469 582 451 576 Q433 570 418 570 Q398 570 383 575.5 Q368 581 356 588.5 Q344 596 334 602 Q324 608 313 610 Q302 611 294.5 606 Q287 601 279.5 593.5 Q272 586 263.5 580 Q255 574 243 574 Q227 574 214.5 585 Q202 596 203 615 Q205 632 214.5 647 Q224 662 238 672.5 Q252 683 268.5 689 Q285 695 302 695 Q323 695 338 688.5 Q353 682 364.5 674.5 Q376 667 386 661 Q396 655 408 655 Q420 655 427 660.5 Q434 666 441 673 Q448 680 456 685.5 Q464 691 476 691 Q493 691 506 679 Q519 667 519 648 Z " />
<glyph glyph-name="adieresis" unicode="&#xe4;" horiz-adv-x="533" d="M369 329 Q374 364 358.5 379.5 Q343 395 305 395 Q268 395 250 372 Q232 349 225 302 L209 189 Q198 109 263 109 Q293 109 343 130 Q343 135 343 139.5 Q343 144 344 149 L369 329 Z M227 -7 Q139 -7 99 47 Q59 101 71 189 L87 302 Q93 347 111.5 385.5 Q130 424 160.5 452.5 Q191 481 233 497 Q275 513 329 513 Q438 513 478 460.5 Q518 408 504 306 L478 120 Q476 109 478 103 Q480 97 484 94 Q488 91 493.5 90 Q499 89 505 86 Q523 78 523 56 Q523 29 505.5 12.5 Q488 -4 443 -4 Q415 -4 396.5 5 Q378 14 364 38 Q333 15 301 4 Q269 -7 227 -7 Z M515 637 Q515 623 509 610 Q503 597 492.5 587.5 Q482 578 469 572.5 Q456 567 441 567 Q416 567 399.5 583.5 Q383 600 383 623 Q383 637 389 649.5 Q395 662 405.5 671 Q416 680 429.5 685.5 Q443 691 458 691 Q483 691 499 675.5 Q515 660 515 637 Z M336 637 Q336 608 313.5 587.5 Q291 567 261 567 Q236 567 220.5 583.5 Q205 600 205 623 Q205 650 227 670.5 Q249 691 278 691 Q304 691 320 675.5 Q336 660 336 637 Z " />
<glyph glyph-name="aring" unicode="&#xe5;" horiz-adv-x="533" d="M369 329 Q374 364 358.5 379.5 Q343 395 305 395 Q268 395 250 372 Q232 349 225 302 L209 189 Q198 109 263 109 Q293 109 343 130 Q343 135 343 139.5 Q343 144 344 149 L369 329 Z M227 -7 Q139 -7 99 47 Q59 101 71 189 L87 302 Q93 347 111.5 385.5 Q130 424 160.5 452.5 Q191 481 233 497 Q275 513 329 513 Q438 513 478 460.5 Q518 408 504 306 L478 120 Q476 109 478 103 Q480 97 484 94 Q488 91 493.5 90 Q499 89 505 86 Q523 78 523 56 Q523 29 505.5 12.5 Q488 -4 443 -4 Q415 -4 396.5 5 Q378 14 364 38 Q333 15 301 4 Q269 -7 227 -7 Z M474 657 Q474 632 463.5 609.5 Q453 587 436 570.5 Q419 554 396.5 544.5 Q374 535 349 535 Q306 535 279.5 562.5 Q253 590 253 631 Q253 656 263.5 678 Q274 700 291 716.5 Q308 733 331 743 Q354 753 379 753 Q421 753 447.5 725 Q474 697 474 657 Z M409 649 Q409 666 398 677.5 Q387 689 370 689 Q350 689 335 674 Q320 659 320 639 Q320 623 330.5 611.5 Q341 600 358 600 Q378 600 393.5 614.5 Q409 629 409 649 Z " />
<glyph glyph-name="ae" unicode="&#xe6;" horiz-adv-x="712" d="M527 181 Q511 181 492 182 Q473 183 456 185 L453 164 Q449 138 467 123 Q485 108 524 108 Q550 108 570.5 114 Q591 120 617 130 Q625 132 631.5 134 Q638 136 646 136 Q672 136 687.5 119.5 Q703 103 703 83 Q703 57 680 40 Q657 23 625 12.5 Q593 2 559 -2.5 Q525 -7 502 -7 Q410 -7 367 44 Q290 -7 197 -7 Q105 -7 65.5 37.5 Q26 82 37 155 L37 158 Q59 317 265 317 Q284 317 301.5 316 Q319 315 336 312 L338 329 Q348 398 271 398 Q251 398 235.5 393.5 Q220 389 204 382 Q198 380 188.5 376 Q179 372 165 372 Q137 372 125.5 388 Q114 404 114 422 Q114 446 130.5 463 Q147 480 173 491.5 Q199 503 232 508 Q265 513 297 513 Q391 513 428 463 Q456 486 494.5 499.5 Q533 513 581 513 Q666 513 708.5 473 Q751 433 751 366 Q751 324 738.5 290 Q726 256 699 231.5 Q672 207 629.5 194 Q587 181 527 181 Z M206 382 Q202 379 199 379 L205 382 L206 382 Z M613 351 Q613 375 599 385.5 Q585 396 559 396 Q524 396 503 381.5 Q482 367 478 341 L472 298 Q492 296 513.5 295 Q535 294 546 294 Q584 294 598.5 309.5 Q613 325 613 351 Z M320 197 Q280 205 249 205 Q206 205 191.5 191 Q177 177 174 157 L173 154 Q171 134 181.5 121.5 Q192 109 225 109 Q249 109 269 115 Q289 121 311 135 L320 197 Z " />
<glyph glyph-name="ccedilla" unicode="&#xe7;" horiz-adv-x="443" d="M357 -106 Q357 -154 320.5 -185 Q284 -216 228 -216 Q208 -216 188 -212.5 Q168 -209 152 -202.5 Q136 -196 126 -185.5 Q116 -175 116 -161 Q116 -146 126.5 -137 Q137 -128 154 -128 Q168 -128 187 -132.5 Q206 -137 226 -137 Q276 -137 276 -113 Q276 -102 264 -97 Q252 -92 223 -87 Q212 -85 203.5 -83 Q195 -81 189.5 -77 Q184 -73 182.5 -64.5 Q181 -56 184 -40 L196 -2 Q158 5 132 22 Q106 39 91 63.5 Q76 88 71 118.5 Q66 149 71 184 L90 319 Q96 359 113 394 Q130 429 159 454.5 Q188 480 229 495 Q270 510 324 510 Q345 510 372.5 507 Q400 504 424.5 495.5 Q449 487 466 471.5 Q483 456 483 431 Q483 422 480 411.5 Q477 401 469.5 392 Q462 383 448.5 377.5 Q435 372 413 372 Q405 372 398 373 Q391 374 381 378 Q366 384 352.5 389.5 Q339 395 316 395 Q274 395 253.5 374.5 Q233 354 228 319 L209 184 Q204 149 218.5 128.5 Q233 108 275 108 Q298 108 314 113.5 Q330 119 346 125 Q354 128 360 129.5 Q366 131 377 131 Q412 131 423.5 117 Q435 103 435 87 Q435 61 419 44 Q403 27 379 16.5 Q355 6 327 0.5 Q299 -5 274 -6 L267 -33 Q315 -37 336 -57 Q357 -77 357 -106 Z " />
<glyph glyph-name="egrave" unicode="&#xe8;" horiz-adv-x="485" d="M287 191 Q267 191 249.5 192.5 Q232 194 211 197 L206 164 Q202 138 219.5 123 Q237 108 278 108 Q302 108 324 113.5 Q346 119 372 130 Q375 132 382 134 Q389 136 402 136 Q434 136 445.5 120 Q457 104 457 88 Q457 59 434.5 41 Q412 23 379.5 12 Q347 1 312 -3 Q277 -7 252 -7 Q202 -7 165.5 6.5 Q129 20 105.5 43.5 Q82 67 73 99 Q64 131 69 168 L92 335 Q97 373 115.5 405.5 Q134 438 164 462 Q194 486 236 499.5 Q278 513 330 513 Q419 513 462 473 Q505 433 505 367 Q505 286 453.5 238.5 Q402 191 287 191 Z M367 361 Q367 385 353.5 395.5 Q340 406 314 406 Q278 406 257 388.5 Q236 371 231 341 L225 298 Q249 296 269 295 Q289 294 297 294 Q329 294 348 308.5 Q367 323 367 361 Z M417 631 Q422 625 422 615 Q422 589 404 573 Q386 557 363 557 Q346 557 338.5 562.5 Q331 568 321 578 L251 660 Q247 665 246 671.5 Q245 678 245 683 Q245 706 264 721.5 Q283 737 301 737 Q318 737 325 732 Q332 727 340 718 L346 710 L417 631 Z " />
<glyph glyph-name="eacute" unicode="&#xe9;" horiz-adv-x="485" d="M287 191 Q267 191 249.5 192.5 Q232 194 211 197 L206 164 Q202 138 219.5 123 Q237 108 278 108 Q302 108 324 113.5 Q346 119 372 130 Q375 132 382 134 Q389 136 402 136 Q434 136 445.5 120 Q457 104 457 88 Q457 59 434.5 41 Q412 23 379.5 12 Q347 1 312 -3 Q277 -7 252 -7 Q202 -7 165.5 6.5 Q129 20 105.5 43.5 Q82 67 73 99 Q64 131 69 168 L92 335 Q97 373 115.5 405.5 Q134 438 164 462 Q194 486 236 499.5 Q278 513 330 513 Q419 513 462 473 Q505 433 505 367 Q505 286 453.5 238.5 Q402 191 287 191 Z M367 361 Q367 385 353.5 395.5 Q340 406 314 406 Q278 406 257 388.5 Q236 371 231 341 L225 298 Q249 296 269 295 Q289 294 297 294 Q329 294 348 308.5 Q367 323 367 361 Z M384 710 L393 718 Q404 727 412 732 Q420 737 437 737 Q453 737 466 724.5 Q479 712 479 693 Q479 687 476.5 678.5 Q474 670 466 660 L373 578 Q360 568 351 562.5 Q342 557 325 557 Q305 557 292.5 568.5 Q280 580 280 600 Q280 612 283.5 618.5 Q287 625 292 631 L384 710 Z " />
<glyph glyph-name="ecircumflex" unicode="&#xea;" horiz-adv-x="485" d="M287 191 Q267 191 249.5 192.5 Q232 194 211 197 L206 164 Q202 138 219.5 123 Q237 108 278 108 Q302 108 324 113.5 Q346 119 372 130 Q375 132 382 134 Q389 136 402 136 Q434 136 445.5 120 Q457 104 457 88 Q457 59 434.5 41 Q412 23 379.5 12 Q347 1 312 -3 Q277 -7 252 -7 Q202 -7 165.5 6.5 Q129 20 105.5 43.5 Q82 67 73 99 Q64 131 69 168 L92 335 Q97 373 115.5 405.5 Q134 438 164 462 Q194 486 236 499.5 Q278 513 330 513 Q419 513 462 473 Q505 433 505 367 Q505 286 453.5 238.5 Q402 191 287 191 Z M367 361 Q367 385 353.5 395.5 Q340 406 314 406 Q278 406 257 388.5 Q236 371 231 341 L225 298 Q249 296 269 295 Q289 294 297 294 Q329 294 348 308.5 Q367 323 367 361 Z M353 716 Q365 716 373.5 712 Q382 708 388 703 L459 642 Q469 632 475 621 Q481 610 480 597 Q477 578 460 564.5 Q443 551 423 551 Q411 551 399.5 557.5 Q388 564 377.5 573.5 Q367 583 357.5 594 Q348 605 339 615 Q327 605 314 594 Q301 583 288 573.5 Q275 564 262 557.5 Q249 551 237 551 Q217 551 204 564.5 Q191 578 194 597 Q196 610 205 621 Q214 632 227 642 L314 703 Q322 708 331.5 712 Q341 716 353 716 Z " />
<glyph glyph-name="edieresis" unicode="&#xeb;" horiz-adv-x="485" d="M287 191 Q267 191 249.5 192.5 Q232 194 211 197 L206 164 Q202 138 219.5 123 Q237 108 278 108 Q302 108 324 113.5 Q346 119 372 130 Q375 132 382 134 Q389 136 402 136 Q434 136 445.5 120 Q457 104 457 88 Q457 59 434.5 41 Q412 23 379.5 12 Q347 1 312 -3 Q277 -7 252 -7 Q202 -7 165.5 6.5 Q129 20 105.5 43.5 Q82 67 73 99 Q64 131 69 168 L92 335 Q97 373 115.5 405.5 Q134 438 164 462 Q194 486 236 499.5 Q278 513 330 513 Q419 513 462 473 Q505 433 505 367 Q505 286 453.5 238.5 Q402 191 287 191 Z M367 361 Q367 385 353.5 395.5 Q340 406 314 406 Q278 406 257 388.5 Q236 371 231 341 L225 298 Q249 296 269 295 Q289 294 297 294 Q329 294 348 308.5 Q367 323 367 361 Z M486 637 Q486 623 480 610 Q474 597 463.5 587.5 Q453 578 440 572.5 Q427 567 412 567 Q387 567 370.5 583.5 Q354 600 354 623 Q354 637 360 649.5 Q366 662 376.5 671 Q387 680 400.5 685.5 Q414 691 429 691 Q454 691 470 675.5 Q486 660 486 637 Z M307 637 Q307 608 284.5 587.5 Q262 567 232 567 Q207 567 191.5 583.5 Q176 600 176 623 Q176 650 198 670.5 Q220 691 249 691 Q275 691 291 675.5 Q307 660 307 637 Z " />
<glyph glyph-name="igrave" unicode="&#xec;" horiz-adv-x="285" d="M136 449 Q140 474 162.5 492 Q185 510 214 510 Q243 510 260.5 492 Q278 474 274 449 L228 123 Q226 107 227 100 Q228 93 237 82 Q242 75 246 69.5 Q250 64 250 53 Q250 24 228 8.5 Q206 -7 167 -7 Q152 -7 135.5 -3.5 Q119 0 106.5 12.5 Q94 25 88 48.5 Q82 72 88 111 L136 449 Z M277 631 Q282 625 282 615 Q282 589 264 573 Q246 557 223 557 Q206 557 198.5 562.5 Q191 568 181 578 L111 660 Q107 665 106 671.5 Q105 678 105 683 Q105 706 124 721.5 Q143 737 161 737 Q178 737 185 732 Q192 727 200 718 L206 710 L277 631 Z " />
<glyph glyph-name="iacute" unicode="&#xed;" horiz-adv-x="285" d="M136 449 Q140 474 162.5 492 Q185 510 214 510 Q243 510 260.5 492 Q278 474 274 449 L228 123 Q226 107 227 100 Q228 93 237 82 Q242 75 246 69.5 Q250 64 250 53 Q250 24 228 8.5 Q206 -7 167 -7 Q152 -7 135.5 -3.5 Q119 0 106.5 12.5 Q94 25 88 48.5 Q82 72 88 111 L136 449 Z M281 710 L290 718 Q301 727 309 732 Q317 737 334 737 Q350 737 363 724.5 Q376 712 376 693 Q376 687 373.5 678.5 Q371 670 363 660 L270 578 Q257 568 248 562.5 Q239 557 222 557 Q202 557 189.5 568.5 Q177 580 177 600 Q177 612 180.5 618.5 Q184 625 189 631 L281 710 Z " />
<glyph glyph-name="icircumflex" unicode="&#xee;" horiz-adv-x="285" d="M136 449 Q140 474 162.5 492 Q185 510 214 510 Q243 510 260.5 492 Q278 474 274 449 L228 123 Q226 107 227 100 Q228 93 237 82 Q242 75 246 69.5 Q250 64 250 53 Q250 24 228 8.5 Q206 -7 167 -7 Q152 -7 135.5 -3.5 Q119 0 106.5 12.5 Q94 25 88 48.5 Q82 72 88 111 L136 449 Z M244 716 Q256 716 264.5 712 Q273 708 279 703 L350 642 Q360 632 366 621 Q372 610 371 597 Q368 578 351 564.5 Q334 551 314 551 Q302 551 290.5 557.5 Q279 564 268.5 573.5 Q258 583 248.5 594 Q239 605 230 615 Q218 605 205 594 Q192 583 179 573.5 Q166 564 153 557.5 Q140 551 128 551 Q108 551 95 564.5 Q82 578 85 597 Q87 610 96 621 Q105 632 118 642 L205 703 Q213 708 222.5 712 Q232 716 244 716 Z " />
<glyph glyph-name="idieresis" unicode="&#xef;" horiz-adv-x="285" d="M136 449 Q140 474 162.5 492 Q185 510 214 510 Q243 510 260.5 492 Q278 474 274 449 L228 123 Q226 107 227 100 Q228 93 237 82 Q242 75 246 69.5 Q250 64 250 53 Q250 24 228 8.5 Q206 -7 167 -7 Q152 -7 135.5 -3.5 Q119 0 106.5 12.5 Q94 25 88 48.5 Q82 72 88 111 L136 449 Z M387 637 Q387 623 381 610 Q375 597 364.5 587.5 Q354 578 341 572.5 Q328 567 313 567 Q288 567 271.5 583.5 Q255 600 255 623 Q255 637 261 649.5 Q267 662 277.5 671 Q288 680 301.5 685.5 Q315 691 330 691 Q355 691 371 675.5 Q387 660 387 637 Z M208 637 Q208 608 185.5 587.5 Q163 567 133 567 Q108 567 92.5 583.5 Q77 600 77 623 Q77 650 99 670.5 Q121 691 150 691 Q176 691 192 675.5 Q208 660 208 637 Z " />
<glyph glyph-name="eth" unicode="&#xf0;" horiz-adv-x="575" d="M632 684 Q633 684 634 683 Q636 681 636 676 Q636 667 632 658 Q628 649 618 643 L554 597 Q565 568 571 521 Q577 474 577 423 Q577 297 558.5 214 Q540 131 503.5 81.5 Q467 32 413.5 11.5 Q360 -9 290 -9 Q233 -9 191.5 5.5 Q150 20 123.5 45.5 Q97 71 84.5 106 Q72 141 72 182 Q72 234 88.5 281.5 Q105 329 137.5 365 Q170 401 216.5 422.5 Q263 444 323 444 Q346 444 376.5 438 Q407 432 437 414 Q439 445 438 469 Q437 493 434 511 L394 483 Q384 476 377.5 473.5 Q371 471 367 470 Q354 468 343 478 Q332 488 334 504 Q334 513 338 521.5 Q342 530 351 535 L403 573 Q390 585 373.5 589 Q357 593 340 595 Q330 596 320 597.5 Q310 599 302.5 605 Q295 611 292 622.5 Q289 634 294 654 Q297 667 302.5 677 Q308 687 318.5 694 Q329 701 345 704 Q361 707 386 707 Q471 707 519 654 L575 695 Q587 704 602 707 Q613 709 618.5 705.5 Q624 702 627 697 Q631 692 632 684 Z M424 290 Q404 306 372 316 Q340 326 314 326 Q268 326 240 291.5 Q212 257 212 200 Q212 162 232.5 136.5 Q253 111 302 111 Q329 111 348.5 120.5 Q368 130 382 150.5 Q396 171 405.5 202.5 Q415 234 422 278 L424 290 Z " />
<glyph glyph-name="ntilde" unicode="&#xf1;" horiz-adv-x="549" d="M389 316 Q394 354 380 375.5 Q366 397 336 397 Q305 397 256 376 Q256 371 256 366.5 Q256 362 255 357 L213 55 Q209 29 189.5 11.5 Q170 -6 135 -6 Q100 -6 85.5 11.5 Q71 29 75 55 L117 358 Q121 383 119 389 Q117 395 115 400 Q108 411 105.5 418 Q103 425 103 433 Q103 460 125.5 478.5 Q148 497 179 497 Q209 497 228 468 Q265 491 300.5 501 Q336 511 366 511 Q461 511 500.5 457.5 Q540 404 527 316 L500 123 Q498 107 499.5 100 Q501 93 510 82 Q515 75 519 69.5 Q523 64 523 53 Q523 24 501 8.5 Q479 -7 440 -7 Q425 -7 408.5 -3.5 Q392 0 379.5 12.5 Q367 25 361 48.5 Q355 72 361 111 L389 316 Z M509 648 Q509 631 499 617 Q489 603 474 592.5 Q459 582 441 576 Q423 570 408 570 Q388 570 373 575.5 Q358 581 346 588.5 Q334 596 324 602 Q314 608 303 610 Q292 611 284.5 606 Q277 601 269.5 593.5 Q262 586 253.5 580 Q245 574 233 574 Q217 574 204.5 585 Q192 596 193 615 Q195 632 204.5 647 Q214 662 228 672.5 Q242 683 258.5 689 Q275 695 292 695 Q313 695 328 688.5 Q343 682 354.5 674.5 Q366 667 376 661 Q386 655 398 655 Q410 655 417 660.5 Q424 666 431 673 Q438 680 446 685.5 Q454 691 466 691 Q483 691 496 679 Q509 667 509 648 Z " />
<glyph glyph-name="ograve" unicode="&#xf2;" horiz-adv-x="524" d="M261 -7 Q208 -7 169.5 7.5 Q131 22 107 47 Q83 72 73.5 106 Q64 140 70 179 L91 328 Q96 367 115 401 Q134 435 164.5 460 Q195 485 238 499.5 Q281 514 334 514 Q387 514 425.5 499.5 Q464 485 488 460 Q512 435 521 401 Q530 367 525 328 L504 179 Q498 140 479.5 106 Q461 72 430 47 Q399 22 356.5 7.5 Q314 -7 261 -7 Z M277 111 Q316 111 338.5 129 Q361 147 366 179 L387 329 Q392 360 374 378 Q356 396 317 396 Q278 396 256 378 Q234 360 229 329 L208 179 Q203 147 220.5 129 Q238 111 277 111 Z M403 631 Q408 625 408 615 Q408 589 390 573 Q372 557 349 557 Q332 557 324.5 562.5 Q317 568 307 578 L237 660 Q233 665 232 671.5 Q231 678 231 683 Q231 706 250 721.5 Q269 737 287 737 Q304 737 311 732 Q318 727 326 718 L332 710 L403 631 Z " />
<glyph glyph-name="oacute" unicode="&#xf3;" horiz-adv-x="524" d="M261 -7 Q208 -7 169.5 7.5 Q131 22 107 47 Q83 72 73.5 106 Q64 140 70 179 L91 328 Q96 367 115 401 Q134 435 164.5 460 Q195 485 238 499.5 Q281 514 334 514 Q387 514 425.5 499.5 Q464 485 488 460 Q512 435 521 401 Q530 367 525 328 L504 179 Q498 140 479.5 106 Q461 72 430 47 Q399 22 356.5 7.5 Q314 -7 261 -7 Z M277 111 Q316 111 338.5 129 Q361 147 366 179 L387 329 Q392 360 374 378 Q356 396 317 396 Q278 396 256 378 Q234 360 229 329 L208 179 Q203 147 220.5 129 Q238 111 277 111 Z M397 710 L406 718 Q417 727 425 732 Q433 737 450 737 Q466 737 479 724.5 Q492 712 492 693 Q492 687 489.5 678.5 Q487 670 479 660 L386 578 Q373 568 364 562.5 Q355 557 338 557 Q318 557 305.5 568.5 Q293 580 293 600 Q293 612 296.5 618.5 Q300 625 305 631 L397 710 Z " />
<glyph glyph-name="ocircumflex" unicode="&#xf4;" horiz-adv-x="524" d="M261 -7 Q208 -7 169.5 7.5 Q131 22 107 47 Q83 72 73.5 106 Q64 140 70 179 L91 328 Q96 367 115 401 Q134 435 164.5 460 Q195 485 238 499.5 Q281 514 334 514 Q387 514 425.5 499.5 Q464 485 488 460 Q512 435 521 401 Q530 367 525 328 L504 179 Q498 140 479.5 106 Q461 72 430 47 Q399 22 356.5 7.5 Q314 -7 261 -7 Z M277 111 Q316 111 338.5 129 Q361 147 366 179 L387 329 Q392 360 374 378 Q356 396 317 396 Q278 396 256 378 Q234 360 229 329 L208 179 Q203 147 220.5 129 Q238 111 277 111 Z M362 716 Q374 716 382.5 712 Q391 708 397 703 L468 642 Q478 632 484 621 Q490 610 489 597 Q486 578 469 564.5 Q452 551 432 551 Q420 551 408.5 557.5 Q397 564 386.5 573.5 Q376 583 366.5 594 Q357 605 348 615 Q336 605 323 594 Q310 583 297 573.5 Q284 564 271 557.5 Q258 551 246 551 Q226 551 213 564.5 Q200 578 203 597 Q205 610 214 621 Q223 632 236 642 L323 703 Q331 708 340.5 712 Q350 716 362 716 Z " />
<glyph glyph-name="otilde" unicode="&#xf5;" horiz-adv-x="524" d="M261 -7 Q208 -7 169.5 7.5 Q131 22 107 47 Q83 72 73.5 106 Q64 140 70 179 L91 328 Q96 367 115 401 Q134 435 164.5 460 Q195 485 238 499.5 Q281 514 334 514 Q387 514 425.5 499.5 Q464 485 488 460 Q512 435 521 401 Q530 367 525 328 L504 179 Q498 140 479.5 106 Q461 72 430 47 Q399 22 356.5 7.5 Q314 -7 261 -7 Z M277 111 Q316 111 338.5 129 Q361 147 366 179 L387 329 Q392 360 374 378 Q356 396 317 396 Q278 396 256 378 Q234 360 229 329 L208 179 Q203 147 220.5 129 Q238 111 277 111 Z M509 648 Q509 631 499 617 Q489 603 474 592.5 Q459 582 441 576 Q423 570 408 570 Q388 570 373 575.5 Q358 581 346 588.5 Q334 596 324 602 Q314 608 303 610 Q292 611 284.5 606 Q277 601 269.5 593.5 Q262 586 253.5 580 Q245 574 233 574 Q217 574 204.5 585 Q192 596 193 615 Q195 632 204.5 647 Q214 662 228 672.5 Q242 683 258.5 689 Q275 695 292 695 Q313 695 328 688.5 Q343 682 354.5 674.5 Q366 667 376 661 Q386 655 398 655 Q410 655 417 660.5 Q424 666 431 673 Q438 680 446 685.5 Q454 691 466 691 Q483 691 496 679 Q509 667 509 648 Z " />
<glyph glyph-name="odieresis" unicode="&#xf6;" horiz-adv-x="524" d="M261 -7 Q208 -7 169.5 7.5 Q131 22 107 47 Q83 72 73.5 106 Q64 140 70 179 L91 328 Q96 367 115 401 Q134 435 164.5 460 Q195 485 238 499.5 Q281 514 334 514 Q387 514 425.5 499.5 Q464 485 488 460 Q512 435 521 401 Q530 367 525 328 L504 179 Q498 140 479.5 106 Q461 72 430 47 Q399 22 356.5 7.5 Q314 -7 261 -7 Z M277 111 Q316 111 338.5 129 Q361 147 366 179 L387 329 Q392 360 374 378 Q356 396 317 396 Q278 396 256 378 Q234 360 229 329 L208 179 Q203 147 220.5 129 Q238 111 277 111 Z M505 637 Q505 623 499 610 Q493 597 482.5 587.5 Q472 578 459 572.5 Q446 567 431 567 Q406 567 389.5 583.5 Q373 600 373 623 Q373 637 379 649.5 Q385 662 395.5 671 Q406 680 419.5 685.5 Q433 691 448 691 Q473 691 489 675.5 Q505 660 505 637 Z M326 637 Q326 608 303.5 587.5 Q281 567 251 567 Q226 567 210.5 583.5 Q195 600 195 623 Q195 650 217 670.5 Q239 691 268 691 Q294 691 310 675.5 Q326 660 326 637 Z " />
<glyph glyph-name="oslash" unicode="&#xf8;" horiz-adv-x="524" d="M261 -7 Q184 -7 137 22 L111 -9 Q104 -17 93.5 -19 Q83 -21 75 -15 Q67 -9 66.5 1.5 Q66 12 73 21 L100 54 Q59 103 70 179 L91 328 Q97 367 115.5 401 Q134 435 165 460 Q196 485 238.5 499.5 Q281 514 334 514 Q411 514 461 483 L487 514 Q494 522 505 524.5 Q516 527 524 520 Q533 513 533.5 503 Q534 493 526 484 L497 450 Q515 425 522.5 394 Q530 363 525 328 L504 179 Q498 140 479.5 106 Q461 72 430 47 Q399 22 356.5 7.5 Q314 -7 261 -7 Z M208 182 L373 378 Q353 396 317 396 Q278 396 256 378 Q234 360 229 329 L208 182 Z M277 111 Q316 111 338.5 129 Q361 147 366 179 L385 317 L224 126 Q242 111 277 111 Z " />
<glyph glyph-name="ugrave" unicode="&#xf9;" horiz-adv-x="549" d="M393 37 Q354 12 318.5 2.5 Q283 -7 249 -7 Q158 -7 118 47 Q78 101 90 189 L127 450 Q131 476 151.5 493 Q172 510 205 510 Q238 510 253.5 493 Q269 476 265 450 L228 189 Q223 151 236 130 Q249 109 282 109 Q312 109 362 130 Q362 135 362 139.5 Q362 144 363 149 L405 450 Q409 476 428.5 493 Q448 510 483 510 Q518 510 532.5 493 Q547 476 543 450 L498 129 Q496 118 500 111 Q504 104 512 94 Q522 83 522 67 Q522 50 515 37.5 Q508 25 497.5 16.5 Q487 8 474 3.5 Q461 -1 449 -1 Q429 -1 415.5 9.5 Q402 20 393 37 Z M412 631 Q417 625 417 615 Q417 589 399 573 Q381 557 358 557 Q341 557 333.5 562.5 Q326 568 316 578 L246 660 Q242 665 241 671.5 Q240 678 240 683 Q240 706 259 721.5 Q278 737 296 737 Q313 737 320 732 Q327 727 335 718 L341 710 L412 631 Z " />
<glyph glyph-name="uacute" unicode="&#xfa;" horiz-adv-x="549" d="M393 37 Q354 12 318.5 2.5 Q283 -7 249 -7 Q158 -7 118 47 Q78 101 90 189 L127 450 Q131 476 151.5 493 Q172 510 205 510 Q238 510 253.5 493 Q269 476 265 450 L228 189 Q223 151 236 130 Q249 109 282 109 Q312 109 362 130 Q362 135 362 139.5 Q362 144 363 149 L405 450 Q409 476 428.5 493 Q448 510 483 510 Q518 510 532.5 493 Q547 476 543 450 L498 129 Q496 118 500 111 Q504 104 512 94 Q522 83 522 67 Q522 50 515 37.5 Q508 25 497.5 16.5 Q487 8 474 3.5 Q461 -1 449 -1 Q429 -1 415.5 9.5 Q402 20 393 37 Z M413 710 L422 718 Q433 727 441 732 Q449 737 466 737 Q482 737 495 724.5 Q508 712 508 693 Q508 687 505.5 678.5 Q503 670 495 660 L402 578 Q389 568 380 562.5 Q371 557 354 557 Q334 557 321.5 568.5 Q309 580 309 600 Q309 612 312.5 618.5 Q316 625 321 631 L413 710 Z " />
<glyph glyph-name="ucircumflex" unicode="&#xfb;" horiz-adv-x="549" d="M393 37 Q354 12 318.5 2.5 Q283 -7 249 -7 Q158 -7 118 47 Q78 101 90 189 L127 450 Q131 476 151.5 493 Q172 510 205 510 Q238 510 253.5 493 Q269 476 265 450 L228 189 Q223 151 236 130 Q249 109 282 109 Q312 109 362 130 Q362 135 362 139.5 Q362 144 363 149 L405 450 Q409 476 428.5 493 Q448 510 483 510 Q518 510 532.5 493 Q547 476 543 450 L498 129 Q496 118 500 111 Q504 104 512 94 Q522 83 522 67 Q522 50 515 37.5 Q508 25 497.5 16.5 Q487 8 474 3.5 Q461 -1 449 -1 Q429 -1 415.5 9.5 Q402 20 393 37 Z M374 716 Q386 716 394.5 712 Q403 708 409 703 L480 642 Q490 632 496 621 Q502 610 501 597 Q498 578 481 564.5 Q464 551 444 551 Q432 551 420.5 557.5 Q409 564 398.5 573.5 Q388 583 378.5 594 Q369 605 360 615 Q348 605 335 594 Q322 583 309 573.5 Q296 564 283 557.5 Q270 551 258 551 Q238 551 225 564.5 Q212 578 215 597 Q217 610 226 621 Q235 632 248 642 L335 703 Q343 708 352.5 712 Q362 716 374 716 Z " />
<glyph glyph-name="udieresis" unicode="&#xfc;" horiz-adv-x="549" d="M393 37 Q354 12 318.5 2.5 Q283 -7 249 -7 Q158 -7 118 47 Q78 101 90 189 L127 450 Q131 476 151.5 493 Q172 510 205 510 Q238 510 253.5 493 Q269 476 265 450 L228 189 Q223 151 236 130 Q249 109 282 109 Q312 109 362 130 Q362 135 362 139.5 Q362 144 363 149 L405 450 Q409 476 428.5 493 Q448 510 483 510 Q518 510 532.5 493 Q547 476 543 450 L498 129 Q496 118 500 111 Q504 104 512 94 Q522 83 522 67 Q522 50 515 37.5 Q508 25 497.5 16.5 Q487 8 474 3.5 Q461 -1 449 -1 Q429 -1 415.5 9.5 Q402 20 393 37 Z M518 637 Q518 623 512 610 Q506 597 495.5 587.5 Q485 578 472 572.5 Q459 567 444 567 Q419 567 402.5 583.5 Q386 600 386 623 Q386 637 392 649.5 Q398 662 408.5 671 Q419 680 432.5 685.5 Q446 691 461 691 Q486 691 502 675.5 Q518 660 518 637 Z M339 637 Q339 608 316.5 587.5 Q294 567 264 567 Q239 567 223.5 583.5 Q208 600 208 623 Q208 650 230 670.5 Q252 691 281 691 Q307 691 323 675.5 Q339 660 339 637 Z " />
<glyph glyph-name="yacute" unicode="&#xfd;" horiz-adv-x="549" d="M218 183 Q213 148 226 128 Q239 108 276 108 Q299 108 320.5 114 Q342 120 361 134 L406 450 Q409 476 428.5 493 Q448 510 483 510 Q518 510 532.5 493 Q547 476 544 450 L476 -33 Q470 -73 453 -108 Q436 -143 407 -168.5 Q378 -194 336.5 -209 Q295 -224 240 -224 Q219 -224 192 -220.5 Q165 -217 140.5 -208 Q116 -199 99 -184.5 Q82 -170 82 -149 Q82 -123 103.5 -104.5 Q125 -86 154 -86 Q159 -86 166.5 -87 Q174 -88 185 -92 Q199 -99 213 -104 Q227 -109 248 -109 Q291 -109 312 -89 Q333 -69 338 -33 L344 10 Q297 -6 244 -6 Q190 -6 155.5 8.5 Q121 23 102.5 48 Q84 73 79 107.5 Q74 142 80 183 L118 450 Q121 476 141.5 493 Q162 510 195 510 Q228 510 244 493 Q260 476 256 450 L218 183 Z M411 710 L420 718 Q431 727 439 732 Q447 737 464 737 Q480 737 493 724.5 Q506 712 506 693 Q506 687 503.5 678.5 Q501 670 493 660 L400 578 Q387 568 378 562.5 Q369 557 352 557 Q332 557 319.5 568.5 Q307 580 307 600 Q307 612 310.5 618.5 Q314 625 319 631 L411 710 Z " />
<glyph glyph-name="thorn" unicode="&#xfe;" horiz-adv-x="535" d="M223 145 Q250 117 300 117 Q337 117 355 132 Q373 147 377 174 L402 352 Q406 379 392 394 Q378 409 341 409 Q317 409 295 402 Q273 395 256 381 L223 145 Z M157 661 Q161 685 181.5 703.5 Q202 722 235 722 Q268 722 283 703.5 Q298 685 295 661 L270 485 Q296 499 322 506 Q348 513 383 513 Q431 513 463 500.5 Q495 488 513.5 465.5 Q532 443 538 412.5 Q544 382 539 347 L515 179 Q510 144 495.5 113.5 Q481 83 456.5 60.5 Q432 38 396.5 25.5 Q361 13 313 13 Q278 13 254.5 20 Q231 27 208 41 L180 -155 Q177 -179 156.5 -197.5 Q136 -216 103 -216 Q70 -216 54.5 -197.5 Q39 -179 42 -155 L157 661 Z " />
<glyph glyph-name="ydieresis" unicode="&#xff;" horiz-adv-x="549" d="M218 183 Q213 148 226 128 Q239 108 276 108 Q299 108 320.5 114 Q342 120 361 134 L406 450 Q409 476 428.5 493 Q448 510 483 510 Q518 510 532.5 493 Q547 476 544 450 L476 -33 Q470 -73 453 -108 Q436 -143 407 -168.5 Q378 -194 336.5 -209 Q295 -224 240 -224 Q219 -224 192 -220.5 Q165 -217 140.5 -208 Q116 -199 99 -184.5 Q82 -170 82 -149 Q82 -123 103.5 -104.5 Q125 -86 154 -86 Q159 -86 166.5 -87 Q174 -88 185 -92 Q199 -99 213 -104 Q227 -109 248 -109 Q291 -109 312 -89 Q333 -69 338 -33 L344 10 Q297 -6 244 -6 Q190 -6 155.5 8.5 Q121 23 102.5 48 Q84 73 79 107.5 Q74 142 80 183 L118 450 Q121 476 141.5 493 Q162 510 195 510 Q228 510 244 493 Q260 476 256 450 L218 183 Z M518 637 Q518 623 512 610 Q506 597 495.5 587.5 Q485 578 472 572.5 Q459 567 444 567 Q419 567 402.5 583.5 Q386 600 386 623 Q386 637 392 649.5 Q398 662 408.5 671 Q419 680 432.5 685.5 Q446 691 461 691 Q486 691 502 675.5 Q518 660 518 637 Z M339 637 Q339 608 316.5 587.5 Q294 567 264 567 Q239 567 223.5 583.5 Q208 600 208 623 Q208 650 230 670.5 Q252 691 281 691 Q307 691 323 675.5 Q339 660 339 637 Z " />
<glyph glyph-name="Amacron" unicode="&#x100;" horiz-adv-x="589" d="M158 38 Q147 16 125.5 3.5 Q104 -9 86 -9 Q59 -9 40.5 6.5 Q22 22 22 48 Q22 55 24.5 63.5 Q27 72 29 77 L304 646 Q318 675 338 694.5 Q358 714 394 714 Q430 714 445.5 695 Q461 676 467 646 L582 77 L582 66 Q582 32 558 11.5 Q534 -9 501 -9 Q481 -9 462.5 4 Q444 17 439 38 L418 139 L206 139 L158 38 Z M371 424 Q367 446 367 472.5 Q367 499 367 522 Q361 499 353 472.5 Q345 446 335 424 L258 253 L398 253 L371 424 Z M602 835 Q602 812 583 795.5 Q564 779 538 779 L269 779 Q247 779 233 791.5 Q219 804 219 824 Q219 847 238.5 864 Q258 881 284 881 L553 881 Q574 881 588 868 Q602 855 602 835 Z " />
<glyph glyph-name="amacron" unicode="&#x101;" horiz-adv-x="533" d="M369 329 Q374 364 358.5 379.5 Q343 395 305 395 Q268 395 250 372 Q232 349 225 302 L209 189 Q198 109 263 109 Q293 109 343 130 Q343 135 343 139.5 Q343 144 344 149 L369 329 Z M227 -7 Q139 -7 99 47 Q59 101 71 189 L87 302 Q93 347 111.5 385.5 Q130 424 160.5 452.5 Q191 481 233 497 Q275 513 329 513 Q438 513 478 460.5 Q518 408 504 306 L478 120 Q476 109 478 103 Q480 97 484 94 Q488 91 493.5 90 Q499 89 505 86 Q523 78 523 56 Q523 29 505.5 12.5 Q488 -4 443 -4 Q415 -4 396.5 5 Q378 14 364 38 Q333 15 301 4 Q269 -7 227 -7 Z M552 635 Q552 612 533 595.5 Q514 579 488 579 L219 579 Q197 579 183 591.5 Q169 604 169 624 Q169 647 188.5 664 Q208 681 234 681 L503 681 Q524 681 538 668 Q552 655 552 635 Z " />
<glyph glyph-name="Abreve" unicode="&#x102;" horiz-adv-x="589" d="M158 38 Q147 16 125.5 3.5 Q104 -9 86 -9 Q59 -9 40.5 6.5 Q22 22 22 48 Q22 55 24.5 63.5 Q27 72 29 77 L304 646 Q318 675 338 694.5 Q358 714 394 714 Q430 714 445.5 695 Q461 676 467 646 L582 77 L582 66 Q582 32 558 11.5 Q534 -9 501 -9 Q481 -9 462.5 4 Q444 17 439 38 L418 139 L206 139 L158 38 Z M371 424 Q367 446 367 472.5 Q367 499 367 522 Q361 499 353 472.5 Q345 446 335 424 L258 253 L398 253 L371 424 Z M413 845 Q427 845 443.5 852.5 Q460 860 476 876 Q499 899 526 899 Q546 899 560 885.5 Q574 872 562 843 Q553 821 534 804.5 Q515 788 492 776.5 Q469 765 444.5 759 Q420 753 400 753 Q380 753 357.5 759 Q335 765 315.5 776.5 Q296 788 281.5 804.5 Q267 821 264 843 Q262 857 266 867.5 Q270 878 277.5 885 Q285 892 295.5 895.5 Q306 899 316 899 Q342 899 358 877 Q369 861 384 853 Q399 845 413 845 Z " />
<glyph glyph-name="abreve" unicode="&#x103;" horiz-adv-x="533" d="M369 329 Q374 364 358.5 379.5 Q343 395 305 395 Q268 395 250 372 Q232 349 225 302 L209 189 Q198 109 263 109 Q293 109 343 130 Q343 135 343 139.5 Q343 144 344 149 L369 329 Z M227 -7 Q139 -7 99 47 Q59 101 71 189 L87 302 Q93 347 111.5 385.5 Q130 424 160.5 452.5 Q191 481 233 497 Q275 513 329 513 Q438 513 478 460.5 Q518 408 504 306 L478 120 Q476 109 478 103 Q480 97 484 94 Q488 91 493.5 90 Q499 89 505 86 Q523 78 523 56 Q523 29 505.5 12.5 Q488 -4 443 -4 Q415 -4 396.5 5 Q378 14 364 38 Q333 15 301 4 Q269 -7 227 -7 Z M363 645 Q377 645 393.5 652.5 Q410 660 426 676 Q449 699 476 699 Q496 699 510 685.5 Q524 672 512 643 Q503 621 484 604.5 Q465 588 442 576.5 Q419 565 394.5 559 Q370 553 350 553 Q330 553 307.5 559 Q285 565 265.5 576.5 Q246 588 231.5 604.5 Q217 621 214 643 Q212 657 216 667.5 Q220 678 227.5 685 Q235 692 245.5 695.5 Q256 699 266 699 Q292 699 308 677 Q319 661 334 653 Q349 645 363 645 Z " />
<glyph glyph-name="Aogonek" unicode="&#x104;" horiz-adv-x="589" d="M602 -161 Q602 -180 591.5 -191.5 Q581 -203 565.5 -209 Q550 -215 532 -217 Q514 -219 499 -219 Q450 -219 420.5 -198 Q391 -177 391 -132 Q391 -98 409.5 -62 Q428 -26 456 9 Q450 15 445.5 22 Q441 29 439 38 L418 139 L206 139 L158 38 Q147 16 125.5 3.5 Q104 -9 86 -9 Q59 -9 40.5 6.5 Q22 22 22 48 Q22 55 24.5 63.5 Q27 72 29 77 L304 646 Q318 675 338 694.5 Q358 714 394 714 Q430 714 445.5 695 Q461 676 467 646 L582 77 L582 66 Q582 47 575 35 Q568 23 559 12 Q548 0 537 -15.5 Q526 -31 517 -47 Q508 -63 502.5 -78.5 Q497 -94 497 -106 Q497 -115 502.5 -121 Q508 -127 520 -127 Q528 -127 537 -125 Q546 -123 554 -123 L563 -123 Q580 -123 591 -134.5 Q602 -146 602 -161 Z M371 424 Q367 446 367 472.5 Q367 499 367 522 Q361 499 353 472.5 Q345 446 335 424 L258 253 L398 253 L371 424 Z " />
<glyph glyph-name="aogonek" unicode="&#x105;" horiz-adv-x="533" d="M366 31 Q349 26 333 19.5 Q317 13 300.5 7 Q284 1 266 -3 Q248 -7 227 -7 Q139 -7 99 47 Q59 101 71 189 L87 302 Q93 347 111.5 385.5 Q130 424 160.5 452.5 Q191 481 233 497 Q275 513 329 513 Q438 513 478 460.5 Q518 408 504 306 L478 120 Q476 109 478 103 Q480 97 484 94 Q488 91 493.5 90 Q499 89 505 86 Q523 78 523 56 Q523 41 517 30 Q511 19 502 10 Q490 -2 478 -16.5 Q466 -31 456.5 -47 Q447 -63 441 -78 Q435 -93 435 -106 Q435 -115 440.5 -121 Q446 -127 458 -127 Q466 -127 475 -125 Q484 -123 492 -123 L501 -123 Q518 -123 529 -134.5 Q540 -146 540 -161 Q540 -180 529.5 -191.5 Q519 -203 503.5 -209 Q488 -215 470 -217 Q452 -219 437 -219 Q388 -219 358.5 -198 Q329 -177 329 -132 Q329 -99 349 -64 Q369 -29 399 3 Q388 8 379 20 Q370 32 366 31 Z M369 329 Q374 364 358.5 379.5 Q343 395 305 395 Q268 395 250 372 Q232 349 225 302 L209 189 Q198 109 263 109 Q293 109 343 130 Q343 135 343 139.5 Q343 144 344 149 L369 329 Z " />
<glyph glyph-name="Cacute" unicode="&#x106;" horiz-adv-x="522" d="M210 254 Q205 222 208 196 Q211 170 222.5 152 Q234 134 255.5 124 Q277 114 311 114 Q335 114 355.5 120.5 Q376 127 396 138 L408 144 Q419 149 427.5 154 Q436 159 453 159 Q479 159 495 143 Q511 127 511 105 Q511 82 492 61.5 Q473 41 441.5 25.5 Q410 10 370 1 Q330 -8 288 -8 Q222 -8 177 10.5 Q132 29 105.5 63.5 Q79 98 70.5 146.5 Q62 195 70 254 L98 452 Q106 511 128 559.5 Q150 608 186.5 642.5 Q223 677 273.5 695.5 Q324 714 390 714 Q428 714 463 706 Q498 698 524.5 684 Q551 670 566.5 652 Q582 634 582 613 Q582 587 560 567 Q538 547 507 547 Q490 547 482.5 551.5 Q475 556 466 562 L457 568 Q440 579 421 585.5 Q402 592 378 592 Q310 592 278.5 554 Q247 516 238 452 L210 254 Z M437 910 L446 918 Q457 927 465 932 Q473 937 490 937 Q506 937 519 924.5 Q532 912 532 893 Q532 887 529.5 878.5 Q527 870 519 860 L426 778 Q413 768 404 762.5 Q395 757 378 757 Q358 757 345.5 768.5 Q333 780 333 800 Q333 812 336.5 818.5 Q340 825 345 831 L437 910 Z " />
<glyph glyph-name="cacute" unicode="&#x107;" horiz-adv-x="443" d="M90 319 Q96 359 113 394 Q130 429 159 454.5 Q188 480 229 495 Q270 510 324 510 Q345 510 372.5 507 Q400 504 424.5 495.5 Q449 487 466 471.5 Q483 456 483 431 Q483 422 480 411.5 Q477 401 469.5 392 Q462 383 448.5 377.5 Q435 372 413 372 Q405 372 398 373 Q391 374 381 378 Q366 384 352.5 389.5 Q339 395 316 395 Q274 395 253.5 374.5 Q233 354 228 319 L209 184 Q204 149 218.5 128.5 Q233 108 275 108 Q298 108 314 113.5 Q330 119 346 125 Q354 128 360.5 129.5 Q367 131 378 131 Q412 131 423.5 117 Q435 103 435 87 Q435 58 415 39.5 Q395 21 366 10.5 Q337 0 305.5 -3.5 Q274 -7 250 -7 Q197 -7 160.5 8 Q124 23 102 48.5 Q80 74 72.5 109 Q65 144 71 184 L90 319 Z M362 710 L371 718 Q382 727 390 732 Q398 737 415 737 Q431 737 444 724.5 Q457 712 457 693 Q457 687 454.5 678.5 Q452 670 444 660 L351 578 Q338 568 329 562.5 Q320 557 303 557 Q283 557 270.5 568.5 Q258 580 258 600 Q258 612 261.5 618.5 Q265 625 270 631 L362 710 Z " />
<glyph glyph-name="Ccircumflex" unicode="&#x108;" horiz-adv-x="522" d="M210 254 Q205 222 208 196 Q211 170 222.5 152 Q234 134 255.5 124 Q277 114 311 114 Q335 114 355.5 120.5 Q376 127 396 138 L408 144 Q419 149 427.5 154 Q436 159 453 159 Q479 159 495 143 Q511 127 511 105 Q511 82 492 61.5 Q473 41 441.5 25.5 Q410 10 370 1 Q330 -8 288 -8 Q222 -8 177 10.5 Q132 29 105.5 63.5 Q79 98 70.5 146.5 Q62 195 70 254 L98 452 Q106 511 128 559.5 Q150 608 186.5 642.5 Q223 677 273.5 695.5 Q324 714 390 714 Q428 714 463 706 Q498 698 524.5 684 Q551 670 566.5 652 Q582 634 582 613 Q582 587 560 567 Q538 547 507 547 Q490 547 482.5 551.5 Q475 556 466 562 L457 568 Q440 579 421 585.5 Q402 592 378 592 Q310 592 278.5 554 Q247 516 238 452 L210 254 Z M425 916 Q437 916 445.5 912 Q454 908 460 903 L531 842 Q541 832 547 821 Q553 810 552 797 Q549 778 532 764.5 Q515 751 495 751 Q483 751 471.5 757.5 Q460 764 449.5 773.5 Q439 783 429.5 794 Q420 805 411 815 Q399 805 386 794 Q373 783 360 773.5 Q347 764 334 757.5 Q321 751 309 751 Q289 751 276 764.5 Q263 778 266 797 Q268 810 277 821 Q286 832 299 842 L386 903 Q394 908 403.5 912 Q413 916 425 916 Z " />
<glyph glyph-name="ccircumflex" unicode="&#x109;" horiz-adv-x="443" d="M90 319 Q96 359 113 394 Q130 429 159 454.5 Q188 480 229 495 Q270 510 324 510 Q345 510 372.5 507 Q400 504 424.5 495.5 Q449 487 466 471.5 Q483 456 483 431 Q483 422 480 411.5 Q477 401 469.5 392 Q462 383 448.5 377.5 Q435 372 413 372 Q405 372 398 373 Q391 374 381 378 Q366 384 352.5 389.5 Q339 395 316 395 Q274 395 253.5 374.5 Q233 354 228 319 L209 184 Q204 149 218.5 128.5 Q233 108 275 108 Q298 108 314 113.5 Q330 119 346 125 Q354 128 360.5 129.5 Q367 131 378 131 Q412 131 423.5 117 Q435 103 435 87 Q435 58 415 39.5 Q395 21 366 10.5 Q337 0 305.5 -3.5 Q274 -7 250 -7 Q197 -7 160.5 8 Q124 23 102 48.5 Q80 74 72.5 109 Q65 144 71 184 L90 319 Z M355 716 Q367 716 375.5 712 Q384 708 390 703 L461 642 Q471 632 477 621 Q483 610 482 597 Q479 578 462 564.5 Q445 551 425 551 Q413 551 401.5 557.5 Q390 564 379.5 573.5 Q369 583 359.5 594 Q350 605 341 615 Q329 605 316 594 Q303 583 290 573.5 Q277 564 264 557.5 Q251 551 239 551 Q219 551 206 564.5 Q193 578 196 597 Q198 610 207 621 Q216 632 229 642 L316 703 Q324 708 333.5 712 Q343 716 355 716 Z " />
<glyph glyph-name="Cdotaccent" unicode="&#x10a;" horiz-adv-x="522" d="M210 254 Q205 222 208 196 Q211 170 222.5 152 Q234 134 255.5 124 Q277 114 311 114 Q335 114 355.5 120.5 Q376 127 396 138 L408 144 Q419 149 427.5 154 Q436 159 453 159 Q479 159 495 143 Q511 127 511 105 Q511 82 492 61.5 Q473 41 441.5 25.5 Q410 10 370 1 Q330 -8 288 -8 Q222 -8 177 10.5 Q132 29 105.5 63.5 Q79 98 70.5 146.5 Q62 195 70 254 L98 452 Q106 511 128 559.5 Q150 608 186.5 642.5 Q223 677 273.5 695.5 Q324 714 390 714 Q428 714 463 706 Q498 698 524.5 684 Q551 670 566.5 652 Q582 634 582 613 Q582 587 560 567 Q538 547 507 547 Q490 547 482.5 551.5 Q475 556 466 562 L457 568 Q440 579 421 585.5 Q402 592 378 592 Q310 592 278.5 554 Q247 516 238 452 L210 254 Z M441 822 Q441 793 418.5 772.5 Q396 752 366 752 Q341 752 325.5 768.5 Q310 785 310 808 Q310 835 332 855.5 Q354 876 383 876 Q409 876 425 860.5 Q441 845 441 822 Z " />
<glyph glyph-name="cdotaccent" unicode="&#x10b;" horiz-adv-x="443" d="M90 319 Q96 359 113 394 Q130 429 159 454.5 Q188 480 229 495 Q270 510 324 510 Q345 510 372.5 507 Q400 504 424.5 495.5 Q449 487 466 471.5 Q483 456 483 431 Q483 422 480 411.5 Q477 401 469.5 392 Q462 383 448.5 377.5 Q435 372 413 372 Q405 372 398 373 Q391 374 381 378 Q366 384 352.5 389.5 Q339 395 316 395 Q274 395 253.5 374.5 Q233 354 228 319 L209 184 Q204 149 218.5 128.5 Q233 108 275 108 Q298 108 314 113.5 Q330 119 346 125 Q354 128 360.5 129.5 Q367 131 378 131 Q412 131 423.5 117 Q435 103 435 87 Q435 58 415 39.5 Q395 21 366 10.5 Q337 0 305.5 -3.5 Q274 -7 250 -7 Q197 -7 160.5 8 Q124 23 102 48.5 Q80 74 72.5 109 Q65 144 71 184 L90 319 Z M373 622 Q373 593 350.5 572.5 Q328 552 298 552 Q273 552 257.5 568.5 Q242 585 242 608 Q242 635 264 655.5 Q286 676 315 676 Q341 676 357 660.5 Q373 645 373 622 Z " />
<glyph glyph-name="Ccaron" unicode="&#x10c;" horiz-adv-x="522" d="M210 254 Q205 222 208 196 Q211 170 222.5 152 Q234 134 255.5 124 Q277 114 311 114 Q335 114 355.5 120.5 Q376 127 396 138 L408 144 Q419 149 427.5 154 Q436 159 453 159 Q479 159 495 143 Q511 127 511 105 Q511 82 492 61.5 Q473 41 441.5 25.5 Q410 10 370 1 Q330 -8 288 -8 Q222 -8 177 10.5 Q132 29 105.5 63.5 Q79 98 70.5 146.5 Q62 195 70 254 L98 452 Q106 511 128 559.5 Q150 608 186.5 642.5 Q223 677 273.5 695.5 Q324 714 390 714 Q428 714 463 706 Q498 698 524.5 684 Q551 670 566.5 652 Q582 634 582 613 Q582 587 560 567 Q538 547 507 547 Q490 547 482.5 551.5 Q475 556 466 562 L457 568 Q440 579 421 585.5 Q402 592 378 592 Q310 592 278.5 554 Q247 516 238 452 L210 254 Z M409 851 L474 903 Q482 909 494 912 Q506 915 512 915 Q530 915 542.5 903 Q555 891 555 874 Q555 859 545 847 Q535 835 521 824 L434 763 Q427 758 417 754 Q407 750 395 750 Q383 750 373.5 754 Q364 758 359 763 L289 824 Q280 833 274 843.5 Q268 854 268 865 Q268 885 285.5 900 Q303 915 324 915 Q330 915 341 912 Q352 909 358 903 L409 851 Z " />
<glyph glyph-name="ccaron" unicode="&#x10d;" horiz-adv-x="443" d="M90 319 Q96 359 113 394 Q130 429 159 454.5 Q188 480 229 495 Q270 510 324 510 Q345 510 372.5 507 Q400 504 424.5 495.5 Q449 487 466 471.5 Q483 456 483 431 Q483 422 480 411.5 Q477 401 469.5 392 Q462 383 448.5 377.5 Q435 372 413 372 Q405 372 398 373 Q391 374 381 378 Q366 384 352.5 389.5 Q339 395 316 395 Q274 395 253.5 374.5 Q233 354 228 319 L209 184 Q204 149 218.5 128.5 Q233 108 275 108 Q298 108 314 113.5 Q330 119 346 125 Q354 128 360.5 129.5 Q367 131 378 131 Q412 131 423.5 117 Q435 103 435 87 Q435 58 415 39.5 Q395 21 366 10.5 Q337 0 305.5 -3.5 Q274 -7 250 -7 Q197 -7 160.5 8 Q124 23 102 48.5 Q80 74 72.5 109 Q65 144 71 184 L90 319 Z M344 651 L409 703 Q417 709 429 712 Q441 715 447 715 Q465 715 477.5 703 Q490 691 490 674 Q490 659 480 647 Q470 635 456 624 L369 563 Q362 558 352 554 Q342 550 330 550 Q318 550 308.5 554 Q299 558 294 563 L224 624 Q215 633 209 643.5 Q203 654 203 665 Q203 685 220.5 700 Q238 715 259 715 Q265 715 276 712 Q287 709 293 703 L344 651 Z " />
<glyph glyph-name="Dcaron" unicode="&#x10e;" horiz-adv-x="594" d="M596 271 Q589 218 566.5 169 Q544 120 503 82.5 Q462 45 400.5 22.5 Q339 0 254 0 L141 0 Q125 0 112 6 Q99 12 89.5 21.5 Q80 31 75.5 44 Q71 57 73 72 L152 634 Q154 649 162 662 Q170 675 182.5 684.5 Q195 694 210 700 Q225 706 241 706 L354 706 Q439 706 494 684.5 Q549 663 579.5 626.5 Q610 590 619 542.5 Q628 495 621 443 L596 271 Z M481 443 Q485 471 481 496 Q477 521 462 539.5 Q447 558 420 568.5 Q393 579 353 579 L285 579 L221 127 L289 127 Q330 127 360 138.5 Q390 150 410 169.5 Q430 189 441 215 Q452 241 456 271 L481 443 Z M417 851 L482 903 Q490 909 502 912 Q514 915 520 915 Q538 915 550.5 903 Q563 891 563 874 Q563 859 553 847 Q543 835 529 824 L442 763 Q435 758 425 754 Q415 750 403 750 Q391 750 381.5 754 Q372 758 367 763 L297 824 Q288 833 282 843.5 Q276 854 276 865 Q276 885 293.5 900 Q311 915 332 915 Q338 915 349 912 Q360 909 366 903 L417 851 Z " />
<glyph glyph-name="dcaron" unicode="&#x10f;" horiz-adv-x="710" d="M306 509 Q329 509 347.5 505 Q366 501 392 490 L416 661 Q420 687 440 704.5 Q460 722 493 722 Q526 722 542 704 Q558 686 554 661 L479 129 Q477 118 481 111 Q485 104 493 94 Q503 83 503 67 Q503 50 496 37.5 Q489 25 478.5 16.5 Q468 8 454.5 3.5 Q441 -1 429 -1 Q410 -1 396.5 9.5 Q383 20 374 37 Q334 17 299.5 5 Q265 -7 227 -7 Q139 -7 99 47 Q59 101 71 189 L87 302 Q93 347 108 384.5 Q123 422 149 450 Q175 478 213.5 493.5 Q252 509 306 509 Z M377 382 Q354 389 336 392 Q318 395 305 395 Q268 395 250 372 Q232 349 225 302 L209 189 Q198 109 263 109 Q293 109 343 130 Q343 135 343 139.5 Q343 144 344 149 L377 382 Z M614 484 Q617 496 622.5 505.5 Q628 515 634.5 524.5 Q641 534 647.5 545 Q654 556 660 573 Q634 578 619 597 Q604 616 604 640 Q604 657 612 672.5 Q620 688 633 699.5 Q646 711 663.5 718 Q681 725 700 725 Q730 725 751 705.5 Q772 686 772 654 Q772 640 766.5 619 Q761 598 752 574 Q743 550 730.5 526 Q718 502 704.5 482.5 Q691 463 676.5 451 Q662 439 649 439 Q643 439 635.5 440.5 Q628 442 622 447 Q616 452 613 460.5 Q610 469 614 484 Z " />
<glyph glyph-name="Dcroat" unicode="&#x110;" horiz-adv-x="616" d="M619 271 Q611 218 589 169 Q567 120 526 82.5 Q485 45 423.5 22.5 Q362 0 277 0 L164 0 Q148 0 135 6 Q122 12 112.5 21.5 Q103 31 98.5 44 Q94 57 96 72 L127 292 L118 292 Q92 292 75.5 307.5 Q59 323 59 346 Q59 373 81.5 394 Q104 415 135 415 L144 415 L175 633 Q177 648 185 661 Q193 674 205 683.5 Q217 693 232 699 Q247 705 263 705 L376 705 Q461 705 516 683.5 Q571 662 601.5 626 Q632 590 641 542.5 Q650 495 643 443 L619 271 Z M442 359 Q442 332 419.5 312 Q397 292 367 292 L267 292 L244 127 L312 127 Q353 127 383 138.5 Q413 150 433 169.5 Q453 189 464 215 Q475 241 479 271 L503 443 Q507 471 503 496 Q499 521 484 539 Q469 557 442 567.5 Q415 578 375 578 L307 578 L284 415 L384 415 Q410 415 426 398.5 Q442 382 442 359 Z " />
<glyph glyph-name="dcroat" unicode="&#x111;" horiz-adv-x="592" d="M306 509 Q329 509 347.5 505 Q366 501 392 490 L400 549 L324 549 Q306 549 294.5 561.5 Q283 574 283 592 Q283 615 300 631.5 Q317 648 338 648 L414 648 L416 661 Q420 687 440 704.5 Q460 722 493 722 Q526 722 542 704 Q558 686 554 661 L552 648 L617 648 Q634 648 645 635 Q656 622 656 604 Q656 582 639.5 565.5 Q623 549 603 549 L538 549 L479 129 Q477 118 481 111 Q485 104 493 94 Q503 83 503 67 Q503 50 496 37.5 Q489 25 478.5 16.5 Q468 8 454.5 3.5 Q441 -1 429 -1 Q410 -1 396.5 9.5 Q383 20 374 37 Q334 17 299.5 5 Q265 -7 227 -7 Q139 -7 99 47 Q59 101 71 189 L87 302 Q93 347 108 384.5 Q123 422 149 450 Q175 478 213.5 493.5 Q252 509 306 509 Z M377 382 Q354 389 336 392 Q318 395 305 395 Q268 395 250 372 Q232 349 225 302 L209 189 Q198 109 263 109 Q293 109 343 130 Q343 135 343 139.5 Q343 144 344 149 L377 382 Z " />
<glyph glyph-name="Emacron" unicode="&#x112;" horiz-adv-x="514" d="M500 71 Q500 42 476 21 Q452 0 421 0 L156 0 Q138 0 121.5 3.5 Q105 7 93 15 Q81 23 75.5 37 Q70 51 73 71 L152 634 Q154 647 161.5 660 Q169 673 181 683 Q193 693 207.5 699 Q222 705 239 705 L510 705 Q536 705 553.5 687.5 Q571 670 571 647 Q571 617 547 597.5 Q523 578 492 578 L284 578 L261 417 L450 417 Q475 417 493 401 Q511 385 511 360 Q511 331 487.5 310.5 Q464 290 432 290 L243 290 L220 127 L438 127 Q464 127 482 110.5 Q500 94 500 71 Z M565 835 Q565 812 546 795.5 Q527 779 501 779 L232 779 Q210 779 196 791.5 Q182 804 182 824 Q182 847 201.5 864 Q221 881 247 881 L516 881 Q537 881 551 868 Q565 855 565 835 Z " />
<glyph glyph-name="emacron" unicode="&#x113;" horiz-adv-x="485" d="M287 191 Q267 191 249.5 192.5 Q232 194 211 197 L206 164 Q202 138 219.5 123 Q237 108 278 108 Q302 108 324 113.5 Q346 119 372 130 Q375 132 382 134 Q389 136 402 136 Q434 136 445.5 120 Q457 104 457 88 Q457 59 434.5 41 Q412 23 379.5 12 Q347 1 312 -3 Q277 -7 252 -7 Q202 -7 165.5 6.5 Q129 20 105.5 43.5 Q82 67 73 99 Q64 131 69 168 L92 335 Q97 373 115.5 405.5 Q134 438 164 462 Q194 486 236 499.5 Q278 513 330 513 Q419 513 462 473 Q505 433 505 367 Q505 286 453.5 238.5 Q402 191 287 191 Z M367 361 Q367 385 353.5 395.5 Q340 406 314 406 Q278 406 257 388.5 Q236 371 231 341 L225 298 Q249 296 269 295 Q289 294 297 294 Q329 294 348 308.5 Q367 323 367 361 Z M522 635 Q522 612 503 595.5 Q484 579 458 579 L189 579 Q167 579 153 591.5 Q139 604 139 624 Q139 647 158.5 664 Q178 681 204 681 L473 681 Q494 681 508 668 Q522 655 522 635 Z " />
<glyph glyph-name="Ebreve" unicode="&#x114;" horiz-adv-x="514" d="M500 71 Q500 42 476 21 Q452 0 421 0 L156 0 Q138 0 121.5 3.5 Q105 7 93 15 Q81 23 75.5 37 Q70 51 73 71 L152 634 Q154 647 161.5 660 Q169 673 181 683 Q193 693 207.5 699 Q222 705 239 705 L510 705 Q536 705 553.5 687.5 Q571 670 571 647 Q571 617 547 597.5 Q523 578 492 578 L284 578 L261 417 L450 417 Q475 417 493 401 Q511 385 511 360 Q511 331 487.5 310.5 Q464 290 432 290 L243 290 L220 127 L438 127 Q464 127 482 110.5 Q500 94 500 71 Z M376 845 Q390 845 406.5 852.5 Q423 860 439 876 Q462 899 489 899 Q509 899 523 885.5 Q537 872 525 843 Q516 821 497 804.5 Q478 788 455 776.5 Q432 765 407.5 759 Q383 753 363 753 Q343 753 320.5 759 Q298 765 278.5 776.5 Q259 788 244.5 804.5 Q230 821 227 843 Q225 857 229 867.5 Q233 878 240.5 885 Q248 892 258.5 895.5 Q269 899 279 899 Q305 899 321 877 Q332 861 347 853 Q362 845 376 845 Z " />
<glyph glyph-name="ebreve" unicode="&#x115;" horiz-adv-x="485" d="M287 191 Q267 191 249.5 192.5 Q232 194 211 197 L206 164 Q202 138 219.5 123 Q237 108 278 108 Q302 108 324 113.5 Q346 119 372 130 Q375 132 382 134 Q389 136 402 136 Q434 136 445.5 120 Q457 104 457 88 Q457 59 434.5 41 Q412 23 379.5 12 Q347 1 312 -3 Q277 -7 252 -7 Q202 -7 165.5 6.5 Q129 20 105.5 43.5 Q82 67 73 99 Q64 131 69 168 L92 335 Q97 373 115.5 405.5 Q134 438 164 462 Q194 486 236 499.5 Q278 513 330 513 Q419 513 462 473 Q505 433 505 367 Q505 286 453.5 238.5 Q402 191 287 191 Z M367 361 Q367 385 353.5 395.5 Q340 406 314 406 Q278 406 257 388.5 Q236 371 231 341 L225 298 Q249 296 269 295 Q289 294 297 294 Q329 294 348 308.5 Q367 323 367 361 Z M333 645 Q347 645 363.5 652.5 Q380 660 396 676 Q419 699 446 699 Q466 699 480 685.5 Q494 672 482 643 Q473 621 454 604.5 Q435 588 412 576.5 Q389 565 364.5 559 Q340 553 320 553 Q300 553 277.5 559 Q255 565 235.5 576.5 Q216 588 201.5 604.5 Q187 621 184 643 Q182 657 186 667.5 Q190 678 197.5 685 Q205 692 215.5 695.5 Q226 699 236 699 Q262 699 278 677 Q289 661 304 653 Q319 645 333 645 Z " />
<glyph glyph-name="Edotaccent" unicode="&#x116;" horiz-adv-x="514" d="M500 71 Q500 42 476 21 Q452 0 421 0 L156 0 Q138 0 121.5 3.5 Q105 7 93 15 Q81 23 75.5 37 Q70 51 73 71 L152 634 Q154 647 161.5 660 Q169 673 181 683 Q193 693 207.5 699 Q222 705 239 705 L510 705 Q536 705 553.5 687.5 Q571 670 571 647 Q571 617 547 597.5 Q523 578 492 578 L284 578 L261 417 L450 417 Q475 417 493 401 Q511 385 511 360 Q511 331 487.5 310.5 Q464 290 432 290 L243 290 L220 127 L438 127 Q464 127 482 110.5 Q500 94 500 71 Z M437 822 Q437 793 414.5 772.5 Q392 752 362 752 Q337 752 321.5 768.5 Q306 785 306 808 Q306 835 328 855.5 Q350 876 379 876 Q405 876 421 860.5 Q437 845 437 822 Z " />
<glyph glyph-name="edotaccent" unicode="&#x117;" horiz-adv-x="485" d="M287 191 Q267 191 249.5 192.5 Q232 194 211 197 L206 164 Q202 138 219.5 123 Q237 108 278 108 Q302 108 324 113.5 Q346 119 372 130 Q375 132 382 134 Q389 136 402 136 Q434 136 445.5 120 Q457 104 457 88 Q457 59 434.5 41 Q412 23 379.5 12 Q347 1 312 -3 Q277 -7 252 -7 Q202 -7 165.5 6.5 Q129 20 105.5 43.5 Q82 67 73 99 Q64 131 69 168 L92 335 Q97 373 115.5 405.5 Q134 438 164 462 Q194 486 236 499.5 Q278 513 330 513 Q419 513 462 473 Q505 433 505 367 Q505 286 453.5 238.5 Q402 191 287 191 Z M367 361 Q367 385 353.5 395.5 Q340 406 314 406 Q278 406 257 388.5 Q236 371 231 341 L225 298 Q249 296 269 295 Q289 294 297 294 Q329 294 348 308.5 Q367 323 367 361 Z M394 622 Q394 593 371.5 572.5 Q349 552 319 552 Q294 552 278.5 568.5 Q263 585 263 608 Q263 635 285 655.5 Q307 676 336 676 Q362 676 378 660.5 Q394 645 394 622 Z " />
<glyph glyph-name="Eogonek" unicode="&#x118;" horiz-adv-x="514" d="M466 -161 Q466 -180 455.5 -191.5 Q445 -203 429.5 -209 Q414 -215 396 -217 Q378 -219 363 -219 Q314 -219 284.5 -198 Q255 -177 255 -132 Q255 -100 273 -66.5 Q291 -33 320 0 L156 0 Q138 0 121.5 3.5 Q105 7 93 15 Q81 23 75.5 37 Q70 51 73 71 L152 634 Q154 647 161.5 660 Q169 673 181 683 Q193 693 207.5 699 Q222 705 239 705 L510 705 Q536 705 553.5 687.5 Q571 670 571 647 Q571 617 547 597.5 Q523 578 492 578 L284 578 L261 417 L450 417 Q475 417 493 401 Q511 385 511 360 Q511 331 487.5 310.5 Q464 290 432 290 L243 290 L220 127 L438 127 Q464 127 482 110.5 Q500 94 500 71 Q500 42 476 21 Q452 0 420 0 L397 -31 Q383 -49 372 -69.5 Q361 -90 361 -106 Q361 -115 366.5 -121 Q372 -127 384 -127 Q392 -127 400.5 -125 Q409 -123 417 -123 L426 -123 Q443 -123 454.5 -134.5 Q466 -146 466 -161 Z " />
<glyph glyph-name="eogonek" unicode="&#x119;" horiz-adv-x="485" d="M431 -161 Q431 -180 420.5 -191.5 Q410 -203 395 -209 Q380 -215 362 -217 Q344 -219 329 -219 Q279 -219 250 -198 Q221 -177 221 -132 Q221 -101 237.5 -69.5 Q254 -38 280 -6 Q272 -6 265 -6.5 Q258 -7 252 -7 Q202 -7 165.5 6.5 Q129 20 105.5 43.5 Q82 67 73 99 Q64 131 69 168 L92 335 Q97 373 115.5 405.5 Q134 438 164 462 Q194 486 236 499.5 Q278 513 330 513 Q419 513 462 473 Q505 433 505 367 Q505 286 453.5 238.5 Q402 191 287 191 Q267 191 249.5 192.5 Q232 194 211 197 L206 164 Q202 138 219.5 123 Q237 108 278 108 Q302 108 324 113.5 Q346 119 372 130 Q375 132 382 134 Q389 136 402 136 Q434 136 445.5 120 Q457 104 457 88 Q457 76 452 66.5 Q447 57 438.5 49.5 Q430 42 419.5 35 Q409 28 399 20 Q385 9 372 -7.5 Q359 -24 349 -41.5 Q339 -59 333 -76 Q327 -93 327 -106 Q327 -115 332.5 -121 Q338 -127 349 -127 Q357 -127 366 -125 Q375 -123 383 -123 L392 -123 Q409 -123 420 -134.5 Q431 -146 431 -161 Z M367 361 Q367 385 353.5 395.5 Q340 406 314 406 Q278 406 257 388.5 Q236 371 231 341 L225 298 Q249 296 269 295 Q289 294 297 294 Q329 294 348 308.5 Q367 323 367 361 Z " />
<glyph glyph-name="Ecaron" unicode="&#x11a;" horiz-adv-x="514" d="M500 71 Q500 42 476 21 Q452 0 421 0 L156 0 Q138 0 121.5 3.5 Q105 7 93 15 Q81 23 75.5 37 Q70 51 73 71 L152 634 Q154 647 161.5 660 Q169 673 181 683 Q193 693 207.5 699 Q222 705 239 705 L510 705 Q536 705 553.5 687.5 Q571 670 571 647 Q571 617 547 597.5 Q523 578 492 578 L284 578 L261 417 L450 417 Q475 417 493 401 Q511 385 511 360 Q511 331 487.5 310.5 Q464 290 432 290 L243 290 L220 127 L438 127 Q464 127 482 110.5 Q500 94 500 71 Z M401 851 L466 903 Q474 909 486 912 Q498 915 504 915 Q522 915 534.5 903 Q547 891 547 874 Q547 859 537 847 Q527 835 513 824 L426 763 Q419 758 409 754 Q399 750 387 750 Q375 750 365.5 754 Q356 758 351 763 L281 824 Q272 833 266 843.5 Q260 854 260 865 Q260 885 277.5 900 Q295 915 316 915 Q322 915 333 912 Q344 909 350 903 L401 851 Z " />
<glyph glyph-name="ecaron" unicode="&#x11b;" horiz-adv-x="485" d="M287 191 Q267 191 249.5 192.5 Q232 194 211 197 L206 164 Q202 138 219.5 123 Q237 108 278 108 Q302 108 324 113.5 Q346 119 372 130 Q375 132 382 134 Q389 136 402 136 Q434 136 445.5 120 Q457 104 457 88 Q457 59 434.5 41 Q412 23 379.5 12 Q347 1 312 -3 Q277 -7 252 -7 Q202 -7 165.5 6.5 Q129 20 105.5 43.5 Q82 67 73 99 Q64 131 69 168 L92 335 Q97 373 115.5 405.5 Q134 438 164 462 Q194 486 236 499.5 Q278 513 330 513 Q419 513 462 473 Q505 433 505 367 Q505 286 453.5 238.5 Q402 191 287 191 Z M367 361 Q367 385 353.5 395.5 Q340 406 314 406 Q278 406 257 388.5 Q236 371 231 341 L225 298 Q249 296 269 295 Q289 294 297 294 Q329 294 348 308.5 Q367 323 367 361 Z M334 651 L399 703 Q407 709 419 712 Q431 715 437 715 Q455 715 467.5 703 Q480 691 480 674 Q480 659 470 647 Q460 635 446 624 L359 563 Q352 558 342 554 Q332 550 320 550 Q308 550 298.5 554 Q289 558 284 563 L214 624 Q205 633 199 643.5 Q193 654 193 665 Q193 685 210.5 700 Q228 715 249 715 Q255 715 266 712 Q277 709 283 703 L334 651 Z " />
<glyph glyph-name="Gcircumflex" unicode="&#x11c;" horiz-adv-x="560" d="M210 254 Q205 222 208 196 Q211 170 222.5 152 Q234 134 255.5 124 Q277 114 311 114 Q337 114 357.5 120 Q378 126 396 135 L418 291 L366 291 Q343 291 327.5 307.5 Q312 324 312 347 Q312 361 318 374 Q324 387 334.5 396.5 Q345 406 357.5 411.5 Q370 417 384 417 L493 417 Q528 417 549 400 Q570 383 565 347 L534 126 Q529 91 504.5 65.5 Q480 40 444.5 23.5 Q409 7 368 -0.5 Q327 -8 288 -8 Q222 -8 177 10.5 Q132 29 105.5 63.5 Q79 98 70.5 146.5 Q62 195 70 254 L98 452 Q106 511 128 559.5 Q150 608 186.5 642.5 Q223 677 273.5 695.5 Q324 714 390 714 Q428 714 463 706 Q498 698 524.5 684 Q551 670 566.5 652 Q582 634 582 613 Q582 587 560 567 Q538 547 507 547 Q490 547 483 552 Q476 557 467 562 L457 568 Q440 579 421 585.5 Q402 592 378 592 Q310 592 278.5 554 Q247 516 238 452 L210 254 Z M408 916 Q420 916 428.5 912 Q437 908 443 903 L514 842 Q524 832 530 821 Q536 810 535 797 Q532 778 515 764.5 Q498 751 478 751 Q466 751 454.5 757.5 Q443 764 432.5 773.5 Q422 783 412.5 794 Q403 805 394 815 Q382 805 369 794 Q356 783 343 773.5 Q330 764 317 757.5 Q304 751 292 751 Q272 751 259 764.5 Q246 778 249 797 Q251 810 260 821 Q269 832 282 842 L369 903 Q377 908 386.5 912 Q396 916 408 916 Z " />
<glyph glyph-name="gcircumflex" unicode="&#x11d;" horiz-adv-x="549" d="M391 342 Q394 367 376 381 Q358 395 323 395 Q285 395 264 376 Q243 357 238 324 L218 183 Q213 148 226 128 Q239 108 276 108 Q299 108 320.5 114 Q342 120 361 134 L391 342 Z M476 -33 Q470 -73 453 -108 Q436 -143 407 -168.5 Q378 -194 336.5 -209 Q295 -224 240 -224 Q219 -224 192 -220.5 Q165 -217 140.5 -208 Q116 -199 99 -184.5 Q82 -170 82 -149 Q82 -123 103.5 -104.5 Q125 -86 154 -86 Q159 -86 166.5 -87 Q174 -88 185 -92 Q199 -99 213 -104 Q227 -109 248 -109 Q291 -109 312 -89 Q333 -69 338 -33 L344 10 Q297 -6 244 -6 Q190 -6 155.5 8.5 Q121 23 102.5 48 Q84 73 79 107.5 Q74 142 80 183 L100 324 Q106 364 124 398.5 Q142 433 172.5 458.5 Q203 484 245 498.5 Q287 513 340 513 Q391 513 428.5 500 Q466 487 490 463.5 Q514 440 524 409 Q534 378 529 342 L476 -33 Z M366 716 Q378 716 386.5 712 Q395 708 401 703 L472 642 Q482 632 488 621 Q494 610 493 597 Q490 578 473 564.5 Q456 551 436 551 Q424 551 412.5 557.5 Q401 564 390.5 573.5 Q380 583 370.5 594 Q361 605 352 615 Q340 605 327 594 Q314 583 301 573.5 Q288 564 275 557.5 Q262 551 250 551 Q230 551 217 564.5 Q204 578 207 597 Q209 610 218 621 Q227 632 240 642 L327 703 Q335 708 344.5 712 Q354 716 366 716 Z " />
<glyph glyph-name="Gbreve" unicode="&#x11e;" horiz-adv-x="560" d="M210 254 Q205 222 208 196 Q211 170 222.5 152 Q234 134 255.5 124 Q277 114 311 114 Q337 114 357.5 120 Q378 126 396 135 L418 291 L366 291 Q343 291 327.5 307.5 Q312 324 312 347 Q312 361 318 374 Q324 387 334.5 396.5 Q345 406 357.5 411.5 Q370 417 384 417 L493 417 Q528 417 549 400 Q570 383 565 347 L534 126 Q529 91 504.5 65.5 Q480 40 444.5 23.5 Q409 7 368 -0.5 Q327 -8 288 -8 Q222 -8 177 10.5 Q132 29 105.5 63.5 Q79 98 70.5 146.5 Q62 195 70 254 L98 452 Q106 511 128 559.5 Q150 608 186.5 642.5 Q223 677 273.5 695.5 Q324 714 390 714 Q428 714 463 706 Q498 698 524.5 684 Q551 670 566.5 652 Q582 634 582 613 Q582 587 560 567 Q538 547 507 547 Q490 547 483 552 Q476 557 467 562 L457 568 Q440 579 421 585.5 Q402 592 378 592 Q310 592 278.5 554 Q247 516 238 452 L210 254 Z M399 845 Q413 845 429.5 852.5 Q446 860 462 876 Q485 899 512 899 Q532 899 546 885.5 Q560 872 548 843 Q539 821 520 804.5 Q501 788 478 776.5 Q455 765 430.5 759 Q406 753 386 753 Q366 753 343.5 759 Q321 765 301.5 776.5 Q282 788 267.5 804.5 Q253 821 250 843 Q248 857 252 867.5 Q256 878 263.5 885 Q271 892 281.5 895.5 Q292 899 302 899 Q328 899 344 877 Q355 861 370 853 Q385 845 399 845 Z " />
<glyph glyph-name="gbreve" unicode="&#x11f;" horiz-adv-x="549" d="M391 342 Q394 367 376 381 Q358 395 323 395 Q285 395 264 376 Q243 357 238 324 L218 183 Q213 148 226 128 Q239 108 276 108 Q299 108 320.5 114 Q342 120 361 134 L391 342 Z M476 -33 Q470 -73 453 -108 Q436 -143 407 -168.5 Q378 -194 336.5 -209 Q295 -224 240 -224 Q219 -224 192 -220.5 Q165 -217 140.5 -208 Q116 -199 99 -184.5 Q82 -170 82 -149 Q82 -123 103.5 -104.5 Q125 -86 154 -86 Q159 -86 166.5 -87 Q174 -88 185 -92 Q199 -99 213 -104 Q227 -109 248 -109 Q291 -109 312 -89 Q333 -69 338 -33 L344 10 Q297 -6 244 -6 Q190 -6 155.5 8.5 Q121 23 102.5 48 Q84 73 79 107.5 Q74 142 80 183 L100 324 Q106 364 124 398.5 Q142 433 172.5 458.5 Q203 484 245 498.5 Q287 513 340 513 Q391 513 428.5 500 Q466 487 490 463.5 Q514 440 524 409 Q534 378 529 342 L476 -33 Z M365 645 Q379 645 395.5 652.5 Q412 660 428 676 Q451 699 478 699 Q498 699 512 685.5 Q526 672 514 643 Q505 621 486 604.5 Q467 588 444 576.5 Q421 565 396.5 559 Q372 553 352 553 Q332 553 309.5 559 Q287 565 267.5 576.5 Q248 588 233.5 604.5 Q219 621 216 643 Q214 657 218 667.5 Q222 678 229.5 685 Q237 692 247.5 695.5 Q258 699 268 699 Q294 699 310 677 Q321 661 336 653 Q351 645 365 645 Z " />
<glyph glyph-name="Gdotaccent" unicode="&#x120;" horiz-adv-x="560" d="M210 254 Q205 222 208 196 Q211 170 222.5 152 Q234 134 255.5 124 Q277 114 311 114 Q337 114 357.5 120 Q378 126 396 135 L418 291 L366 291 Q343 291 327.5 307.5 Q312 324 312 347 Q312 361 318 374 Q324 387 334.5 396.5 Q345 406 357.5 411.5 Q370 417 384 417 L493 417 Q528 417 549 400 Q570 383 565 347 L534 126 Q529 91 504.5 65.5 Q480 40 444.5 23.5 Q409 7 368 -0.5 Q327 -8 288 -8 Q222 -8 177 10.5 Q132 29 105.5 63.5 Q79 98 70.5 146.5 Q62 195 70 254 L98 452 Q106 511 128 559.5 Q150 608 186.5 642.5 Q223 677 273.5 695.5 Q324 714 390 714 Q428 714 463 706 Q498 698 524.5 684 Q551 670 566.5 652 Q582 634 582 613 Q582 587 560 567 Q538 547 507 547 Q490 547 483 552 Q476 557 467 562 L457 568 Q440 579 421 585.5 Q402 592 378 592 Q310 592 278.5 554 Q247 516 238 452 L210 254 Z M460 822 Q460 793 437.5 772.5 Q415 752 385 752 Q360 752 344.5 768.5 Q329 785 329 808 Q329 835 351 855.5 Q373 876 402 876 Q428 876 444 860.5 Q460 845 460 822 Z " />
<glyph glyph-name="gdotaccent" unicode="&#x121;" horiz-adv-x="549" d="M391 342 Q394 367 376 381 Q358 395 323 395 Q285 395 264 376 Q243 357 238 324 L218 183 Q213 148 226 128 Q239 108 276 108 Q299 108 320.5 114 Q342 120 361 134 L391 342 Z M476 -33 Q470 -73 453 -108 Q436 -143 407 -168.5 Q378 -194 336.5 -209 Q295 -224 240 -224 Q219 -224 192 -220.5 Q165 -217 140.5 -208 Q116 -199 99 -184.5 Q82 -170 82 -149 Q82 -123 103.5 -104.5 Q125 -86 154 -86 Q159 -86 166.5 -87 Q174 -88 185 -92 Q199 -99 213 -104 Q227 -109 248 -109 Q291 -109 312 -89 Q333 -69 338 -33 L344 10 Q297 -6 244 -6 Q190 -6 155.5 8.5 Q121 23 102.5 48 Q84 73 79 107.5 Q74 142 80 183 L100 324 Q106 364 124 398.5 Q142 433 172.5 458.5 Q203 484 245 498.5 Q287 513 340 513 Q391 513 428.5 500 Q466 487 490 463.5 Q514 440 524 409 Q534 378 529 342 L476 -33 Z M418 622 Q418 593 395.5 572.5 Q373 552 343 552 Q318 552 302.5 568.5 Q287 585 287 608 Q287 635 309 655.5 Q331 676 360 676 Q386 676 402 660.5 Q418 645 418 622 Z " />
<glyph glyph-name="uni0122" unicode="&#x122;" horiz-adv-x="560" d="M210 254 Q205 222 208 196 Q211 170 222.5 152 Q234 134 255.5 124 Q277 114 311 114 Q337 114 357.5 120 Q378 126 396 135 L418 291 L366 291 Q343 291 327.5 307.5 Q312 324 312 347 Q312 361 318 374 Q324 387 334.5 396.5 Q345 406 357.5 411.5 Q370 417 384 417 L493 417 Q528 417 549 400 Q570 383 565 347 L534 126 Q529 91 504.5 65.5 Q480 40 444.5 23.5 Q409 7 368 -0.5 Q327 -8 288 -8 Q222 -8 177 10.5 Q132 29 105.5 63.5 Q79 98 70.5 146.5 Q62 195 70 254 L98 452 Q106 511 128 559.5 Q150 608 186.5 642.5 Q223 677 273.5 695.5 Q324 714 390 714 Q428 714 463 706 Q498 698 524.5 684 Q551 670 566.5 652 Q582 634 582 613 Q582 587 560 567 Q538 547 507 547 Q490 547 483 552 Q476 557 467 562 L457 568 Q440 579 421 585.5 Q402 592 378 592 Q310 592 278.5 554 Q247 516 238 452 L210 254 Z M340 -96 Q340 -117 327 -142 Q314 -167 296 -188 Q278 -209 258 -223.5 Q238 -238 223 -238 Q217 -238 212 -234.5 Q207 -231 207 -223 Q207 -215 212 -208 Q217 -201 224 -194 Q231 -187 239 -178.5 Q247 -170 253 -159 Q226 -157 208.5 -149.5 Q191 -142 191 -115 Q191 -102 194 -90.5 Q197 -79 206 -70 Q215 -61 231 -56 Q247 -51 273 -51 Q311 -51 325.5 -64 Q340 -77 340 -96 Z " />
<glyph glyph-name="uni0123" unicode="&#x123;" horiz-adv-x="549" d="M283 627 Q283 648 295.5 673 Q308 698 326.5 719 Q345 740 365 754.5 Q385 769 400 769 Q406 769 410.5 765.5 Q415 762 415 754 Q415 746 410 739 Q405 732 398 724.5 Q391 717 383 709 Q375 701 369 690 Q396 688 414 680.5 Q432 673 432 646 Q432 620 416 601 Q400 582 350 582 Q311 582 297 595 Q283 608 283 627 Z M391 342 Q394 367 376 381 Q358 395 323 395 Q285 395 264 376 Q243 357 238 324 L218 183 Q213 148 226 128 Q239 108 276 108 Q299 108 320.5 114 Q342 120 361 134 L391 342 Z M476 -33 Q470 -73 453 -108 Q436 -143 407 -168.5 Q378 -194 336.5 -209 Q295 -224 240 -224 Q219 -224 192 -220.5 Q165 -217 140.5 -208 Q116 -199 99 -184.5 Q82 -170 82 -149 Q82 -123 103.5 -104.5 Q125 -86 154 -86 Q159 -86 166.5 -87 Q174 -88 185 -92 Q199 -99 213 -104 Q227 -109 248 -109 Q291 -109 312 -89 Q333 -69 338 -33 L344 10 Q297 -6 244 -6 Q190 -6 155.5 8.5 Q121 23 102.5 48 Q84 73 79 107.5 Q74 142 80 183 L100 324 Q106 364 124 398.5 Q142 433 172.5 458.5 Q203 484 245 498.5 Q287 513 340 513 Q391 513 428.5 500 Q466 487 490 463.5 Q514 440 524 409 Q534 378 529 342 L476 -33 Z " />
<glyph glyph-name="Hcircumflex" unicode="&#x124;" horiz-adv-x="620" d="M564 56 Q560 30 537 10.5 Q514 -9 485 -9 Q471 -9 459 -4 Q447 1 438.5 10 Q430 19 426 31 Q422 43 424 56 L457 289 L244 289 L211 56 Q207 30 184 10.5 Q161 -9 132 -9 Q103 -9 85 10.5 Q67 30 71 56 L154 650 Q158 675 181 694.5 Q204 714 233 714 Q262 714 280 695 Q298 676 294 650 L262 417 L475 417 L507 650 Q511 676 534.5 695 Q558 714 586 714 Q614 714 632.5 695 Q651 676 647 650 L564 56 L564 56 Z M438 916 Q450 916 458.5 912 Q467 908 473 903 L544 842 Q554 832 560 821 Q566 810 565 797 Q562 778 545 764.5 Q528 751 508 751 Q496 751 484.5 757.5 Q473 764 462.5 773.5 Q452 783 442.5 794 Q433 805 424 815 Q412 805 399 794 Q386 783 373 773.5 Q360 764 347 757.5 Q334 751 322 751 Q302 751 289 764.5 Q276 778 279 797 Q281 810 290 821 Q299 832 312 842 L399 903 Q407 908 416.5 912 Q426 916 438 916 Z " />
<glyph glyph-name="Itilde" unicode="&#x128;" horiz-adv-x="267" d="M154 650 Q158 675 181 694.5 Q204 714 233 714 Q262 714 280 695 Q298 676 294 650 L211 55 Q207 29 184 10 Q161 -9 132 -9 Q103 -9 85 10 Q67 29 71 55 L154 650 Z M410 848 Q410 831 400 817 Q390 803 375 792.5 Q360 782 342 776 Q324 770 309 770 Q289 770 274 775.5 Q259 781 247 788.5 Q235 796 225 802 Q215 808 204 810 Q193 811 185.5 806 Q178 801 170.5 793.5 Q163 786 154.5 780 Q146 774 134 774 Q118 774 105.5 785 Q93 796 94 815 Q96 832 105.5 847 Q115 862 129 872.5 Q143 883 159.5 889 Q176 895 193 895 Q214 895 229 888.5 Q244 882 255.5 874.5 Q267 867 277 861 Q287 855 299 855 Q311 855 318 860.5 Q325 866 332 873 Q339 880 347 885.5 Q355 891 367 891 Q384 891 397 879 Q410 867 410 848 Z " />
<glyph glyph-name="itilde" unicode="&#x129;" horiz-adv-x="285" d="M136 449 Q140 474 162.5 492 Q185 510 214 510 Q243 510 260.5 492 Q278 474 274 449 L228 123 Q226 107 227 100 Q228 93 237 82 Q242 75 246 69.5 Q250 64 250 53 Q250 24 228 8.5 Q206 -7 167 -7 Q152 -7 135.5 -3.5 Q119 0 106.5 12.5 Q94 25 88 48.5 Q82 72 88 111 L136 449 Z M391 648 Q391 631 381 617 Q371 603 356 592.5 Q341 582 323 576 Q305 570 290 570 Q270 570 255 575.5 Q240 581 228 588.5 Q216 596 206 602 Q196 608 185 610 Q174 611 166.5 606 Q159 601 151.5 593.5 Q144 586 135.5 580 Q127 574 115 574 Q99 574 86.5 585 Q74 596 75 615 Q77 632 86.5 647 Q96 662 110 672.5 Q124 683 140.5 689 Q157 695 174 695 Q195 695 210 688.5 Q225 682 236.5 674.5 Q248 667 258 661 Q268 655 280 655 Q292 655 299 660.5 Q306 666 313 673 Q320 680 328 685.5 Q336 691 348 691 Q365 691 378 679 Q391 667 391 648 Z " />
<glyph glyph-name="Imacron" unicode="&#x12a;" horiz-adv-x="267" d="M154 650 Q158 675 181 694.5 Q204 714 233 714 Q262 714 280 695 Q298 676 294 650 L211 55 Q207 29 184 10 Q161 -9 132 -9 Q103 -9 85 10 Q67 29 71 55 L154 650 Z M443 835 Q443 812 424 795.5 Q405 779 379 779 L110 779 Q88 779 74 791.5 Q60 804 60 824 Q60 847 79.5 864 Q99 881 125 881 L394 881 Q415 881 429 868 Q443 855 443 835 Z " />
<glyph glyph-name="imacron" unicode="&#x12b;" horiz-adv-x="285" d="M136 449 Q140 474 162.5 492 Q185 510 214 510 Q243 510 260.5 492 Q278 474 274 449 L228 123 Q226 107 227 100 Q228 93 237 82 Q242 75 246 69.5 Q250 64 250 53 Q250 24 228 8.5 Q206 -7 167 -7 Q152 -7 135.5 -3.5 Q119 0 106.5 12.5 Q94 25 88 48.5 Q82 72 88 111 L136 449 Z M424 635 Q424 612 405 595.5 Q386 579 360 579 L91 579 Q69 579 55 591.5 Q41 604 41 624 Q41 647 60.5 664 Q80 681 106 681 L375 681 Q396 681 410 668 Q424 655 424 635 Z " />
<glyph glyph-name="Ibreve" unicode="&#x12c;" horiz-adv-x="267" d="M154 650 Q158 675 181 694.5 Q204 714 233 714 Q262 714 280 695 Q298 676 294 650 L211 55 Q207 29 184 10 Q161 -9 132 -9 Q103 -9 85 10 Q67 29 71 55 L154 650 Z M254 845 Q268 845 284.5 852.5 Q301 860 317 876 Q340 899 367 899 Q387 899 401 885.5 Q415 872 403 843 Q394 821 375 804.5 Q356 788 333 776.5 Q310 765 285.5 759 Q261 753 241 753 Q221 753 198.5 759 Q176 765 156.5 776.5 Q137 788 122.5 804.5 Q108 821 105 843 Q103 857 107 867.5 Q111 878 118.5 885 Q126 892 136.5 895.5 Q147 899 157 899 Q183 899 199 877 Q210 861 225 853 Q240 845 254 845 Z " />
<glyph glyph-name="ibreve" unicode="&#x12d;" horiz-adv-x="285" d="M136 449 Q140 474 162.5 492 Q185 510 214 510 Q243 510 260.5 492 Q278 474 274 449 L228 123 Q226 107 227 100 Q228 93 237 82 Q242 75 246 69.5 Q250 64 250 53 Q250 24 228 8.5 Q206 -7 167 -7 Q152 -7 135.5 -3.5 Q119 0 106.5 12.5 Q94 25 88 48.5 Q82 72 88 111 L136 449 Z M235 645 Q249 645 265.5 652.5 Q282 660 298 676 Q321 699 348 699 Q368 699 382 685.5 Q396 672 384 643 Q375 621 356 604.5 Q337 588 314 576.5 Q291 565 266.5 559 Q242 553 222 553 Q202 553 179.5 559 Q157 565 137.5 576.5 Q118 588 103.5 604.5 Q89 621 86 643 Q84 657 88 667.5 Q92 678 99.5 685 Q107 692 117.5 695.5 Q128 699 138 699 Q164 699 180 677 Q191 661 206 653 Q221 645 235 645 Z " />
<glyph glyph-name="Iogonek" unicode="&#x12e;" horiz-adv-x="267" d="M154 650 Q158 675 181 694.5 Q204 714 233 714 Q262 714 280 695 Q298 676 294 650 L211 55 Q209 42 201 31.5 Q193 21 183 10 Q172 -2 160.5 -17 Q149 -32 139.5 -47.5 Q130 -63 124 -78.5 Q118 -94 118 -106 Q118 -115 123.5 -121 Q129 -127 141 -127 Q149 -127 158 -125 Q167 -123 175 -123 L184 -123 Q201 -123 212 -134.5 Q223 -146 223 -161 Q223 -180 212.5 -191.5 Q202 -203 186.5 -209 Q171 -215 153 -217 Q135 -219 120 -219 Q71 -219 41.5 -198 Q12 -177 12 -132 Q12 -97 33 -62 Q54 -27 86 8 Q77 17 73 29 Q69 41 71 55 L154 650 Z " />
<glyph glyph-name="iogonek" unicode="&#x12f;" horiz-adv-x="285" d="M228 -161 Q228 -180 217.5 -191.5 Q207 -203 191.5 -209 Q176 -215 158 -217 Q140 -219 125 -219 Q76 -219 46.5 -198 Q17 -177 17 -132 Q17 -97 39 -61 Q61 -25 95 10 Q77 28 80 55 L136 449 Q139 474 161.5 492 Q184 510 213 510 Q242 510 260 492 Q278 474 274 449 L219 55 Q217 41 209 30 Q201 19 192 10 Q180 -2 167.5 -16.5 Q155 -31 145.5 -47 Q136 -63 129.5 -78 Q123 -93 123 -106 Q123 -115 128.5 -121 Q134 -127 146 -127 Q154 -127 163 -125 Q172 -123 180 -123 L189 -123 Q206 -123 217 -134.5 Q228 -146 228 -161 Z M311 651 Q311 635 304 621 Q297 607 284.5 596.5 Q272 586 256 580 Q240 574 222 574 Q191 574 172.5 592.5 Q154 611 154 637 Q154 653 161 667 Q168 681 180 691.5 Q192 702 208 708 Q224 714 242 714 Q273 714 292 695.5 Q311 677 311 651 Z " />
<glyph glyph-name="Idotaccent" unicode="&#x130;" horiz-adv-x="267" d="M154 650 Q158 675 181 694.5 Q204 714 233 714 Q262 714 280 695 Q298 676 294 650 L211 55 Q207 29 184 10 Q161 -9 132 -9 Q103 -9 85 10 Q67 29 71 55 L154 650 Z M314 822 Q314 793 291.5 772.5 Q269 752 239 752 Q214 752 198.5 768.5 Q183 785 183 808 Q183 835 205 855.5 Q227 876 256 876 Q282 876 298 860.5 Q314 845 314 822 Z " />
<glyph glyph-name="dotlessi" unicode="&#x131;" horiz-adv-x="285" d="M136 449 Q140 474 162.5 492 Q185 510 214 510 Q243 510 260.5 492 Q278 474 274 449 L228 123 Q226 107 227 100 Q228 93 237 82 Q242 75 246 69.5 Q250 64 250 53 Q250 24 228 8.5 Q206 -7 167 -7 Q152 -7 135.5 -3.5 Q119 0 106.5 12.5 Q94 25 88 48.5 Q82 72 88 111 L136 449 Z " />
<glyph glyph-name="Jcircumflex" unicode="&#x134;" horiz-adv-x="425" d="M395 235 Q387 178 369.5 132.5 Q352 87 321 55.5 Q290 24 243 7.5 Q196 -9 129 -9 Q115 -9 97 -7.5 Q79 -6 62.5 0 Q46 6 34.5 18.5 Q23 31 23 52 Q23 69 30.5 82 Q38 95 49 104 Q60 113 73 118 Q86 123 98 123 Q115 123 127 120 Q139 117 158 117 Q183 117 200 125 Q217 133 228 148.5 Q239 164 245 186 Q251 208 255 235 L314 650 Q318 676 340.5 695 Q363 714 393 714 Q421 714 439.5 695 Q458 676 454 650 L395 235 Z M420 916 Q432 916 440.5 912 Q449 908 455 903 L526 842 Q536 832 542 821 Q548 810 547 797 Q544 778 527 764.5 Q510 751 490 751 Q478 751 466.5 757.5 Q455 764 444.5 773.5 Q434 783 424.5 794 Q415 805 406 815 Q394 805 381 794 Q368 783 355 773.5 Q342 764 329 757.5 Q316 751 304 751 Q284 751 271 764.5 Q258 778 261 797 Q263 810 272 821 Q281 832 294 842 L381 903 Q389 908 398.5 912 Q408 916 420 916 Z " />
<glyph glyph-name="jcircumflex" unicode="&#x135;" horiz-adv-x="285" d="M213 14 Q201 -71 150 -123 Q99 -175 17 -186 Q11 -187 5.5 -187 Q0 -187 -6 -187 Q-29 -187 -44 -175 Q-59 -163 -61 -142 L-61 -143 Q-64 -126 -58.5 -113 Q-53 -100 -43 -91 Q-33 -82 -21.5 -76.5 Q-10 -71 1 -69 Q30 -63 49.5 -45.5 Q69 -28 74 10 L138 463 Q141 489 164 507.5 Q187 526 216 526 Q245 526 262 507.5 Q279 489 276 463 L213 14 Z M244 716 Q256 716 264.5 712 Q273 708 279 703 L350 642 Q360 632 366 621 Q372 610 371 597 Q368 578 351 564.5 Q334 551 314 551 Q302 551 290.5 557.5 Q279 564 268.5 573.5 Q258 583 248.5 594 Q239 605 230 615 Q218 605 205 594 Q192 583 179 573.5 Q166 564 153 557.5 Q140 551 128 551 Q108 551 95 564.5 Q82 578 85 597 Q87 610 96 621 Q105 632 118 642 L205 703 Q213 708 222.5 712 Q232 716 244 716 Z " />
<glyph glyph-name="uni0136" unicode="&#x136;" horiz-adv-x="556" d="M365 382 L543 92 Q550 79 550 66 Q550 54 544.5 41 Q539 28 528.5 16.5 Q518 5 503.5 -2 Q489 -9 472 -9 Q435 -9 418 20 L260 280 L240 260 L211 56 Q207 30 184 10.5 Q161 -9 132 -9 Q103 -9 85 10.5 Q67 30 71 56 L154 650 Q158 675 181 694.5 Q204 714 233 714 Q262 714 280 695 Q298 676 294 650 L268 460 L497 685 Q508 696 524.5 705 Q541 714 558 714 Q579 714 599 697 Q619 680 619 655 Q619 640 614 630.5 Q609 621 595 607 L365 382 Z M365 -96 Q365 -117 352 -142 Q339 -167 321 -188 Q303 -209 283 -223.5 Q263 -238 248 -238 Q242 -238 237 -234.5 Q232 -231 232 -223 Q232 -215 237 -208 Q242 -201 249 -194 Q256 -187 264 -178.5 Q272 -170 278 -159 Q251 -157 233.5 -149.5 Q216 -142 216 -115 Q216 -102 219 -90.5 Q222 -79 231 -70 Q240 -61 256 -56 Q272 -51 298 -51 Q336 -51 350.5 -64 Q365 -77 365 -96 Z " />
<glyph glyph-name="uni0137" unicode="&#x137;" horiz-adv-x="487" d="M409 492 Q419 501 433 505 Q447 509 459 509 Q485 509 501.5 494.5 Q518 480 518 457 Q518 429 493 408 L494 408 L354 279 L473 85 Q478 77 479.5 66.5 Q481 56 479 48 Q474 22 452.5 7.5 Q431 -7 404 -7 Q368 -7 351 21 L242 204 L230 194 L210 55 Q206 29 183.5 11 Q161 -7 132 -7 Q103 -7 85.5 11 Q68 29 72 55 L157 660 Q161 686 183.5 704 Q206 722 235 722 Q264 722 281.5 704 Q299 686 295 660 L250 343 L409 492 Z M332 -96 Q332 -117 319 -142 Q306 -167 288 -188 Q270 -209 250 -223.5 Q230 -238 215 -238 Q209 -238 204 -234.5 Q199 -231 199 -223 Q199 -215 204 -208 Q209 -201 216 -194 Q223 -187 231 -178.5 Q239 -170 245 -159 Q218 -157 200.5 -149.5 Q183 -142 183 -115 Q183 -102 186 -90.5 Q189 -79 198 -70 Q207 -61 223 -56 Q239 -51 265 -51 Q303 -51 317.5 -64 Q332 -77 332 -96 Z " />
<glyph glyph-name="Lacute" unicode="&#x139;" horiz-adv-x="503" d="M497 70 Q497 41 474 20.5 Q451 0 420 0 L138 0 Q108 0 88 20 Q68 40 72 69 L154 650 Q158 675 181 694.5 Q204 714 233 714 Q262 714 280 695 Q298 676 294 650 L220 126 L437 126 Q463 126 480 110 Q497 94 497 70 Z M323 910 L332 918 Q343 927 351 932 Q359 937 376 937 Q392 937 405 924.5 Q418 912 418 893 Q418 887 415.5 878.5 Q413 870 405 860 L312 778 Q299 768 290 762.5 Q281 757 264 757 Q244 757 231.5 768.5 Q219 780 219 800 Q219 812 222.5 818.5 Q226 825 231 831 L323 910 Z " />
<glyph glyph-name="lacute" unicode="&#x13a;" horiz-adv-x="268" d="M159 -7 Q144 -7 127.5 -3.5 Q111 0 98.5 12.5 Q86 25 80 48.5 Q74 72 80 111 L157 660 Q161 685 183.5 703.5 Q206 722 235 722 Q264 722 281.5 704 Q299 686 295 660 L219 123 Q217 107 218.5 100 Q220 93 229 82 Q234 75 238 69.5 Q242 64 242 53 Q242 24 220 8.5 Q198 -7 159 -7 Z M294 917 L303 925 Q314 934 322 939 Q330 944 347 944 Q363 944 376 931.5 Q389 919 389 900 Q389 894 386.5 885.5 Q384 877 376 867 L283 785 Q270 775 261 769.5 Q252 764 235 764 Q215 764 202.5 775.5 Q190 787 190 807 Q190 819 193.5 825.5 Q197 832 202 838 L294 917 Z " />
<glyph glyph-name="uni013B" unicode="&#x13b;" horiz-adv-x="503" d="M497 70 Q497 41 474 20.5 Q451 0 420 0 L138 0 Q108 0 88 20 Q68 40 72 69 L154 650 Q158 675 181 694.5 Q204 714 233 714 Q262 714 280 695 Q298 676 294 650 L220 126 L437 126 Q463 126 480 110 Q497 94 497 70 Z M311 -96 Q311 -117 298 -142 Q285 -167 267 -188 Q249 -209 229 -223.5 Q209 -238 194 -238 Q188 -238 183 -234.5 Q178 -231 178 -223 Q178 -215 183 -208 Q188 -201 195 -194 Q202 -187 210 -178.5 Q218 -170 224 -159 Q197 -157 179.5 -149.5 Q162 -142 162 -115 Q162 -102 165 -90.5 Q168 -79 177 -70 Q186 -61 202 -56 Q218 -51 244 -51 Q282 -51 296.5 -64 Q311 -77 311 -96 Z " />
<glyph glyph-name="uni013C" unicode="&#x13c;" horiz-adv-x="268" d="M159 -7 Q144 -7 127.5 -3.5 Q111 0 98.5 12.5 Q86 25 80 48.5 Q74 72 80 111 L157 660 Q161 685 183.5 703.5 Q206 722 235 722 Q264 722 281.5 704 Q299 686 295 660 L219 123 Q217 107 218.5 100 Q220 93 229 82 Q234 75 238 69.5 Q242 64 242 53 Q242 24 220 8.5 Q198 -7 159 -7 Z M195 -96 Q195 -117 182 -142 Q169 -167 151 -188 Q133 -209 113 -223.5 Q93 -238 78 -238 Q72 -238 67 -234.5 Q62 -231 62 -223 Q62 -215 67 -208 Q72 -201 79 -194 Q86 -187 94 -178.5 Q102 -170 108 -159 Q81 -157 63.5 -149.5 Q46 -142 46 -115 Q46 -102 49 -90.5 Q52 -79 61 -70 Q70 -61 86 -56 Q102 -51 128 -51 Q166 -51 180.5 -64 Q195 -77 195 -96 Z " />
<glyph glyph-name="Lcaron" unicode="&#x13d;" horiz-adv-x="503" d="M497 70 Q497 41 474 20.5 Q451 0 420 0 L138 0 Q108 0 88 20 Q68 40 72 69 L154 650 Q158 675 181 694.5 Q204 714 233 714 Q262 714 280 695 Q298 676 294 650 L220 126 L437 126 Q463 126 480 110 Q497 94 497 70 Z M390 484 Q393 496 398.5 505.5 Q404 515 410.5 524.5 Q417 534 423.5 545 Q430 556 436 573 Q410 578 395 597 Q380 616 380 640 Q380 657 388 672.5 Q396 688 409 699.5 Q422 711 439.5 718 Q457 725 476 725 Q506 725 527 705.5 Q548 686 548 654 Q548 640 542.5 619 Q537 598 528 574 Q519 550 506.5 526 Q494 502 480.5 482.5 Q467 463 452.5 451 Q438 439 425 439 Q419 439 411.5 440.5 Q404 442 398 447 Q392 452 389 460.5 Q386 469 390 484 Z " />
<glyph glyph-name="lcaron" unicode="&#x13e;" horiz-adv-x="455" d="M159 -7 Q144 -7 127.5 -3.5 Q111 0 98.5 12.5 Q86 25 80 48.5 Q74 72 80 111 L157 660 Q161 685 183.5 703.5 Q206 722 235 722 Q264 722 281.5 704 Q299 686 295 660 L219 123 Q217 107 218.5 100 Q220 93 229 82 Q234 75 238 69.5 Q242 64 242 53 Q242 24 220 8.5 Q198 -7 159 -7 Z M367 484 Q370 496 375.5 505.5 Q381 515 387.5 524.5 Q394 534 400.5 545 Q407 556 413 573 Q387 578 372 597 Q357 616 357 640 Q357 657 365 672.5 Q373 688 386 699.5 Q399 711 416.5 718 Q434 725 453 725 Q483 725 504 705.5 Q525 686 525 654 Q525 640 519.5 619 Q514 598 505 574 Q496 550 483.5 526 Q471 502 457.5 482.5 Q444 463 429.5 451 Q415 439 402 439 Q396 439 388.5 440.5 Q381 442 375 447 Q369 452 366 460.5 Q363 469 367 484 Z " />
<glyph glyph-name="Lslash" unicode="&#x141;" horiz-adv-x="545" d="M523 70 Q523 41 500 20.5 Q477 0 446 0 L164 0 Q134 0 114 20 Q94 40 98 69 L125 256 L118 252 Q110 247 103 243 Q96 239 88 239 Q71 239 58 248.5 Q45 258 45 278 Q45 290 52 301.5 Q59 313 71 320 L139 361 L180 650 Q184 675 207 694.5 Q230 714 259 714 Q288 714 306 695 Q324 676 320 650 L292 453 L360 494 Q369 499 377.5 502.5 Q386 506 397 506 Q410 506 420 498 Q430 490 432 476 Q433 473 433 467 Q433 456 426.5 445 Q420 434 409 427 L278 348 L246 126 L463 126 Q489 126 506 110 Q523 94 523 70 Z " />
<glyph glyph-name="lslash" unicode="&#x142;" horiz-adv-x="377" d="M432 476 Q433 473 433 467 Q433 456 426.5 445 Q420 434 409 427 L298 360 L265 123 Q263 107 264 100 Q265 93 274 82 Q279 75 283.5 69.5 Q288 64 288 53 Q288 24 265.5 8.5 Q243 -7 205 -7 Q190 -7 173.5 -3.5 Q157 0 144.5 12.5 Q132 25 125.5 48.5 Q119 72 125 111 L148 270 L118 252 Q110 247 103 243 Q96 239 88 239 Q71 239 58 248.5 Q45 258 45 278 Q45 290 52 301.5 Q59 313 71 320 L162 375 L202 660 Q206 685 228.5 703.5 Q251 722 280 722 Q309 722 326.5 704 Q344 686 340 660 L313 465 L360 494 Q369 499 377.5 502.5 Q386 506 397 506 Q410 506 420 498 Q430 490 432 476 Z " />
<glyph glyph-name="Nacute" unicode="&#x143;" horiz-adv-x="640" d="M501 -9 Q481 -9 464 0.5 Q447 10 439 26 L263 430 L211 56 Q207 30 183.5 10.5 Q160 -9 131 -9 Q102 -9 84.5 10.5 Q67 30 71 56 L154 646 Q158 675 181 694.5 Q204 714 236 714 Q256 714 273.5 704 Q291 694 299 677 Q324 619 345 571 Q366 523 386 476.5 Q406 430 427 380.5 Q448 331 474 271 L527 649 Q531 675 554.5 694.5 Q578 714 607 714 Q636 714 653.5 694.5 Q671 675 667 649 L584 59 Q580 31 557 11 Q534 -9 501 -9 Z M483 910 L492 918 Q503 927 511 932 Q519 937 536 937 Q552 937 565 924.5 Q578 912 578 893 Q578 887 575.5 878.5 Q573 870 565 860 L472 778 Q459 768 450 762.5 Q441 757 424 757 Q404 757 391.5 768.5 Q379 780 379 800 Q379 812 382.5 818.5 Q386 825 391 831 L483 910 Z " />
<glyph glyph-name="nacute" unicode="&#x144;" horiz-adv-x="549" d="M389 316 Q394 354 380 375.5 Q366 397 336 397 Q305 397 256 376 Q256 371 256 366.5 Q256 362 255 357 L213 55 Q209 29 189.5 11.5 Q170 -6 135 -6 Q100 -6 85.5 11.5 Q71 29 75 55 L117 358 Q121 383 119 389 Q117 395 115 400 Q108 411 105.5 418 Q103 425 103 433 Q103 460 125.5 478.5 Q148 497 179 497 Q209 497 228 468 Q265 491 300.5 501 Q336 511 366 511 Q461 511 500.5 457.5 Q540 404 527 316 L500 123 Q498 107 499.5 100 Q501 93 510 82 Q515 75 519 69.5 Q523 64 523 53 Q523 24 501 8.5 Q479 -7 440 -7 Q425 -7 408.5 -3.5 Q392 0 379.5 12.5 Q367 25 361 48.5 Q355 72 361 111 L389 316 Z M370 710 L379 718 Q390 727 398 732 Q406 737 423 737 Q439 737 452 724.5 Q465 712 465 693 Q465 687 462.5 678.5 Q460 670 452 660 L359 578 Q346 568 337 562.5 Q328 557 311 557 Q291 557 278.5 568.5 Q266 580 266 600 Q266 612 269.5 618.5 Q273 625 278 631 L370 710 Z " />
<glyph glyph-name="uni0145" unicode="&#x145;" horiz-adv-x="640" d="M501 -9 Q481 -9 464 0.5 Q447 10 439 26 L263 430 L211 56 Q207 30 183.5 10.5 Q160 -9 131 -9 Q102 -9 84.5 10.5 Q67 30 71 56 L154 646 Q158 675 181 694.5 Q204 714 236 714 Q256 714 273.5 704 Q291 694 299 677 Q324 619 345 571 Q366 523 386 476.5 Q406 430 427 380.5 Q448 331 474 271 L527 649 Q531 675 554.5 694.5 Q578 714 607 714 Q636 714 653.5 694.5 Q671 675 667 649 L584 59 Q580 31 557 11 Q534 -9 501 -9 Z M380 -96 Q380 -117 367 -142 Q354 -167 336 -188 Q318 -209 298 -223.5 Q278 -238 263 -238 Q257 -238 252 -234.5 Q247 -231 247 -223 Q247 -215 252 -208 Q257 -201 264 -194 Q271 -187 279 -178.5 Q287 -170 293 -159 Q266 -157 248.5 -149.5 Q231 -142 231 -115 Q231 -102 234 -90.5 Q237 -79 246 -70 Q255 -61 271 -56 Q287 -51 313 -51 Q351 -51 365.5 -64 Q380 -77 380 -96 Z " />
<glyph glyph-name="uni0146" unicode="&#x146;" horiz-adv-x="549" d="M389 316 Q394 354 380 375.5 Q366 397 336 397 Q305 397 256 376 Q256 371 256 366.5 Q256 362 255 357 L213 55 Q209 29 189.5 11.5 Q170 -6 135 -6 Q100 -6 85.5 11.5 Q71 29 75 55 L117 358 Q121 383 119 389 Q117 395 115 400 Q108 411 105.5 418 Q103 425 103 433 Q103 460 125.5 478.5 Q148 497 179 497 Q209 497 228 468 Q265 491 300.5 501 Q336 511 366 511 Q461 511 500.5 457.5 Q540 404 527 316 L500 123 Q498 107 499.5 100 Q501 93 510 82 Q515 75 519 69.5 Q523 64 523 53 Q523 24 501 8.5 Q479 -7 440 -7 Q425 -7 408.5 -3.5 Q392 0 379.5 12.5 Q367 25 361 48.5 Q355 72 361 111 L389 316 Z M334 -96 Q334 -117 321 -142 Q308 -167 290 -188 Q272 -209 252 -223.5 Q232 -238 217 -238 Q211 -238 206 -234.5 Q201 -231 201 -223 Q201 -215 206 -208 Q211 -201 218 -194 Q225 -187 233 -178.5 Q241 -170 247 -159 Q220 -157 202.5 -149.5 Q185 -142 185 -115 Q185 -102 188 -90.5 Q191 -79 200 -70 Q209 -61 225 -56 Q241 -51 267 -51 Q305 -51 319.5 -64 Q334 -77 334 -96 Z " />
<glyph glyph-name="Ncaron" unicode="&#x147;" horiz-adv-x="640" d="M501 -9 Q481 -9 464 0.5 Q447 10 439 26 L263 430 L211 56 Q207 30 183.5 10.5 Q160 -9 131 -9 Q102 -9 84.5 10.5 Q67 30 71 56 L154 646 Q158 675 181 694.5 Q204 714 236 714 Q256 714 273.5 704 Q291 694 299 677 Q324 619 345 571 Q366 523 386 476.5 Q406 430 427 380.5 Q448 331 474 271 L527 649 Q531 675 554.5 694.5 Q578 714 607 714 Q636 714 653.5 694.5 Q671 675 667 649 L584 59 Q580 31 557 11 Q534 -9 501 -9 Z M440 851 L505 903 Q513 909 525 912 Q537 915 543 915 Q561 915 573.5 903 Q586 891 586 874 Q586 859 576 847 Q566 835 552 824 L465 763 Q458 758 448 754 Q438 750 426 750 Q414 750 404.5 754 Q395 758 390 763 L320 824 Q311 833 305 843.5 Q299 854 299 865 Q299 885 316.5 900 Q334 915 355 915 Q361 915 372 912 Q383 909 389 903 L440 851 Z " />
<glyph glyph-name="ncaron" unicode="&#x148;" horiz-adv-x="549" d="M389 316 Q394 354 380 375.5 Q366 397 336 397 Q305 397 256 376 Q256 371 256 366.5 Q256 362 255 357 L213 55 Q209 29 189.5 11.5 Q170 -6 135 -6 Q100 -6 85.5 11.5 Q71 29 75 55 L117 358 Q121 383 119 389 Q117 395 115 400 Q108 411 105.5 418 Q103 425 103 433 Q103 460 125.5 478.5 Q148 497 179 497 Q209 497 228 468 Q265 491 300.5 501 Q336 511 366 511 Q461 511 500.5 457.5 Q540 404 527 316 L500 123 Q498 107 499.5 100 Q501 93 510 82 Q515 75 519 69.5 Q523 64 523 53 Q523 24 501 8.5 Q479 -7 440 -7 Q425 -7 408.5 -3.5 Q392 0 379.5 12.5 Q367 25 361 48.5 Q355 72 361 111 L389 316 Z M366 651 L431 703 Q439 709 451 712 Q463 715 469 715 Q487 715 499.5 703 Q512 691 512 674 Q512 659 502 647 Q492 635 478 624 L391 563 Q384 558 374 554 Q364 550 352 550 Q340 550 330.5 554 Q321 558 316 563 L246 624 Q237 633 231 643.5 Q225 654 225 665 Q225 685 242.5 700 Q260 715 281 715 Q287 715 298 712 Q309 709 315 703 L366 651 Z " />
<glyph glyph-name="Omacron" unicode="&#x14c;" horiz-adv-x="610" d="M304 -9 Q239 -9 193 11.5 Q147 32 119.5 67.5 Q92 103 82.5 151 Q73 199 81 254 L108 452 Q115 505 136.5 552.5 Q158 600 194 636 Q230 672 282.5 693 Q335 714 405 714 Q475 714 521.5 693 Q568 672 594 636 Q620 600 627.5 552.5 Q635 505 628 452 L601 254 Q593 199 570 151 Q547 103 509.5 67.5 Q472 32 420.5 11.5 Q369 -9 304 -9 Z M387 587 Q321 587 289 550 Q257 513 248 452 L221 254 Q212 194 235.5 156 Q259 118 321 118 Q383 118 417.5 156 Q452 194 461 254 L488 452 Q497 513 475 550 Q453 587 387 587 Z M613 835 Q613 812 594 795.5 Q575 779 549 779 L280 779 Q258 779 244 791.5 Q230 804 230 824 Q230 847 249.5 864 Q269 881 295 881 L564 881 Q585 881 599 868 Q613 855 613 835 Z " />
<glyph glyph-name="omacron" unicode="&#x14d;" horiz-adv-x="524" d="M261 -7 Q208 -7 169.5 7.5 Q131 22 107 47 Q83 72 73.5 106 Q64 140 70 179 L91 328 Q96 367 115 401 Q134 435 164.5 460 Q195 485 238 499.5 Q281 514 334 514 Q387 514 425.5 499.5 Q464 485 488 460 Q512 435 521 401 Q530 367 525 328 L504 179 Q498 140 479.5 106 Q461 72 430 47 Q399 22 356.5 7.5 Q314 -7 261 -7 Z M277 111 Q316 111 338.5 129 Q361 147 366 179 L387 329 Q392 360 374 378 Q356 396 317 396 Q278 396 256 378 Q234 360 229 329 L208 179 Q203 147 220.5 129 Q238 111 277 111 Z M542 635 Q542 612 523 595.5 Q504 579 478 579 L209 579 Q187 579 173 591.5 Q159 604 159 624 Q159 647 178.5 664 Q198 681 224 681 L493 681 Q514 681 528 668 Q542 655 542 635 Z " />
<glyph glyph-name="Obreve" unicode="&#x14e;" horiz-adv-x="610" d="M304 -9 Q239 -9 193 11.5 Q147 32 119.5 67.5 Q92 103 82.5 151 Q73 199 81 254 L108 452 Q115 505 136.5 552.5 Q158 600 194 636 Q230 672 282.5 693 Q335 714 405 714 Q475 714 521.5 693 Q568 672 594 636 Q620 600 627.5 552.5 Q635 505 628 452 L601 254 Q593 199 570 151 Q547 103 509.5 67.5 Q472 32 420.5 11.5 Q369 -9 304 -9 Z M387 587 Q321 587 289 550 Q257 513 248 452 L221 254 Q212 194 235.5 156 Q259 118 321 118 Q383 118 417.5 156 Q452 194 461 254 L488 452 Q497 513 475 550 Q453 587 387 587 Z M424 845 Q438 845 454.5 852.5 Q471 860 487 876 Q510 899 537 899 Q557 899 571 885.5 Q585 872 573 843 Q564 821 545 804.5 Q526 788 503 776.5 Q480 765 455.5 759 Q431 753 411 753 Q391 753 368.5 759 Q346 765 326.5 776.5 Q307 788 292.5 804.5 Q278 821 275 843 Q273 857 277 867.5 Q281 878 288.5 885 Q296 892 306.5 895.5 Q317 899 327 899 Q353 899 369 877 Q380 861 395 853 Q410 845 424 845 Z " />
<glyph glyph-name="obreve" unicode="&#x14f;" horiz-adv-x="524" d="M261 -7 Q208 -7 169.5 7.5 Q131 22 107 47 Q83 72 73.5 106 Q64 140 70 179 L91 328 Q96 367 115 401 Q134 435 164.5 460 Q195 485 238 499.5 Q281 514 334 514 Q387 514 425.5 499.5 Q464 485 488 460 Q512 435 521 401 Q530 367 525 328 L504 179 Q498 140 479.5 106 Q461 72 430 47 Q399 22 356.5 7.5 Q314 -7 261 -7 Z M277 111 Q316 111 338.5 129 Q361 147 366 179 L387 329 Q392 360 374 378 Q356 396 317 396 Q278 396 256 378 Q234 360 229 329 L208 179 Q203 147 220.5 129 Q238 111 277 111 Z M353 645 Q367 645 383.5 652.5 Q400 660 416 676 Q439 699 466 699 Q486 699 500 685.5 Q514 672 502 643 Q493 621 474 604.5 Q455 588 432 576.5 Q409 565 384.5 559 Q360 553 340 553 Q320 553 297.5 559 Q275 565 255.5 576.5 Q236 588 221.5 604.5 Q207 621 204 643 Q202 657 206 667.5 Q210 678 217.5 685 Q225 692 235.5 695.5 Q246 699 256 699 Q282 699 298 677 Q309 661 324 653 Q339 645 353 645 Z " />
<glyph glyph-name="Ohungarumlaut" unicode="&#x150;" horiz-adv-x="610" d="M304 -9 Q239 -9 193 11.5 Q147 32 119.5 67.5 Q92 103 82.5 151 Q73 199 81 254 L108 452 Q115 505 136.5 552.5 Q158 600 194 636 Q230 672 282.5 693 Q335 714 405 714 Q475 714 521.5 693 Q568 672 594 636 Q620 600 627.5 552.5 Q635 505 628 452 L601 254 Q593 199 570 151 Q547 103 509.5 67.5 Q472 32 420.5 11.5 Q369 -9 304 -9 Z M387 587 Q321 587 289 550 Q257 513 248 452 L221 254 Q212 194 235.5 156 Q259 118 321 118 Q383 118 417.5 156 Q452 194 461 254 L488 452 Q497 513 475 550 Q453 587 387 587 Z M366 908 Q377 921 389.5 932 Q402 943 422 943 Q434 943 445.5 937 Q457 931 463 921 Q469 911 469 899 Q469 887 459 875 L381 779 Q370 765 358.5 757.5 Q347 750 327 750 Q315 750 303.5 756.5 Q292 763 286 772.5 Q280 782 280 794.5 Q280 807 290 819 L366 908 Z M536 908 Q547 921 559.5 932.5 Q572 944 592 943 Q604 943 615.5 937 Q627 931 633 921 Q639 911 639 899 Q639 887 629 875 L551 779 Q540 765 528.5 757.5 Q517 750 497 750 Q485 750 473.5 756.5 Q462 763 456 772.5 Q450 782 450 794.5 Q450 807 460 819 L536 908 Z " />
<glyph glyph-name="ohungarumlaut" unicode="&#x151;" horiz-adv-x="524" d="M261 -7 Q208 -7 169.5 7.5 Q131 22 107 47 Q83 72 73.5 106 Q64 140 70 179 L91 328 Q96 367 115 401 Q134 435 164.5 460 Q195 485 238 499.5 Q281 514 334 514 Q387 514 425.5 499.5 Q464 485 488 460 Q512 435 521 401 Q530 367 525 328 L504 179 Q498 140 479.5 106 Q461 72 430 47 Q399 22 356.5 7.5 Q314 -7 261 -7 Z M277 111 Q316 111 338.5 129 Q361 147 366 179 L387 329 Q392 360 374 378 Q356 396 317 396 Q278 396 256 378 Q234 360 229 329 L208 179 Q203 147 220.5 129 Q238 111 277 111 Z M291 708 Q302 721 314.5 732 Q327 743 347 743 Q359 743 370.5 737 Q382 731 388 721 Q394 711 394 699 Q394 687 384 675 L306 579 Q295 565 283.5 557.5 Q272 550 252 550 Q240 550 228.5 556.5 Q217 563 211 572.5 Q205 582 205 594.5 Q205 607 215 619 L291 708 Z M461 708 Q472 721 484.5 732.5 Q497 744 517 743 Q529 743 540.5 737 Q552 731 558 721 Q564 711 564 699 Q564 687 554 675 L476 579 Q465 565 453.5 557.5 Q442 550 422 550 Q410 550 398.5 556.5 Q387 563 381 572.5 Q375 582 375 594.5 Q375 607 385 619 L461 708 Z " />
<glyph glyph-name="OE" unicode="&#x152;" horiz-adv-x="756" d="M763 71 Q763 42 738.5 21 Q714 0 683 0 L448 0 Q425 0 406.5 5 Q388 10 376 23 Q350 8 319.5 -0.5 Q289 -9 254 -9 Q194 -9 152 10 Q110 29 84.5 62.5 Q59 96 50 140.5 Q41 185 48 236 L81 470 Q88 520 107.5 564.5 Q127 609 160.5 642 Q194 675 242 694.5 Q290 714 355 714 Q393 714 422 705.5 Q451 697 473 683 Q485 693 499.5 699 Q514 705 531 705 L772 705 Q798 705 815.5 688 Q833 671 833 647 Q833 632 826.5 619.5 Q820 607 809 598 Q798 589 783.5 583.5 Q769 578 754 578 L576 578 L554 417 L713 417 Q737 417 755 401 Q773 385 773 360 Q773 331 750 310.5 Q727 290 695 290 L536 290 L513 127 L701 127 Q727 127 745 110.5 Q763 94 763 71 Z M337 587 Q281 587 255 555 Q229 523 221 470 L188 236 Q180 184 200.5 151 Q221 118 272 118 Q323 118 351.5 151 Q380 184 388 236 L421 470 Q425 496 422.5 517.5 Q420 539 410.5 554.5 Q401 570 383 578.5 Q365 587 337 587 Z " />
<glyph glyph-name="oe" unicode="&#x153;" horiz-adv-x="731" d="M547 181 Q518 181 476 187 L473 164 Q469 138 487 123 Q505 108 544 108 Q571 108 592 114.5 Q613 121 639 130 L638 130 Q641 132 648.5 134 Q656 136 666 136 Q692 136 707.5 119.5 Q723 103 723 83 Q723 57 700 40 Q677 23 645 12.5 Q613 2 578.5 -2.5 Q544 -7 521 -7 Q472 -7 438 7 Q404 21 384 45 Q355 21 316 7 Q277 -7 227 -7 Q176 -7 138.5 7.5 Q101 22 77.5 47 Q54 72 44.5 106 Q35 140 41 179 L62 328 Q68 367 87 401 Q106 435 136.5 460 Q167 485 208.5 499.5 Q250 514 301 514 Q352 514 387 499.5 Q422 485 444 460 Q472 485 511 499 Q550 513 601 513 Q685 513 728 473 Q771 433 771 366 Q771 324 758.5 290 Q746 256 719 231.5 Q692 207 649.5 194 Q607 181 547 181 Z M248 111 Q287 111 309.5 129 Q332 147 337 179 L358 329 Q363 360 345 378 Q327 396 288 396 Q249 396 227 378 Q205 360 200 329 L179 179 Q174 147 191.5 129 Q209 111 248 111 Z M632 351 Q632 375 618 385.5 Q604 396 578 396 Q543 396 522 381.5 Q501 367 497 341 L491 298 Q515 296 535 295 Q555 294 566 294 Q604 294 618 309.5 Q632 325 632 351 Z " />
<glyph glyph-name="Racute" unicode="&#x154;" horiz-adv-x="615" d="M633 522 Q633 436 587.5 380.5 Q542 325 464 301 L572 95 Q582 76 577.5 57.5 Q573 39 561 24.5 Q549 10 531.5 1 Q514 -8 497 -8 Q457 -8 442 23 L311 286 L243 286 L211 57 Q207 31 183.5 11 Q160 -9 131 -9 Q103 -9 85 10.5 Q67 30 71 57 L152 633 Q156 662 181.5 683.5 Q207 705 238 705 L412 705 Q474 705 516.5 689.5 Q559 674 585 648.5 Q611 623 622 590 Q633 557 633 522 Z M491 506 Q491 519 486.5 532 Q482 545 470.5 555.5 Q459 566 439.5 572 Q420 578 390 578 L284 578 L261 412 L373 412 Q430 412 460.5 436.5 Q491 461 491 506 Z M431 910 L440 918 Q451 927 459 932 Q467 937 484 937 Q500 937 513 924.5 Q526 912 526 893 Q526 887 523.5 878.5 Q521 870 513 860 L420 778 Q407 768 398 762.5 Q389 757 372 757 Q352 757 339.5 768.5 Q327 780 327 800 Q327 812 330.5 818.5 Q334 825 339 831 L431 910 Z " />
<glyph glyph-name="racute" unicode="&#x155;" horiz-adv-x="377" d="M353 386 Q337 387 325 387.5 Q313 388 302.5 387 Q292 386 281 383.5 Q270 381 256 376 Q256 371 256 366.5 Q256 362 255 357 L213 55 Q209 29 186.5 11 Q164 -7 135 -7 Q106 -7 88.5 11 Q71 29 75 55 L117 357 Q119 374 118.5 384.5 Q118 395 113 404 Q109 411 106 417 Q103 423 103 431 Q103 460 127 478.5 Q151 497 180 497 Q196 497 208 488.5 Q220 480 229 466 Q266 486 300.5 497.5 Q335 509 359 509 Q401 509 417 494.5 Q433 480 433 458 Q433 425 408.5 404.5 Q384 384 353 386 Z M339 710 L348 718 Q359 727 367 732 Q375 737 392 737 Q408 737 421 724.5 Q434 712 434 693 Q434 687 431.5 678.5 Q429 670 421 660 L328 578 Q315 568 306 562.5 Q297 557 280 557 Q260 557 247.5 568.5 Q235 580 235 600 Q235 612 238.5 618.5 Q242 625 247 631 L339 710 Z " />
<glyph glyph-name="uni0156" unicode="&#x156;" horiz-adv-x="615" d="M633 522 Q633 436 587.5 380.5 Q542 325 464 301 L572 95 Q582 76 577.5 57.5 Q573 39 561 24.5 Q549 10 531.5 1 Q514 -8 497 -8 Q457 -8 442 23 L311 286 L243 286 L211 57 Q207 31 183.5 11 Q160 -9 131 -9 Q103 -9 85 10.5 Q67 30 71 57 L152 633 Q156 662 181.5 683.5 Q207 705 238 705 L412 705 Q474 705 516.5 689.5 Q559 674 585 648.5 Q611 623 622 590 Q633 557 633 522 Z M491 506 Q491 519 486.5 532 Q482 545 470.5 555.5 Q459 566 439.5 572 Q420 578 390 578 L284 578 L261 412 L373 412 Q430 412 460.5 436.5 Q491 461 491 506 Z M367 -96 Q367 -117 354 -142 Q341 -167 323 -188 Q305 -209 285 -223.5 Q265 -238 250 -238 Q244 -238 239 -234.5 Q234 -231 234 -223 Q234 -215 239 -208 Q244 -201 251 -194 Q258 -187 266 -178.5 Q274 -170 280 -159 Q253 -157 235.5 -149.5 Q218 -142 218 -115 Q218 -102 221 -90.5 Q224 -79 233 -70 Q242 -61 258 -56 Q274 -51 300 -51 Q338 -51 352.5 -64 Q367 -77 367 -96 Z " />
<glyph glyph-name="uni0157" unicode="&#x157;" horiz-adv-x="377" d="M353 386 Q337 387 325 387.5 Q313 388 302.5 387 Q292 386 281 383.5 Q270 381 256 376 Q256 371 256 366.5 Q256 362 255 357 L213 55 Q209 29 186.5 11 Q164 -7 135 -7 Q106 -7 88.5 11 Q71 29 75 55 L117 357 Q119 374 118.5 384.5 Q118 395 113 404 Q109 411 106 417 Q103 423 103 431 Q103 460 127 478.5 Q151 497 180 497 Q196 497 208 488.5 Q220 480 229 466 Q266 486 300.5 497.5 Q335 509 359 509 Q401 509 417 494.5 Q433 480 433 458 Q433 425 408.5 404.5 Q384 384 353 386 Z M196 -96 Q196 -117 183 -142 Q170 -167 152 -188 Q134 -209 114 -223.5 Q94 -238 79 -238 Q73 -238 68 -234.5 Q63 -231 63 -223 Q63 -215 68 -208 Q73 -201 80 -194 Q87 -187 95 -178.5 Q103 -170 109 -159 Q82 -157 64.5 -149.5 Q47 -142 47 -115 Q47 -102 50 -90.5 Q53 -79 62 -70 Q71 -61 87 -56 Q103 -51 129 -51 Q167 -51 181.5 -64 Q196 -77 196 -96 Z " />
<glyph glyph-name="Rcaron" unicode="&#x158;" horiz-adv-x="615" d="M633 522 Q633 436 587.5 380.5 Q542 325 464 301 L572 95 Q582 76 577.5 57.5 Q573 39 561 24.5 Q549 10 531.5 1 Q514 -8 497 -8 Q457 -8 442 23 L311 286 L243 286 L211 57 Q207 31 183.5 11 Q160 -9 131 -9 Q103 -9 85 10.5 Q67 30 71 57 L152 633 Q156 662 181.5 683.5 Q207 705 238 705 L412 705 Q474 705 516.5 689.5 Q559 674 585 648.5 Q611 623 622 590 Q633 557 633 522 Z M491 506 Q491 519 486.5 532 Q482 545 470.5 555.5 Q459 566 439.5 572 Q420 578 390 578 L284 578 L261 412 L373 412 Q430 412 460.5 436.5 Q491 461 491 506 Z M410 851 L475 903 Q483 909 495 912 Q507 915 513 915 Q531 915 543.5 903 Q556 891 556 874 Q556 859 546 847 Q536 835 522 824 L435 763 Q428 758 418 754 Q408 750 396 750 Q384 750 374.5 754 Q365 758 360 763 L290 824 Q281 833 275 843.5 Q269 854 269 865 Q269 885 286.5 900 Q304 915 325 915 Q331 915 342 912 Q353 909 359 903 L410 851 Z " />
<glyph glyph-name="rcaron" unicode="&#x159;" horiz-adv-x="377" d="M353 386 Q337 387 325 387.5 Q313 388 302.5 387 Q292 386 281 383.5 Q270 381 256 376 Q256 371 256 366.5 Q256 362 255 357 L213 55 Q209 29 186.5 11 Q164 -7 135 -7 Q106 -7 88.5 11 Q71 29 75 55 L117 357 Q119 374 118.5 384.5 Q118 395 113 404 Q109 411 106 417 Q103 423 103 431 Q103 460 127 478.5 Q151 497 180 497 Q196 497 208 488.5 Q220 480 229 466 Q266 486 300.5 497.5 Q335 509 359 509 Q401 509 417 494.5 Q433 480 433 458 Q433 425 408.5 404.5 Q384 384 353 386 Z M282 651 L347 703 Q355 709 367 712 Q379 715 385 715 Q403 715 415.5 703 Q428 691 428 674 Q428 659 418 647 Q408 635 394 624 L307 563 Q300 558 290 554 Q280 550 268 550 Q256 550 246.5 554 Q237 558 232 563 L162 624 Q153 633 147 643.5 Q141 654 141 665 Q141 685 158.5 700 Q176 715 197 715 Q203 715 214 712 Q225 709 231 703 L282 651 Z " />
<glyph glyph-name="Sacute" unicode="&#x15a;" horiz-adv-x="526" d="M380 217 Q380 243 369 255 Q358 267 347 272 Q332 279 315 286 Q298 293 278 299 Q246 309 214.5 321.5 Q183 334 157.5 354 Q132 374 116.5 403.5 Q101 433 101 478 Q101 532 120 576 Q139 620 173.5 650.5 Q208 681 257 697.5 Q306 714 365 714 Q386 714 418 710.5 Q450 707 480.5 698 Q511 689 532.5 672.5 Q554 656 554 630 Q554 604 532 582.5 Q510 561 474 561 Q460 561 449.5 564 Q439 567 427 572 Q413 577 396 582 Q379 587 353 587 Q333 587 313.5 583 Q294 579 279 569 Q264 559 255 542 Q246 525 246 500 Q246 473 257.5 461 Q269 449 280 444 Q298 434 315 428 Q332 422 348 417 Q380 406 412 393.5 Q444 381 469.5 361 Q495 341 510.5 311.5 Q526 282 526 238 Q526 180 504 134 Q482 88 444 56.5 Q406 25 354.5 8 Q303 -9 244 -9 Q217 -9 182.5 -4 Q148 1 117 11.5 Q86 22 64.5 39.5 Q43 57 43 81 Q43 94 49 106 Q55 118 65.5 128 Q76 138 89.5 144 Q103 150 118 150 Q129 150 141 146.5 Q153 143 167 138 Q184 132 207.5 125 Q231 118 263 118 Q321 118 350.5 144 Q380 170 380 217 Z M422 910 L431 918 Q442 927 450 932 Q458 937 475 937 Q491 937 504 924.5 Q517 912 517 893 Q517 887 514.5 878.5 Q512 870 504 860 L411 778 Q398 768 389 762.5 Q380 757 363 757 Q343 757 330.5 768.5 Q318 780 318 800 Q318 812 321.5 818.5 Q325 825 330 831 L422 910 Z " />
<glyph glyph-name="sacute" unicode="&#x15b;" horiz-adv-x="446" d="M92 338 Q92 376 106 408 Q120 440 147 463.5 Q174 487 214.5 500 Q255 513 308 513 Q331 513 357.5 509.5 Q384 506 406.5 497.5 Q429 489 444 474 Q459 459 459 436 Q459 417 452 405.5 Q445 394 434.5 387.5 Q424 381 412.5 379 Q401 377 392 377 Q379 377 368.5 380.5 Q358 384 347.5 387.5 Q337 391 324 394.5 Q311 398 293 398 Q230 398 230 358 Q230 340 255 329 Q279 318 310 308 Q341 298 368.5 282 Q396 266 415.5 240 Q435 214 435 171 Q435 90 378 41.5 Q321 -7 216 -7 Q193 -7 163.5 -4 Q134 -1 108 7.5 Q82 16 64.5 30 Q47 44 47 66 Q47 89 67.5 109.5 Q88 130 120 130 Q132 130 144 126.5 Q156 123 169 119 Q182 115 197 111.5 Q212 108 230 108 Q259 108 278 119 Q297 130 297 153 Q297 164 292 170 Q287 176 280 180 Q259 193 227 202.5 Q195 212 165 227 Q135 242 113.5 267.5 Q92 293 92 338 Z M348 710 L357 718 Q368 727 376 732 Q384 737 401 737 Q417 737 430 724.5 Q443 712 443 693 Q443 687 440.5 678.5 Q438 670 430 660 L337 578 Q324 568 315 562.5 Q306 557 289 557 Q269 557 256.5 568.5 Q244 580 244 600 Q244 612 247.5 618.5 Q251 625 256 631 L348 710 Z " />
<glyph glyph-name="Scircumflex" unicode="&#x15c;" horiz-adv-x="526" d="M380 217 Q380 243 369 255 Q358 267 347 272 Q332 279 315 286 Q298 293 278 299 Q246 309 214.5 321.5 Q183 334 157.5 354 Q132 374 116.5 403.5 Q101 433 101 478 Q101 532 120 576 Q139 620 173.5 650.5 Q208 681 257 697.5 Q306 714 365 714 Q386 714 418 710.5 Q450 707 480.5 698 Q511 689 532.5 672.5 Q554 656 554 630 Q554 604 532 582.5 Q510 561 474 561 Q460 561 449.5 564 Q439 567 427 572 Q413 577 396 582 Q379 587 353 587 Q333 587 313.5 583 Q294 579 279 569 Q264 559 255 542 Q246 525 246 500 Q246 473 257.5 461 Q269 449 280 444 Q298 434 315 428 Q332 422 348 417 Q380 406 412 393.5 Q444 381 469.5 361 Q495 341 510.5 311.5 Q526 282 526 238 Q526 180 504 134 Q482 88 444 56.5 Q406 25 354.5 8 Q303 -9 244 -9 Q217 -9 182.5 -4 Q148 1 117 11.5 Q86 22 64.5 39.5 Q43 57 43 81 Q43 94 49 106 Q55 118 65.5 128 Q76 138 89.5 144 Q103 150 118 150 Q129 150 141 146.5 Q153 143 167 138 Q184 132 207.5 125 Q231 118 263 118 Q321 118 350.5 144 Q380 170 380 217 Z M391 916 Q403 916 411.5 912 Q420 908 426 903 L497 842 Q507 832 513 821 Q519 810 518 797 Q515 778 498 764.5 Q481 751 461 751 Q449 751 437.5 757.5 Q426 764 415.5 773.5 Q405 783 395.5 794 Q386 805 377 815 Q365 805 352 794 Q339 783 326 773.5 Q313 764 300 757.5 Q287 751 275 751 Q255 751 242 764.5 Q229 778 232 797 Q234 810 243 821 Q252 832 265 842 L352 903 Q360 908 369.5 912 Q379 916 391 916 Z " />
<glyph glyph-name="scircumflex" unicode="&#x15d;" horiz-adv-x="446" d="M92 338 Q92 376 106 408 Q120 440 147 463.5 Q174 487 214.5 500 Q255 513 308 513 Q331 513 357.5 509.5 Q384 506 406.5 497.5 Q429 489 444 474 Q459 459 459 436 Q459 417 452 405.5 Q445 394 434.5 387.5 Q424 381 412.5 379 Q401 377 392 377 Q379 377 368.5 380.5 Q358 384 347.5 387.5 Q337 391 324 394.5 Q311 398 293 398 Q230 398 230 358 Q230 340 255 329 Q279 318 310 308 Q341 298 368.5 282 Q396 266 415.5 240 Q435 214 435 171 Q435 90 378 41.5 Q321 -7 216 -7 Q193 -7 163.5 -4 Q134 -1 108 7.5 Q82 16 64.5 30 Q47 44 47 66 Q47 89 67.5 109.5 Q88 130 120 130 Q132 130 144 126.5 Q156 123 169 119 Q182 115 197 111.5 Q212 108 230 108 Q259 108 278 119 Q297 130 297 153 Q297 164 292 170 Q287 176 280 180 Q259 193 227 202.5 Q195 212 165 227 Q135 242 113.5 267.5 Q92 293 92 338 Z M324 716 Q336 716 344.5 712 Q353 708 359 703 L430 642 Q440 632 446 621 Q452 610 451 597 Q448 578 431 564.5 Q414 551 394 551 Q382 551 370.5 557.5 Q359 564 348.5 573.5 Q338 583 328.5 594 Q319 605 310 615 Q298 605 285 594 Q272 583 259 573.5 Q246 564 233 557.5 Q220 551 208 551 Q188 551 175 564.5 Q162 578 165 597 Q167 610 176 621 Q185 632 198 642 L285 703 Q293 708 302.5 712 Q312 716 324 716 Z " />
<glyph glyph-name="Scedilla" unicode="&#x15e;" horiz-adv-x="526" d="M362 -106 Q362 -154 325.5 -185 Q289 -216 233 -216 Q213 -216 193 -212.5 Q173 -209 157 -202.5 Q141 -196 131 -185.5 Q121 -175 121 -161 Q121 -146 131.5 -137 Q142 -128 159 -128 Q173 -128 192 -132.5 Q211 -137 231 -137 Q281 -137 281 -113 Q281 -102 269 -97 Q257 -92 228 -87 Q217 -85 208.5 -83 Q200 -81 195 -77 Q190 -73 188.5 -64.5 Q187 -56 190 -40 L199 -6 Q173 -3 145 3 Q117 9 94.5 19.5 Q72 30 57.5 45.5 Q43 61 43 81 Q43 94 49 106 Q55 118 65.5 128 Q76 138 89.5 144 Q103 150 118 150 Q129 150 141 146.5 Q153 143 167 138 Q184 132 207.5 125 Q231 118 263 118 Q321 118 350.5 144 Q380 170 380 217 Q380 243 369 255 Q358 267 347 272 Q332 279 315 286 Q298 293 278 299 Q246 309 214.5 321.5 Q183 334 157.5 354 Q132 374 116.5 403.5 Q101 433 101 478 Q101 532 120 576 Q139 620 174 650.5 Q209 681 257.5 697.5 Q306 714 365 714 Q386 714 418.5 710.5 Q451 707 481 698 Q511 689 532.5 672.5 Q554 656 554 630 Q554 604 532 582.5 Q510 561 474 561 Q460 561 449.5 564.5 Q439 568 427 572 Q413 577 396 582 Q379 587 353 587 Q333 587 313.5 583 Q294 579 279 569 Q264 559 255 542 Q246 525 246 500 Q246 473 257.5 461 Q269 449 280 444 Q298 434 315 428 Q332 422 348 417 Q380 406 412 393.5 Q444 381 469.5 361 Q495 341 510.5 311.5 Q526 282 526 238 Q526 185 507 142 Q488 99 455 67.5 Q422 36 376.5 17 Q331 -2 279 -7 L273 -33 Q321 -37 341.5 -57 Q362 -77 362 -106 Z " />
<glyph glyph-name="scedilla" unicode="&#x15f;" horiz-adv-x="446" d="M322 -106 Q322 -154 285.5 -185 Q249 -216 193 -216 Q173 -216 153 -212.5 Q133 -209 117 -202.5 Q101 -196 91 -185.5 Q81 -175 81 -161 Q81 -146 92 -137 Q103 -128 120 -128 Q134 -128 152.5 -132.5 Q171 -137 191 -137 Q242 -137 242 -113 Q242 -102 229.5 -97 Q217 -92 188 -87 Q177 -85 168.5 -83 Q160 -81 155 -77 Q150 -73 148.5 -64.5 Q147 -56 150 -40 L161 -3 Q140 0 119.5 5 Q99 10 83 18 Q67 26 57 38 Q47 50 47 66 Q47 89 68 109.5 Q89 130 121 130 Q133 130 145 126.5 Q157 123 170 119 Q183 115 198 111.5 Q213 108 231 108 Q260 108 279 119 Q298 130 298 153 Q298 164 293 170 Q288 176 281 180 Q260 193 228 202.5 Q196 212 165.5 227 Q135 242 113.5 267.5 Q92 293 92 338 Q92 376 106 408 Q120 440 147.5 463.5 Q175 487 215.5 500 Q256 513 309 513 Q332 513 358.5 509.5 Q385 506 407.5 497.5 Q430 489 444.5 474 Q459 459 459 436 Q459 417 452 405.5 Q445 394 434.5 387.5 Q424 381 412.5 379 Q401 377 392 377 Q379 377 368.5 380.5 Q358 384 347.5 387.5 Q337 391 324 394.5 Q311 398 293 398 Q230 398 230 358 Q230 341 256 329 Q280 318 311 308 Q342 298 369.5 282 Q397 266 416.5 240 Q436 214 436 171 Q436 96 385 48 Q334 0 240 -6 L233 -33 Q281 -37 301.5 -57 Q322 -77 322 -106 Z " />
<glyph glyph-name="Scaron" unicode="&#x160;" horiz-adv-x="526" d="M380 217 Q380 243 369 255 Q358 267 347 272 Q332 279 315 286 Q298 293 278 299 Q246 309 214.5 321.5 Q183 334 157.5 354 Q132 374 116.5 403.5 Q101 433 101 478 Q101 532 120 576 Q139 620 173.5 650.5 Q208 681 257 697.5 Q306 714 365 714 Q386 714 418 710.5 Q450 707 480.5 698 Q511 689 532.5 672.5 Q554 656 554 630 Q554 604 532 582.5 Q510 561 474 561 Q460 561 449.5 564 Q439 567 427 572 Q413 577 396 582 Q379 587 353 587 Q333 587 313.5 583 Q294 579 279 569 Q264 559 255 542 Q246 525 246 500 Q246 473 257.5 461 Q269 449 280 444 Q298 434 315 428 Q332 422 348 417 Q380 406 412 393.5 Q444 381 469.5 361 Q495 341 510.5 311.5 Q526 282 526 238 Q526 180 504 134 Q482 88 444 56.5 Q406 25 354.5 8 Q303 -9 244 -9 Q217 -9 182.5 -4 Q148 1 117 11.5 Q86 22 64.5 39.5 Q43 57 43 81 Q43 94 49 106 Q55 118 65.5 128 Q76 138 89.5 144 Q103 150 118 150 Q129 150 141 146.5 Q153 143 167 138 Q184 132 207.5 125 Q231 118 263 118 Q321 118 350.5 144 Q380 170 380 217 Z M383 851 L448 903 Q456 909 468 912 Q480 915 486 915 Q504 915 516.5 903 Q529 891 529 874 Q529 859 519 847 Q509 835 495 824 L408 763 Q401 758 391 754 Q381 750 369 750 Q357 750 347.5 754 Q338 758 333 763 L263 824 Q254 833 248 843.5 Q242 854 242 865 Q242 885 259.5 900 Q277 915 298 915 Q304 915 315 912 Q326 909 332 903 L383 851 Z " />
<glyph glyph-name="scaron" unicode="&#x161;" horiz-adv-x="446" d="M92 338 Q92 376 106 408 Q120 440 147 463.5 Q174 487 214.5 500 Q255 513 308 513 Q331 513 357.5 509.5 Q384 506 406.5 497.5 Q429 489 444 474 Q459 459 459 436 Q459 417 452 405.5 Q445 394 434.5 387.5 Q424 381 412.5 379 Q401 377 392 377 Q379 377 368.5 380.5 Q358 384 347.5 387.5 Q337 391 324 394.5 Q311 398 293 398 Q230 398 230 358 Q230 340 255 329 Q279 318 310 308 Q341 298 368.5 282 Q396 266 415.5 240 Q435 214 435 171 Q435 90 378 41.5 Q321 -7 216 -7 Q193 -7 163.5 -4 Q134 -1 108 7.5 Q82 16 64.5 30 Q47 44 47 66 Q47 89 67.5 109.5 Q88 130 120 130 Q132 130 144 126.5 Q156 123 169 119 Q182 115 197 111.5 Q212 108 230 108 Q259 108 278 119 Q297 130 297 153 Q297 164 292 170 Q287 176 280 180 Q259 193 227 202.5 Q195 212 165 227 Q135 242 113.5 267.5 Q92 293 92 338 Z M329 651 L394 703 Q402 709 414 712 Q426 715 432 715 Q450 715 462.5 703 Q475 691 475 674 Q475 659 465 647 Q455 635 441 624 L354 563 Q347 558 337 554 Q327 550 315 550 Q303 550 293.5 554 Q284 558 279 563 L209 624 Q200 633 194 643.5 Q188 654 188 665 Q188 685 205.5 700 Q223 715 244 715 Q250 715 261 712 Q272 709 278 703 L329 651 Z " />
<glyph glyph-name="uni0162" unicode="&#x162;" horiz-adv-x="523" d="M383 -106 Q383 -154 346.5 -185 Q310 -216 254 -216 Q234 -216 214 -212.5 Q194 -209 178 -202.5 Q162 -196 152 -185.5 Q142 -175 142 -161 Q142 -146 153 -137 Q164 -128 180 -128 Q194 -128 213 -132.5 Q232 -137 252 -137 Q303 -137 303 -113 Q303 -102 290.5 -97 Q278 -92 249 -87 Q238 -85 229.5 -83 Q221 -81 216 -77 Q211 -73 209.5 -64.5 Q208 -56 211 -40 L224 1 Q210 10 203.5 24 Q197 38 199 55 L273 578 L167 578 Q139 578 122 594.5 Q105 611 105 634 Q105 646 111.5 658.5 Q118 671 129 681.5 Q140 692 154.5 698.5 Q169 705 185 705 L537 705 Q562 705 580.5 688.5 Q599 672 599 647 Q599 633 592 620.5 Q585 608 574 598.5 Q563 589 548.5 583.5 Q534 578 519 578 L413 578 L339 55 Q334 23 304 4 L294 -33 Q342 -37 362.5 -57 Q383 -77 383 -106 Z " />
<glyph glyph-name="uni0163" unicode="&#x163;" horiz-adv-x="361" d="M322 -106 Q322 -154 285.5 -185 Q249 -216 193 -216 Q173 -216 153 -212.5 Q133 -209 117 -202.5 Q101 -196 91 -185.5 Q81 -175 81 -161 Q81 -146 91.5 -137 Q102 -128 119 -128 Q133 -128 152 -132.5 Q171 -137 191 -137 Q241 -137 241 -113 Q241 -102 229 -97 Q217 -92 188 -87 Q177 -85 168.5 -83 Q160 -81 154.5 -77 Q149 -73 147.5 -64.5 Q146 -56 149 -40 L165 10 Q137 20 120.5 38 Q104 56 96 81 Q88 106 88 138 Q88 170 93 208 L148 596 Q152 622 172 639.5 Q192 657 225 657 Q258 657 274 639 Q290 621 286 596 L270 485 L344 485 Q370 485 386 470 Q402 455 402 432 Q402 403 380 384.5 Q358 366 328 366 L253 366 L232 215 Q224 159 230 137 Q236 115 272 115 Q279 115 283 115.5 Q287 116 289 116 Q331 116 348 105.5 Q365 95 365 72 Q365 47 356 32 Q347 17 332.5 9 Q318 1 299 -1.5 Q280 -4 259 -4 Q254 -4 250 -3.5 Q246 -3 241 -3 L232 -33 Q280 -37 301 -57 Q322 -77 322 -106 Z " />
<glyph glyph-name="Tcaron" unicode="&#x164;" horiz-adv-x="523" d="M273 578 L167 578 Q139 578 122 594.5 Q105 611 105 634 Q105 646 111.5 658.5 Q118 671 129 681.5 Q140 692 154.5 698.5 Q169 705 185 705 L537 705 Q562 705 580.5 688.5 Q599 672 599 647 Q599 633 592 620.5 Q585 608 574 598.5 Q563 589 548.5 583.5 Q534 578 519 578 L413 578 L339 55 Q335 29 312 10 Q289 -9 260 -9 Q231 -9 213 10 Q195 29 199 55 L273 578 Z M381 851 L446 903 Q454 909 466 912 Q478 915 484 915 Q502 915 514.5 903 Q527 891 527 874 Q527 859 517 847 Q507 835 493 824 L406 763 Q399 758 389 754 Q379 750 367 750 Q355 750 345.5 754 Q336 758 331 763 L261 824 Q252 833 246 843.5 Q240 854 240 865 Q240 885 257.5 900 Q275 915 296 915 Q302 915 313 912 Q324 909 330 903 L381 851 Z " />
<glyph glyph-name="tcaron" unicode="&#x165;" horiz-adv-x="567" d="M148 596 Q152 622 172 639.5 Q192 657 225 657 Q258 657 274 639 Q290 621 286 596 L270 485 L344 485 Q370 485 386 470 Q402 455 402 432 Q402 403 379.5 384.5 Q357 366 327 366 L253 366 L232 215 Q224 159 230 137 Q236 115 272 115 Q279 115 283 115.5 Q287 116 289 116 Q331 116 347.5 105.5 Q364 95 364 72 Q364 47 355 32 Q346 17 331.5 9 Q317 1 298 -1.5 Q279 -4 258 -4 Q200 -4 164 10 Q128 24 110 51 Q92 78 89 117.5 Q86 157 93 208 L148 596 Z M471 484 Q474 496 479.5 505.5 Q485 515 491.5 524.5 Q498 534 504.5 545 Q511 556 517 573 Q491 578 476 597 Q461 616 461 640 Q461 657 469 672.5 Q477 688 490 699.5 Q503 711 520.5 718 Q538 725 557 725 Q587 725 608 705.5 Q629 686 629 654 Q629 640 623.5 619 Q618 598 609 574 Q600 550 587.5 526 Q575 502 561.5 482.5 Q548 463 533.5 451 Q519 439 506 439 Q500 439 492.5 440.5 Q485 442 479 447 Q473 452 470 460.5 Q467 469 471 484 Z " />
</font>
</svg>
