<svg xmlns="http://www.w3.org/2000/svg" height="500" width="1500" version="1"><defs><linearGradient gradientTransform="translate(287 -83)" gradientUnits="userSpaceOnUse" id="a" y2="129.347" x2="112.499" y1="6.137" x1="112.499"><stop offset="0" stop-color="#fff" stop-opacity="0"/><stop offset="1" stop-color="#fff" stop-opacity=".275"/><midPointStop offset=".5" stop-color="#FFF"/></linearGradient><linearGradient id="b"><stop offset="0" stop-opacity="0"/><stop offset="1" stop-opacity=".371"/></linearGradient></defs><path d="M268.508 23.64c-20.15 49.404-32.304 81.72-54.74 129.653 13.757 14.58 30.64 31.56 58.06 50.737-29.48-12.13-49.587-24.308-64.613-36.946-28.712 59.912-73.696 145.253-164.98 309.275 71.746-41.422 127.364-66.96 179.196-76.703a131.355 131.355 0 0 1-3.404-30.73l.085-2.3c1.14-45.966 25.05-81.315 53.377-78.915 28.326 2.4 50.343 41.632 49.205 87.598-.214 8.65-1.19 16.97-2.895 24.688 51.27 10.03 106.293 35.5 177.07 76.36-13.957-25.693-26.413-48.854-38.31-70.912-18.737-14.523-38.28-33.425-78.148-53.887 27.4 7.12 47.02 15.334 62.314 24.516C319.777 150.894 309.984 120.972 268.508 23.64z" fill="#4d4d4d" fill-rule="evenodd"/><path d="M399.74 203.043l-67.513 39.165a109.955 109.955 0 0 0-8.7-5.71 109.955 109.955 0 0 0-60.165-14.61 109.955 109.955 0 0 0-90.034 54.856 109.955 109.955 0 0 0 20.48 135.435l-56.447 48.225 67.992-38.803a109.955 109.955 0 0 0 8.22 5.342 109.955 109.955 0 0 0 150.2-40.245 109.955 109.955 0 0 0-18.877-133.957l54.845-49.7zm-131.19 30.375a98.302 98.302 0 0 1 52.456 15.302l-119.623 69.397 61.176 35.323-59.852 51.13a98.302 98.302 0 0 1-32.46-72.85 98.302 98.302 0 0 1 98.302-98.302zm67.678 27.173a98.302 98.302 0 0 1 30.625 71.13 98.302 98.302 0 0 1-98.303 98.304 98.302 98.302 0 0 1-51.828-14.913l129.397-73.85-60.422-34.88 50.53-45.79z" fill="#00a7ab"/><g font-weight="700" font-size="58.75" font-family="Arial" letter-spacing="0" word-spacing="0"><g style="line-height:125%" fill="#4d4d4d"><path d="M546.87 329.84l-13.506-38.895h-58.018L461.84 329.84H429.97l55.534-152.23H523.1l55.318 152.23h-31.55zM504.3 201.054l-.647 2.377q-1.08 3.89-2.593 8.86-1.513 4.97-18.583 54.67h43.756l-15.017-43.757-4.646-14.694-2.27-7.456zM587.81 329.84v-89.46q0-9.614-.324-15.99-.217-6.48-.54-11.45H615.9q.325 1.944.865 11.883.54 9.832.54 13.074h.432q4.43-12.317 7.887-17.287 3.458-5.078 8.21-7.455 4.755-2.485 11.886-2.485 5.834 0 9.4 1.62v25.39q-7.347-1.62-12.965-1.62-11.345 0-17.72 9.183-6.266 9.184-6.266 27.227v57.37h-30.36zM718.538 332q-26.578 0-41.056-15.773-14.478-15.882-14.478-44.19 0-28.954 14.586-45.053 14.586-16.206 41.38-16.206 20.636 0 34.14 10.372 13.506 10.372 16.964 28.63l-30.576 1.514q-1.297-8.968-6.483-14.262-5.186-5.402-14.693-5.402-23.445 0-23.445 39.22 0 40.407 23.877 40.407 8.643 0 14.477-5.402 5.836-5.51 7.24-16.315l30.468 1.405q-1.62 11.993-8.643 21.392-6.915 9.4-18.26 14.586Q732.692 332 718.54 332zM812.906 236.276q6.158-13.397 15.45-19.448 9.292-6.05 22.15-6.05 18.582 0 28.522 11.452 9.94 11.453 9.94 33.493v74.117h-30.252v-65.473q0-30.792-20.852-30.792-11.02 0-17.827 9.508-6.7 9.4-6.7 24.2v62.557h-30.36V169.506h30.36v43.757q0 11.777-.863 23.013h.432z" style="line-height:125%;-inkscape-font-specification:'Arial, Bold';text-align:start"/></g><g style="line-height:125%" fill="#00a7ab"><path d="M1034.242 285.975q0 22.365-16.638 34.25Q1001.074 332 968.984 332q-29.278 0-45.917-10.37-16.638-10.373-21.392-31.44l30.792-5.08q3.133 12.1 12.208 17.612 9.076 5.402 25.174 5.402 33.384 0 33.384-20.312 0-6.483-3.89-10.696-3.78-4.214-10.804-7.023-6.914-2.81-26.686-6.807-17.07-3.997-23.77-6.374-6.698-2.485-12.1-5.726-5.402-3.35-9.183-7.995-3.78-4.645-5.942-10.912-2.052-6.266-2.052-14.37 0-20.635 15.45-31.547 15.558-11.02 45.16-11.02 28.308 0 42.46 8.86 14.263 8.86 18.37 29.28l-30.9 4.213q-2.378-9.832-9.725-14.802-7.238-4.97-20.85-4.97-28.956 0-28.956 18.152 0 5.942 3.025 9.724 3.132 3.78 9.182 6.482 6.05 2.593 24.526 6.59 21.932 4.647 31.332 8.644 9.508 3.89 15.018 9.184 5.51 5.186 8.427 12.533 2.917 7.237 2.917 16.745zM1082.48 331.785q-13.398 0-20.637-7.24-7.24-7.346-7.24-22.148v-68.93h-14.8V212.94h16.314l9.507-27.444h19.016v27.443h22.148v20.527h-22.148v60.72q0 8.535 3.24 12.64 3.242 3.998 10.05 3.998 3.564 0 10.155-1.513v18.8q-11.236 3.673-25.606 3.673zM1120.452 329.84v-89.46q0-9.614-.324-15.99-.217-6.48-.54-11.45h28.955q.324 1.944.864 11.883.54 9.832.54 13.074h.432q4.43-12.317 7.886-17.287 3.458-5.078 8.212-7.455 4.753-2.485 11.884-2.485 5.834 0 9.4 1.62v25.39q-7.347-1.62-12.965-1.62-11.345 0-17.72 9.183-6.266 9.184-6.266 27.227v57.37h-30.358zM1198.453 191.87v-22.364h30.36v22.365h-30.36zm0 137.97v-116.9h30.36v116.9h-30.36zM1322.478 329.84l-31.225-52.94-13.073 9.075v43.865h-30.36V169.506h30.36v91.836l41.705-48.403h32.628l-41.056 45.593 44.19 71.307h-33.17z" style="line-height:125%;-inkscape-font-specification:'Arial, Bold';text-align:start"/><path d="M1406.85 332q-26.362 0-40.515-15.557-14.153-15.666-14.153-45.594 0-28.956 14.37-44.514 14.37-15.558 40.73-15.558 25.175 0 38.464 16.747 13.29 16.638 13.29 48.834v.864h-74.982q0 17.07 6.266 25.822 6.375 8.643 18.043 8.643 16.098 0 20.312-13.938l28.63 2.485Q1444.882 332 1406.852 332zm0-102.1q-10.695 0-16.53 7.456-5.726 7.455-6.05 20.852h45.377q-.864-14.153-6.806-21.176-5.94-7.13-15.99-7.13z" style="line-height:125%;-inkscape-font-specification:'Arial, Bold';text-align:start"/></g></g></svg>